<svg width="18" height="20" viewBox="0 0 18 20" fill="none" xmlns="http://www.w3.org/2000/svg">
<path d="M9.27846 19.1319L9.57548 19.71H9.57548L9.27846 19.1319ZM8.48229 19.1319L8.7793 18.5537L8.48229 19.1319ZM16.1107 9.19483C16.1107 11.8094 14.7647 13.9323 13.1606 15.5345C11.5573 17.1356 9.7529 18.1574 8.98145 18.5537L9.57548 19.71C10.4048 19.284 12.3415 18.1898 14.0792 16.4543C15.816 14.7197 17.4107 12.2853 17.4107 9.19483H16.1107ZM8.88037 1.96445C12.8736 1.96445 16.1107 5.2016 16.1107 9.19483H17.4107C17.4107 4.48363 13.5916 0.664453 8.88037 0.664453V1.96445ZM1.65 9.19483C1.65 5.2016 4.88715 1.96445 8.88037 1.96445V0.664453C4.16918 0.664453 0.35 4.48363 0.35 9.19483H1.65ZM8.7793 18.5537C8.00785 18.1574 6.20341 17.1356 4.60018 15.5345C2.996 13.9323 1.65 11.8094 1.65 9.19483H0.35C0.35 12.2853 1.94476 14.7197 3.68153 16.4543C5.41926 18.1898 7.35596 19.284 8.18527 19.71L8.7793 18.5537ZM8.98145 18.5537C8.9145 18.5881 8.84625 18.5881 8.7793 18.5537L8.18527 19.71C8.62508 19.936 9.13567 19.936 9.57548 19.71L8.98145 18.5537ZM11.6075 9.19371C11.6075 10.7 10.3865 11.921 8.88023 11.921V13.221C11.1045 13.221 12.9075 11.4179 12.9075 9.19371H11.6075ZM8.88023 6.46641C10.3865 6.46641 11.6075 7.68746 11.6075 9.19371H12.9075C12.9075 6.96949 11.1045 5.16641 8.88023 5.16641V6.46641ZM6.15293 9.19371C6.15293 7.68746 7.37398 6.46641 8.88023 6.46641V5.16641C6.65601 5.16641 4.85293 6.96949 4.85293 9.19371H6.15293ZM8.88023 11.921C7.37398 11.921 6.15293 10.7 6.15293 9.19371H4.85293C4.85293 11.4179 6.65601 13.221 8.88023 13.221V11.921Z" fill="#002245"/>
</svg>
