<svg width="526" height="233" viewBox="0 0 526 233" fill="none" xmlns="http://www.w3.org/2000/svg">
<path d="M353.911 126.719L439.857 47.6992L525.804 126.719V219.328H353.911V126.719Z" fill="#078AFB"/>
<path d="M130.782 126.719L216.728 47.6992H439.857L353.911 126.719H130.782Z" fill="#B5DBFE"/>
<path d="M353.873 126.719H130.782V219.291H353.873V126.719Z" fill="#52ADFD"/>
<path d="M333.694 16H310.654V101.683H333.694V16Z" fill="#B5DBFE"/>
<path d="M362.232 71.9799L333.733 101.645V16H362.232V71.9799Z" fill="#52ADFD"/>
<path d="M439.858 85.2695C445.806 85.2695 450.587 90.0882 450.587 95.9987V118.059H429.091V95.9987C429.091 90.0506 433.91 85.2695 439.82 85.2695H439.858Z" fill="#B5DBFE"/>
<path d="M501.333 152.469H379.021V219.328H501.333V152.469Z" fill="#B5DBFE"/>
<path d="M215.034 219.326C215.034 206.15 225.688 195.496 238.864 195.496C244.549 195.496 249.744 197.491 253.847 200.804C257.838 186.988 270.562 176.898 285.658 176.898C299.663 176.898 311.597 185.557 316.453 197.83C319.578 196.324 323.041 195.496 326.73 195.496C339.907 195.496 350.561 206.15 350.561 219.326H215.034Z" fill="#23D7A0"/>
<path d="M153.295 139.992L108.308 97L63.3203 139.992V232.752H153.295V139.992Z" fill="#52ADFD"/>
<path d="M243.232 139.992L198.245 97H108.308L153.295 139.992V232.752H243.232V139.992Z" fill="#B5DBFE"/>
<path d="M243.194 140.03H153.295L108.308 97H198.245L243.194 140.03Z" fill="#078AFB"/>
<path d="M108.308 164.875C121.221 164.875 131.686 175.341 131.686 188.253V232.751H84.9673V188.253C84.9673 175.341 95.4329 164.875 108.346 164.875H108.308Z" fill="#B5DBFE"/>
<path d="M231.599 164.875H209.35V184.188H231.599V164.875Z" fill="#52ADFD"/>
<path d="M195.835 164.875H173.586V184.188H195.835V164.875Z" fill="#52ADFD"/>
<path d="M108.308 151.7C114.753 151.7 119.978 146.475 119.978 140.03C119.978 133.584 114.753 128.359 108.308 128.359C101.862 128.359 96.6372 133.584 96.6372 140.03C96.6372 146.475 101.862 151.7 108.308 151.7Z" fill="#B5DBFE"/>
<path d="M149.33 21L153 16.5L149.33 12H27V21H149.33Z" fill="#0F4595"/>
<path d="M42 3.80223L37.5134 0L33 3.80223V213H42V3.80223Z" fill="#0F4595"/>
<path d="M75 21H68V37H75V21Z" fill="#52ADFD"/>
<path d="M133 21H127V37H133V21Z" fill="#52ADFD"/>
<path d="M145 35H57V78H145V35Z" fill="#0F4595"/>
<path d="M0 232.751C0 223.829 7.22807 216.601 16.1502 216.601C19.9901 216.601 23.5289 217.956 26.3147 220.215C29.0252 210.841 37.6462 204.027 47.886 204.027C57.3728 204.027 65.4668 209.9 68.7796 218.22C70.8878 217.204 73.2595 216.639 75.7442 216.639C84.6663 216.639 91.8944 223.867 91.8944 232.789H0V232.751Z" fill="#23D7A0"/>
</svg>
