<svg width="18" height="20" viewBox="0 0 18 20" fill="none" xmlns="http://www.w3.org/2000/svg">
<path fill-rule="evenodd" clip-rule="evenodd" d="M9.16036 19.8282C10.8758 18.9536 17.5202 15.1535 17.5202 8.76012C17.5202 3.92204 13.5982 0 8.76012 0C3.92204 0 0 3.92204 0 8.76012C0 15.1535 6.64444 18.9536 8.35988 19.8282C8.61366 19.9575 8.90659 19.9575 9.16036 19.8282ZM8.7602 12.5145C10.8337 12.5145 12.5145 10.8337 12.5145 8.7602C12.5145 6.68673 10.8337 5.00586 8.7602 5.00586C6.68673 5.00586 5.00586 6.68673 5.00586 8.7602C5.00586 10.8337 6.68673 12.5145 8.7602 12.5145Z" fill="#078AFB"/>
</svg>
