<svg width="20" height="20" viewBox="0 0 20 20" fill="none" xmlns="http://www.w3.org/2000/svg">
<path d="M18.9903 10C18.9903 11.78 18.4603 13.52 17.4803 15C16.4903 16.48 15.0803 17.63 13.4403 18.31C11.2303 19.22 8.7603 19.22 6.5503 18.31C5.4503 17.86 4.4603 17.2 3.6203 16.37C2.7803 15.53 2.1203 14.54 1.6803 13.44C1.2303 12.35 0.9903 11.18 1.0003 10C1.0003 7.61 1.9503 5.32 3.6403 3.64C5.3303 1.95 7.6203 1 10.0003 1C12.3803 1 14.6803 1.95 16.3603 3.64C18.0503 5.33 19.0003 7.62 19.0003 10H18.9903Z" stroke="white" stroke-width="1.5" stroke-linecap="round" stroke-linejoin="round"/>
<path d="M9.78027 6.08984V10.0398L12.7503 12.9998" stroke="white" stroke-width="1.5" stroke-linecap="round" stroke-linejoin="round"/>
</svg>
