<svg width="21" height="21" viewBox="0 0 21 21" fill="none" xmlns="http://www.w3.org/2000/svg">
<path d="M4.86251 20.8828H0.506246V7.17344H4.86251V20.8828ZM2.68438 5.25156C1.275 5.25156 0.25 4.22656 0.25 2.81719C0.25 1.40781 1.40313 0.382812 2.68438 0.382812C4.09375 0.382812 5.11875 1.40781 5.11875 2.81719C5.11875 4.22656 4.09375 5.25156 2.68438 5.25156ZM20.75 20.8828H16.3938V13.4516C16.3938 11.2734 15.4969 10.6328 14.2156 10.6328C12.9344 10.6328 11.6531 11.6578 11.6531 13.5797V20.8828H7.29688V7.17344H11.3969V9.09531C11.7812 8.19844 13.3187 6.78906 15.4969 6.78906C17.9312 6.78906 20.4938 8.19844 20.4938 12.4266V20.8828H20.75Z" fill="#112347"/>
</svg>
