<svg width="36" height="35" viewBox="0 0 36 35" fill="none" xmlns="http://www.w3.org/2000/svg">
<path fill-rule="evenodd" clip-rule="evenodd" d="M35.8501 17.5C35.8501 27.165 28.0151 35 18.3501 35C8.68511 35 0.850098 27.165 0.850098 17.5C0.850098 7.83502 8.68511 0 18.3501 0C28.0151 0 35.8501 7.83502 35.8501 17.5ZM21 9.5C21 10.8807 19.8807 12 18.5 12C17.1193 12 16 10.8807 16 9.5C16 8.11929 17.1193 7 18.5 7C19.8807 7 21 8.11929 21 9.5ZM20.221 17C20.221 15.9659 19.3827 15.1276 18.3486 15.1276C17.3145 15.1276 16.4763 15.9659 16.4763 17V27.2253C16.4763 28.2593 17.3145 29.0976 18.3486 29.0976C19.3827 29.0976 20.221 28.2593 20.221 27.2253V17Z" fill="white"/>
</svg>
