<svg width="27" height="27" viewBox="0 0 27 27" fill="none" xmlns="http://www.w3.org/2000/svg">
<path d="M22.2162 17H24.7838C25.4555 17 26 16.4151 26 15.6936L26 2.30645C26 1.58492 25.4555 1 24.7838 1H22.2162C21.5445 1 21 1.58492 21 2.30645V15.6936C21 16.4151 21.5445 17 22.2162 17Z" stroke="#078AFB" stroke-width="2" stroke-linecap="round" stroke-linejoin="round"/>
<path d="M21 3.29747C18.6783 1.80314 15.9663 1.00503 13.1932 1H8.10123C7.16739 0.999998 6.24277 1.18151 5.38021 1.53415C4.51765 1.88679 3.73416 2.40363 3.07455 3.05507C2.41494 3.70651 1.8921 4.47978 1.53614 5.33058C1.18017 6.18139 0.998004 7.09302 1.00002 8.0133V12.9256C0.997997 13.6507 1.14141 14.369 1.42202 15.0392C1.70264 15.7095 2.11499 16.3184 2.63523 16.8311C3.15547 17.3438 3.77334 17.7501 4.45345 18.0267C5.13357 18.3032 5.86247 18.4446 6.5982 18.4426V18.4426C6.70974 18.4424 6.81988 18.4668 6.92069 18.5139C7.0215 18.5609 7.11045 18.6295 7.18102 18.7146C7.30836 18.8505 7.37949 19.0285 7.38042 19.2134V23.3549C7.38042 24.0564 7.66321 24.7292 8.16657 25.2253C8.66992 25.7213 9.3526 26 10.0645 26V26C10.4162 26 10.7644 25.9315 11.0892 25.7984C11.414 25.6653 11.7089 25.4702 11.9569 25.2244C12.2049 24.9786 12.4012 24.6868 12.5344 24.366C12.6676 24.0452 12.7352 23.7015 12.7331 23.3549V20.7854C12.715 19.3994 13.1806 18.0493 14.0521 16.9613C14.0521 16.8706 14.1748 16.8102 14.2362 16.7346C15.8024 15.0327 17.9244 13.9256 20.2331 13.6058L21 13.5" stroke="#078AFB" stroke-width="2" stroke-linecap="round" stroke-linejoin="round"/>
</svg>
