<svg width="107" height="114" viewBox="0 0 107 114" fill="none" xmlns="http://www.w3.org/2000/svg">
<g filter="url(#filter0_d_192_4998)">
<path d="M76.62 37.2239V69.8539C76.62 70.3332 76.5256 70.8079 76.3422 71.2507C76.1587 71.6936 75.89 72.0959 75.551 72.4349C75.2121 72.7738 74.8097 73.0426 74.3668 73.2261C73.924 73.4095 73.4494 73.5039 72.9701 73.5039H33.65C33.1703 73.5052 32.6952 73.4117 32.2517 73.2288C31.8083 73.0458 31.4054 72.777 31.0662 72.4378C30.727 72.0986 30.4581 71.6957 30.2752 71.2523C30.0922 70.8088 29.9987 70.3336 30 69.8539V23.6639C30 22.6932 30.3857 21.7623 31.072 21.0759C31.7584 20.3895 32.6894 20.0039 33.66 20.0039H59.39C59.8329 20.0039 60.2577 20.1799 60.5709 20.493C60.8841 20.8062 61.0601 21.231 61.0601 21.6739V29.4639C61.0601 30.2637 61.2175 31.0556 61.5236 31.7944C61.8296 32.5333 62.2783 33.2047 62.8438 33.7702C63.4093 34.3357 64.0806 34.7843 64.8195 35.0903C65.5583 35.3964 66.3503 35.5539 67.15 35.5539H74.9501C75.393 35.5539 75.8177 35.7298 76.1309 36.043C76.4441 36.3562 76.62 36.781 76.62 37.2239Z" fill="#078AFB"/>
</g>
<path d="M75.5066 32.8744H67.8267C66.741 32.8744 65.6997 32.4438 64.931 31.677C64.1624 30.9103 63.7292 29.87 63.7266 28.7844V21.1043C63.7257 20.8861 63.7898 20.6726 63.9107 20.4909C64.0315 20.3092 64.2035 20.1676 64.405 20.0839C64.6066 20.0003 64.8285 19.9786 65.0425 20.0214C65.2564 20.0642 65.4527 20.1696 65.6066 20.3244L76.2866 30.9943C76.4414 31.1482 76.5468 31.3446 76.5896 31.5586C76.6324 31.7725 76.6106 31.9943 76.527 32.1959C76.4434 32.3974 76.3017 32.5696 76.12 32.6904C75.9383 32.8112 75.7248 32.8752 75.5066 32.8744Z" fill="#078AFB"/>
<path d="M38.6094 59.9043H57.3194" stroke="white" stroke-width="2" stroke-linecap="round" stroke-linejoin="round"/>
<path d="M38.6094 52.2148H68.0094" stroke="white" stroke-width="2" stroke-linecap="round" stroke-linejoin="round"/>
<path d="M38.6094 44.5234H68.0094" stroke="white" stroke-width="2" stroke-linecap="round" stroke-linejoin="round"/>
<defs>
<filter id="filter0_d_192_4998" x="0" y="0.00390625" width="106.62" height="113.5" filterUnits="userSpaceOnUse" color-interpolation-filters="sRGB">
<feFlood flood-opacity="0" result="BackgroundImageFix"/>
<feColorMatrix in="SourceAlpha" type="matrix" values="0 0 0 0 0 0 0 0 0 0 0 0 0 0 0 0 0 0 127 0" result="hardAlpha"/>
<feOffset dy="10"/>
<feGaussianBlur stdDeviation="15"/>
<feComposite in2="hardAlpha" operator="out"/>
<feColorMatrix type="matrix" values="0 0 0 0 0.509804 0 0 0 0 0.819608 0 0 0 0 0.992157 0 0 0 0.65 0"/>
<feBlend mode="normal" in2="BackgroundImageFix" result="effect1_dropShadow_192_4998"/>
<feBlend mode="normal" in="SourceGraphic" in2="effect1_dropShadow_192_4998" result="shape"/>
</filter>
</defs>
</svg>
