<svg width="21" height="21" viewBox="0 0 21 21" fill="none" xmlns="http://www.w3.org/2000/svg">
<path d="M4.86251 20.8848H0.506246V7.17539H4.86251V20.8848ZM2.68438 5.25352C1.275 5.25352 0.25 4.22852 0.25 2.81914C0.25 1.40977 1.40313 0.384766 2.68438 0.384766C4.09375 0.384766 5.11875 1.40977 5.11875 2.81914C5.11875 4.22852 4.09375 5.25352 2.68438 5.25352ZM20.75 20.8848H16.3938V13.4535C16.3938 11.2754 15.4969 10.6348 14.2156 10.6348C12.9344 10.6348 11.6531 11.6598 11.6531 13.5816V20.8848H7.29688V7.17539H11.3969V9.09727C11.7812 8.20039 13.3187 6.79102 15.4969 6.79102C17.9312 6.79102 20.4938 8.20039 20.4938 12.4285V20.8848H20.75Z" fill="white"/>
</svg>
