<svg width="376" height="147" viewBox="0 0 376 147" fill="none" xmlns="http://www.w3.org/2000/svg">
<path d="M252.976 79.9146L314.41 23.4316L375.844 79.9146V146.112H252.976V79.9146Z" fill="#078AFB"/>
<path d="M93.4829 79.9146L154.917 23.4316H314.41L252.975 79.9146H93.4829Z" fill="#B5DBFE"/>
<path d="M252.948 79.915H93.4829V146.085H252.948V79.915Z" fill="#52ADFD"/>
<path d="M238.524 0.774414H222.056V62.0204H238.524V0.774414Z" fill="#B5DBFE"/>
<path d="M258.923 40.7888L238.552 61.9935V0.774414H258.923V40.7888Z" fill="#52ADFD"/>
<path d="M314.41 50.2881C318.662 50.2881 322.08 53.7325 322.08 57.9573V73.7262H306.714V57.9573C306.714 53.7056 310.159 50.2881 314.384 50.2881H314.41Z" fill="#B5DBFE"/>
<path d="M358.353 98.3213H270.924V146.113H358.353V98.3213Z" fill="#B5DBFE"/>
<path d="M153.706 146.113C153.706 136.695 161.321 129.079 170.74 129.079C174.803 129.079 178.517 130.506 181.45 132.874C184.302 122.998 193.398 115.786 204.188 115.786C214.199 115.786 222.729 121.975 226.2 130.748C228.434 129.671 230.909 129.079 233.546 129.079C242.965 129.079 250.58 136.695 250.58 146.113H153.706Z" fill="#23D7A0"/>
<path d="M109.575 79.8078L77.4181 49.0771L45.2612 79.8078V146.113H109.575V79.8078Z" fill="#52ADFD"/>
<path d="M173.862 79.8078L141.705 49.0771H77.4185L109.575 79.8078V146.113H173.862V79.8078Z" fill="#B5DBFE"/>
<path d="M173.835 79.8347H109.575L77.4185 49.0771H141.705L173.835 79.8347Z" fill="#078AFB"/>
<path d="M77.4183 97.5947C86.6482 97.5947 94.129 105.076 94.129 114.306V146.113H60.7344V114.306C60.7344 105.076 68.2152 97.5947 77.4452 97.5947H77.4183Z" fill="#B5DBFE"/>
<path d="M165.547 97.5947H149.643V111.399H165.547V97.5947Z" fill="#52ADFD"/>
<path d="M139.983 97.5947H124.079V111.399H139.983V97.5947Z" fill="#52ADFD"/>
<path d="M77.4181 88.177C82.0252 88.177 85.76 84.4422 85.76 79.8351C85.76 75.228 82.0252 71.4932 77.4181 71.4932C72.811 71.4932 69.0762 75.228 69.0762 79.8351C69.0762 84.4422 72.811 88.177 77.4181 88.177Z" fill="#B5DBFE"/>
<path d="M0 146.113C0 139.735 5.16662 134.569 11.5442 134.569C14.2889 134.569 16.8184 135.538 18.8097 137.152C20.7472 130.452 26.9095 125.581 34.2289 125.581C41.01 125.581 46.7956 129.779 49.1636 135.726C50.6705 134.999 52.3658 134.596 54.1419 134.596C60.5194 134.596 65.686 139.762 65.686 146.14H0V146.113Z" fill="#23D7A0"/>
</svg>
