<svg width="393" height="71" viewBox="0 0 393 71" fill="none" xmlns="http://www.w3.org/2000/svg">
<path d="M12.0077 70.9963C11.5246 70.9963 11.0531 70.9891 10.5737 70.9764C9.5806 70.9613 8.58983 70.8601 7.60951 70.6737C6.69541 70.4894 5.8099 70.1467 4.98218 69.6567C4.16204 69.1708 3.41401 68.5337 2.76675 67.7698C2.11011 67.0149 1.56343 66.1393 1.14838 65.1777C0.728743 64.21 0.438333 63.1726 0.28726 62.1018C0.124115 60.9512 0.0358471 59.7878 0.0232169 58.6216C0.0131626 58.2301 0 56.9268 0 56.9268V14.0495C0 14.0495 0.014019 12.7662 0.0232962 12.3892C0.0353896 11.2248 0.123145 10.0632 0.285801 8.91441C0.437153 7.84068 0.727788 6.80033 1.14765 5.82936C1.56118 4.86848 2.10482 3.99224 2.7575 3.23461C3.40945 2.46978 4.15987 1.82939 4.9814 1.33679C5.80722 0.848417 6.69106 0.508078 7.60331 0.327177C8.58685 0.138904 9.58105 0.037115 10.5776 0.0226631L12.0085 0H174.984L176.432 0.0235727C177.419 0.0373064 178.404 0.138188 179.379 0.325358C180.3 0.508528 181.193 0.851242 182.029 1.34223C183.675 2.33496 185.014 3.90556 185.859 5.83389C186.272 6.79815 186.558 7.83002 186.707 8.89447C186.872 10.0527 186.964 11.2234 186.983 12.3973C186.987 12.923 186.987 13.4876 186.987 14.0495C187 14.7456 187 15.4081 187 16.076V54.922C187 55.5963 187 56.2543 186.987 56.9177C186.987 57.5213 186.987 58.0742 186.981 58.6433C186.963 59.7963 186.872 60.9461 186.71 62.0836C186.562 63.1621 186.273 64.2076 185.854 65.1833C185.436 66.1344 184.892 67.0024 184.243 67.7553C183.595 68.5234 182.846 69.1642 182.024 69.6532C181.191 70.1469 180.299 70.4909 179.379 70.6737C178.399 70.8611 177.408 70.9623 176.415 70.9764C175.95 70.9891 175.464 70.9963 174.992 70.9963L173.272 71L12.0077 70.9963Z" fill="#112347"/>
<path d="M218.008 70.9963C217.525 70.9963 217.053 70.9891 216.574 70.9764C215.581 70.9613 214.59 70.8601 213.61 70.6737C212.695 70.4894 211.81 70.1467 210.982 69.6567C210.162 69.1708 209.414 68.5337 208.767 67.7698C208.11 67.0149 207.563 66.1393 207.148 65.1777C206.729 64.21 206.438 63.1726 206.287 62.1018C206.124 60.9512 206.036 59.7878 206.023 58.6216C206.013 58.2301 206 56.9268 206 56.9268V14.0495C206 14.0495 206.014 12.7662 206.023 12.3892C206.035 11.2248 206.123 10.0632 206.286 8.91441C206.437 7.84068 206.728 6.80033 207.148 5.82936C207.561 4.86848 208.105 3.99224 208.758 3.23461C209.409 2.46978 210.16 1.82939 210.981 1.33679C211.807 0.848417 212.691 0.508078 213.603 0.327177C214.587 0.138904 215.581 0.037115 216.578 0.0226631L218.009 0H380.984L382.432 0.0235727C383.419 0.0373064 384.404 0.138188 385.379 0.325358C386.3 0.508528 387.193 0.851242 388.029 1.34223C389.675 2.33496 391.014 3.90556 391.859 5.83389C392.272 6.79815 392.558 7.83002 392.707 8.89447C392.872 10.0527 392.964 11.2234 392.983 12.3973C392.987 12.923 392.987 13.4876 392.987 14.0495C393 14.7456 393 15.4081 393 16.076V54.922C393 55.5963 393 56.2543 392.987 56.9177C392.987 57.5213 392.987 58.0742 392.981 58.6433C392.963 59.7963 392.872 60.9461 392.71 62.0836C392.562 63.1621 392.273 64.2076 391.854 65.1833C391.436 66.1344 390.892 67.0024 390.243 67.7553C389.595 68.5234 388.846 69.1642 388.024 69.6532C387.191 70.1469 386.299 70.4909 385.379 70.6737C384.399 70.8611 383.408 70.9623 382.415 70.9764C381.95 70.9891 381.464 70.9963 380.992 70.9963L379.272 71L218.008 70.9963Z" fill="#112347"/>
<path d="M98.1409 26.7166C97.0527 26.7166 96.1354 26.3343 95.4099 25.5817C94.6904 24.8503 94.2887 23.8418 94.3067 22.8123C94.3067 21.7136 94.6784 20.7835 95.4099 20.046C96.1324 19.2934 97.0497 18.9111 98.1379 18.9111C99.2141 18.9111 100.131 19.2934 100.869 20.046C101.6 20.8076 101.972 21.7377 101.972 22.8123C101.96 23.9141 101.588 24.8442 100.869 25.5787C100.146 26.3373 99.2291 26.7166 98.1409 26.7166ZM65.7614 26.7166C64.6971 26.7166 63.7738 26.3403 63.0184 25.5968C62.2689 24.8563 61.8882 23.9201 61.8882 22.8154C61.8882 21.7106 62.2689 20.7744 63.0184 20.0339C63.7588 19.2904 64.6822 18.9141 65.7614 18.9141C66.289 18.9141 66.8016 19.0195 67.2933 19.2332C67.7759 19.4409 68.1686 19.7239 68.4594 20.0701L68.5314 20.1574L67.719 20.9581L67.635 20.8587C67.1764 20.3109 66.5618 20.043 65.7494 20.043C65.0239 20.043 64.3914 20.3018 63.8697 20.8136C63.3451 21.3283 63.0783 22.0026 63.0783 22.8184C63.0783 23.6341 63.3451 24.3084 63.8697 24.8232C64.3914 25.3349 65.0239 25.5938 65.7494 25.5938C66.5228 25.5938 67.1734 25.3349 67.68 24.8232C67.9798 24.5221 68.1656 24.1007 68.2316 23.5679H65.6265V22.4421H69.3498L69.3648 22.5444C69.3917 22.7341 69.4187 22.9297 69.4187 23.1104C69.4187 24.1489 69.107 24.9887 68.4894 25.6088C67.7879 26.3433 66.8706 26.7166 65.7614 26.7166ZM108.813 26.557H107.665L104.149 20.9069L104.179 21.9243V26.554H103.03V19.0737H104.34L104.376 19.1309L107.683 24.4529L107.653 23.4385V19.0737H108.813V26.557ZM89.5132 26.557H88.35V20.1995H86.3325V19.0737H91.5277V20.1995H89.5102V26.557H89.5132ZM85.3852 26.557H84.225V19.0737H85.3852V26.557ZM78.8649 26.557H77.7047V20.1995H75.6872V19.0737H80.8824V20.1995H78.8649V26.557ZM74.9527 26.545H70.5039V19.0737H74.9527V20.1995H71.6671V22.2525H74.6319V23.3662H71.6671V25.4192H74.9527V26.545ZM96.2613 24.8081C96.7799 25.3289 97.4095 25.5908 98.1409 25.5908C98.8934 25.5908 99.5079 25.3349 100.021 24.8081C100.53 24.2964 100.788 23.6251 100.788 22.8154C100.788 22.0056 100.53 21.3313 100.024 20.8226C99.5049 20.3018 98.8724 20.04 98.1439 20.04C97.3915 20.04 96.7769 20.2958 96.2673 20.8226C95.7577 21.3343 95.4998 22.0056 95.4998 22.8154C95.4998 23.6251 95.7547 24.2994 96.2613 24.8081Z" fill="white"/>
<path fill-rule="evenodd" clip-rule="evenodd" d="M94.1988 37.006C91.3659 37.006 89.0695 39.1643 89.0695 42.1414C89.0695 45.0914 91.3809 47.2768 94.1988 47.2768C97.0318 47.2768 99.3282 45.1034 99.3282 42.1414C99.3282 39.1643 97.0318 37.006 94.1988 37.006ZM94.1988 45.2419C92.6489 45.2419 91.3149 43.9535 91.3149 42.1294C91.3149 40.2781 92.6519 39.0168 94.1988 39.0168C95.7487 39.0168 97.0828 40.2781 97.0828 42.1294C97.0858 43.9656 95.7487 45.2419 94.1988 45.2419ZM83.0079 37.006C80.1749 37.006 77.8785 39.1643 77.8785 42.1414C77.8785 45.0914 80.1899 47.2768 83.0079 47.2768C85.8408 47.2768 88.1372 45.1034 88.1372 42.1414C88.1372 39.1643 85.8378 37.006 83.0079 37.006ZM83.0079 45.2419C81.458 45.2419 80.1239 43.9535 80.1239 42.1294C80.1239 40.2781 81.461 39.0168 83.0079 39.0168C84.5577 39.0168 85.8918 40.2781 85.8918 42.1294C85.8918 43.9656 84.5577 45.2419 83.0079 45.2419ZM69.6914 38.5743V40.7477H74.8867C74.7278 41.9668 74.3261 42.8668 73.7115 43.4839C72.9501 44.2485 71.7749 45.0793 69.7034 45.0793C66.5107 45.0793 64.0135 42.4906 64.0135 39.2847C64.0135 36.0789 66.5107 33.4901 69.7034 33.4901C71.4272 33.4901 72.6833 34.1734 73.6156 35.0464L75.1505 33.5051C73.8554 32.2589 72.1317 31.3047 69.7154 31.3047C65.3355 31.3047 61.6602 34.8868 61.6602 39.2727C61.6602 43.6706 65.3325 47.2407 69.7154 47.2407C72.0807 47.2407 73.8554 46.464 75.2584 45.0011C76.6884 43.5652 77.1411 41.5394 77.1411 39.9048C77.1411 39.3961 77.1021 38.9385 77.0212 38.5502H69.6884C69.6914 38.5472 69.6914 38.5743 69.6914 38.5743ZM124.159 40.266C123.731 39.1131 122.436 36.994 119.779 36.994C117.147 36.994 114.959 39.074 114.959 42.1294C114.959 45.0131 117.123 47.2647 120.034 47.2647C122.373 47.2647 123.734 45.8289 124.294 44.986L122.559 43.8181C121.983 44.676 121.182 45.2389 120.046 45.2389C118.898 45.2389 118.095 44.7151 117.561 43.6826L124.399 40.838C124.399 40.841 124.159 40.266 124.159 40.266ZM117.186 41.9819C117.132 39.9981 118.721 38.9897 119.857 38.9897C120.754 38.9897 121.5 39.4322 121.755 40.0764L117.186 41.9819ZM111.631 46.9577H113.877V31.8706H111.631V46.9577ZM107.944 38.1469H107.863C107.356 37.5418 106.394 36.994 105.165 36.994C102.614 36.994 100.263 39.2486 100.263 42.1444C100.263 45.0282 102.602 47.2557 105.165 47.2557C106.379 47.2557 107.356 46.7048 107.863 46.0878H107.944V46.8253C107.944 48.7849 106.901 49.8415 105.219 49.8415C103.843 49.8415 102.989 48.8481 102.641 48.0173L100.689 48.8361C101.25 50.1907 102.746 51.8673 105.216 51.8673C107.848 51.8673 110.078 50.3111 110.078 46.5152V37.301H107.956V38.1469C107.959 38.1469 107.944 38.1469 107.944 38.1469ZM105.366 45.2419C103.816 45.2419 102.521 43.9415 102.521 42.1444C102.521 40.3323 103.816 39.0198 105.366 39.0198C106.901 39.0198 108.091 40.3473 108.091 42.1444C108.106 43.9415 106.904 45.2419 105.366 45.2419ZM134.673 31.8706H129.304V46.9577H131.549V41.2444H134.676C137.161 41.2444 139.604 39.4352 139.604 36.5635C139.604 33.6918 137.17 31.8706 134.673 31.8706ZM134.739 39.1372H131.546V33.9597H134.739C136.421 33.9597 137.371 35.3534 137.371 36.5484C137.371 37.7315 136.409 39.1372 134.739 39.1372ZM148.604 36.9789C146.973 36.9789 145.291 37.7044 144.596 39.2847L146.586 40.1155C147.015 39.2847 147.8 39.0018 148.631 39.0018C149.794 39.0018 150.969 39.7001 150.996 40.9463V41.1059C150.594 40.8771 149.713 40.5279 148.658 40.5279C146.508 40.5279 144.329 41.7079 144.329 43.9204C144.329 45.9463 146.092 47.2467 148.055 47.2467C149.563 47.2467 150.394 46.5634 150.912 45.7717H150.993V46.9396H153.158V41.1601C153.158 38.469 151.167 36.9789 148.604 36.9789ZM148.322 45.2419C147.588 45.2419 146.559 44.8807 146.559 43.9535C146.559 42.7856 147.842 42.3431 148.937 42.3431C149.926 42.3431 150.394 42.5568 150.981 42.8518C150.819 44.2064 149.68 45.2299 148.322 45.2419ZM161.054 37.301L158.476 43.8452H158.395L155.724 37.301H153.307L157.316 46.449L155.031 51.5332H157.37L163.536 37.301H161.054ZM140.842 46.9577H143.088V31.8706H140.842V46.9577Z" fill="white"/>
<path fill-rule="evenodd" clip-rule="evenodd" d="M24.8377 19.8386C24.4899 20.2149 24.2891 20.7898 24.2891 21.5424V48.2338C24.2891 48.9863 24.4899 49.5613 24.8497 49.9225L24.9426 50.0038L39.8359 35.0491V34.715L24.9306 19.7573L24.8377 19.8386Z" fill="white" stroke="black" stroke-width="0.658412"/>
<path fill-rule="evenodd" clip-rule="evenodd" d="M44.7912 40.0491L39.8237 35.0612V34.712L44.7912 29.7241L44.8991 29.7903L50.7749 33.1437C52.4567 34.0949 52.4567 35.6662 50.7749 36.6295L44.8991 39.9829L44.7912 40.0491Z" fill="white" stroke="black" stroke-width="0.658412"/>
<path fill-rule="evenodd" clip-rule="evenodd" d="M44.8995 39.983L39.8241 34.8867L24.8379 49.9347C25.3865 50.5247 26.3068 50.5909 27.3351 50.016L44.8995 39.983Z" fill="white" stroke="black" stroke-width="0.658412"/>
<path fill-rule="evenodd" clip-rule="evenodd" d="M44.8995 29.7905L27.3351 19.7726C26.3068 19.1826 25.3835 19.2639 24.8379 19.8539L39.8241 34.8868L44.8995 29.7905Z" fill="white" stroke="black" stroke-width="0.658412"/>
<path d="M253.811 34.8086C253.828 33.4877 254.176 32.1926 254.822 31.0438C255.469 29.8949 256.393 28.9297 257.509 28.2379C256.8 27.2169 255.865 26.3767 254.778 25.7839C253.691 25.1912 252.481 24.8623 251.246 24.8233C248.611 24.5444 246.057 26.4135 244.714 26.4135C243.345 26.4135 241.278 24.851 239.052 24.8972C237.612 24.9441 236.208 25.3664 234.978 26.1229C233.748 26.8795 232.733 27.9444 232.033 29.2141C228.998 34.513 231.262 42.3006 234.169 46.5839C235.623 48.6813 237.323 51.0241 239.547 50.941C241.724 50.85 242.537 49.5413 245.164 49.5413C247.767 49.5413 248.53 50.941 250.799 50.8882C253.134 50.85 254.606 48.7815 256.009 46.6643C257.054 45.1698 257.858 43.5181 258.392 41.7703C257.035 41.1915 255.877 40.2228 255.063 38.9848C254.248 37.7468 253.813 36.2943 253.811 34.8086Z" fill="white"/>
<path d="M249.525 22.0064C250.798 20.4647 251.425 18.4831 251.273 16.4824C249.328 16.6885 247.531 17.6262 246.24 19.1088C245.609 19.833 245.126 20.6756 244.818 21.5884C244.51 22.5011 244.383 23.4661 244.446 24.4282C245.419 24.4383 246.381 24.2256 247.261 23.8061C248.141 23.3866 248.915 22.7713 249.525 22.0064Z" fill="white"/>
<path d="M278.676 42.9545H272.245L270.701 47.5535H267.977L274.068 30.5386H276.898L282.99 47.5535H280.219L278.676 42.9545ZM272.911 40.8324H278.009L275.496 33.3686H275.426L272.911 40.8324Z" fill="white"/>
<path d="M296.145 41.3515C296.145 45.2065 294.099 47.6832 291.012 47.6832C290.229 47.7245 289.452 47.5428 288.767 47.1589C288.083 46.7751 287.519 46.2046 287.141 45.5129H287.083V51.6573H284.558V35.1482H287.002V37.2115H287.049C287.444 36.523 288.017 35.9555 288.706 35.5693C289.396 35.1832 290.177 34.9928 290.965 35.0184C294.087 35.0184 296.145 37.5072 296.145 41.3515ZM293.55 41.3515C293.55 38.8399 292.263 37.1888 290.299 37.1888C288.37 37.1888 287.072 38.8747 287.072 41.3515C287.072 43.851 288.37 45.5249 290.299 45.5249C292.263 45.5249 293.55 43.8858 293.55 41.3515Z" fill="white"/>
<path d="M309.683 41.3515C309.683 45.2065 307.637 47.6832 304.55 47.6832C303.768 47.7245 302.99 47.5428 302.305 47.1589C301.621 46.7751 301.057 46.2046 300.679 45.5128H300.621V51.6573H298.096V35.1482H300.54V37.2115H300.587C300.982 36.523 301.555 35.9555 302.244 35.5693C302.934 35.1831 303.715 34.9928 304.503 35.0184C307.625 35.0184 309.683 37.5072 309.683 41.3515ZM307.088 41.3515C307.088 38.8399 305.801 37.1887 303.837 37.1887C301.908 37.1887 300.61 38.8747 300.61 41.3515C300.61 43.851 301.908 45.5249 303.837 45.5249C305.801 45.5249 307.088 43.8858 307.088 41.3515H307.088Z" fill="white"/>
<path d="M318.631 42.8127C318.818 44.5 320.443 45.6079 322.664 45.6079C324.793 45.6079 326.324 44.5 326.324 42.9786C326.324 41.6579 325.4 40.8671 323.214 40.3252L321.027 39.794C317.929 39.0393 316.491 37.5781 316.491 35.2071C316.491 32.2714 319.028 30.2549 322.63 30.2549C326.195 30.2549 328.639 32.2714 328.721 35.2071H326.172C326.02 33.5091 324.628 32.4841 322.594 32.4841C320.56 32.4841 319.168 33.5211 319.168 35.0305C319.168 36.2334 320.057 36.9412 322.232 37.4831L324.091 37.9434C327.552 38.769 328.99 40.1713 328.99 42.6601C328.99 45.8433 326.476 47.8371 322.477 47.8371C318.736 47.8371 316.21 45.8902 316.046 42.8126L318.631 42.8127Z" fill="white"/>
<path d="M334.44 32.2124V35.1481H336.779V37.1646H334.44V44.0035C334.44 45.0659 334.908 45.561 335.936 45.561C336.214 45.5561 336.491 45.5364 336.767 45.5021V47.5065C336.304 47.5936 335.835 47.633 335.364 47.6242C332.874 47.6242 331.903 46.6809 331.903 44.275V37.1646H330.114V35.1481H331.903V32.2124H334.44Z" fill="white"/>
<path d="M338.133 41.3514C338.133 37.4483 340.413 34.9956 343.967 34.9956C347.534 34.9956 349.802 37.4482 349.802 41.3514C349.802 45.2653 347.545 47.7072 343.967 47.7072C340.39 47.7072 338.133 45.2653 338.133 41.3514ZM347.23 41.3514C347.23 38.674 346.013 37.0937 343.967 37.0937C341.921 37.0937 340.706 38.686 340.706 41.3514C340.706 44.0396 341.921 45.6078 343.967 45.6078C346.013 45.6078 347.23 44.0396 347.23 41.3514H347.23Z" fill="white"/>
<path d="M351.884 35.1481H354.292V37.2595H354.35C354.513 36.6001 354.896 36.0173 355.435 35.6091C355.974 35.201 356.636 34.9923 357.309 35.0183C357.6 35.0172 357.89 35.0491 358.174 35.1133V37.495C357.807 37.3818 357.424 37.3299 357.04 37.3412C356.673 37.3262 356.307 37.3914 355.968 37.5324C355.628 37.6733 355.323 37.8867 355.073 38.1579C354.823 38.429 354.634 38.7515 354.52 39.1032C354.405 39.4549 354.367 39.8274 354.409 40.1953V47.5533H351.884L351.884 35.1481Z" fill="white"/>
<path d="M369.815 43.9098C369.475 46.1618 367.301 47.7072 364.519 47.7072C360.94 47.7072 358.719 45.2894 358.719 41.4103C358.719 37.5192 360.952 34.9956 364.412 34.9956C367.816 34.9956 369.956 37.3533 369.956 41.1146V41.987H361.268V42.1409C361.228 42.5974 361.285 43.0574 361.434 43.4901C361.584 43.9229 361.823 44.3186 362.136 44.6509C362.449 44.9832 362.829 45.2446 363.249 45.4177C363.67 45.5907 364.123 45.6715 364.577 45.6546C365.174 45.711 365.772 45.5717 366.284 45.2573C366.796 44.9429 367.194 44.4703 367.418 43.9098L369.815 43.9098ZM361.28 40.2074H367.43C367.452 39.7969 367.39 39.3861 367.248 39.0008C367.106 38.6155 366.886 38.264 366.603 37.9683C366.32 37.6727 365.979 37.4393 365.602 37.2828C365.225 37.1263 364.82 37.0501 364.412 37.0589C364.001 37.0564 363.594 37.1361 363.213 37.2933C362.833 37.4505 362.487 37.6822 362.196 37.9749C361.904 38.2676 361.674 38.6156 361.516 38.9988C361.359 39.382 361.279 39.7927 361.28 40.2074V40.2074Z" fill="white"/>
<path d="M272.781 17.7574C273.344 17.7167 273.908 17.8024 274.434 18.0085C274.96 18.2146 275.435 18.5358 275.823 18.949C276.211 19.3623 276.503 19.8572 276.678 20.3981C276.854 20.9391 276.908 21.5125 276.837 22.0771C276.837 24.8545 275.348 26.4509 272.781 26.4509H269.667V17.7574H272.781ZM271.006 25.2215H272.631C273.033 25.2457 273.436 25.1792 273.809 25.0268C274.183 24.8744 274.518 24.6399 274.79 24.3404C275.063 24.0409 275.265 23.6839 275.383 23.2955C275.502 22.907 275.533 22.4968 275.474 22.0948C275.528 21.6944 275.494 21.2868 275.374 20.9012C275.254 20.5156 275.051 20.1615 274.779 19.8644C274.508 19.5673 274.174 19.3344 273.803 19.1826C273.431 19.0307 273.031 18.9636 272.631 18.986H271.006V25.2215Z" fill="white"/>
<path d="M278.349 23.1677C278.309 22.7366 278.357 22.3016 278.493 21.8906C278.629 21.4796 278.848 21.1018 279.137 20.7813C279.426 20.4608 279.778 20.2047 280.17 20.0294C280.563 19.8542 280.988 19.7637 281.417 19.7637C281.847 19.7637 282.271 19.8542 282.664 20.0294C283.057 20.2047 283.409 20.4608 283.698 20.7813C283.987 21.1018 284.206 21.4796 284.342 21.8906C284.477 22.3016 284.526 22.7366 284.485 23.1677C284.527 23.5993 284.478 24.0349 284.343 24.4465C284.208 24.8582 283.989 25.2367 283.7 25.5578C283.411 25.879 283.059 26.1356 282.666 26.3112C282.272 26.4868 281.847 26.5776 281.417 26.5776C280.987 26.5776 280.562 26.4868 280.169 26.3112C279.776 26.1356 279.423 25.879 279.135 25.5578C278.846 25.2367 278.627 24.8582 278.491 24.4465C278.356 24.0349 278.308 23.5993 278.349 23.1677ZM283.165 23.1677C283.165 21.7456 282.531 20.914 281.419 20.914C280.303 20.914 279.676 21.7456 279.676 23.1677C279.676 24.6012 280.303 25.4264 281.419 25.4264C282.531 25.4264 283.165 24.5955 283.165 23.1677H283.165Z" fill="white"/>
<path d="M292.641 26.4508H291.309L289.964 21.6189H289.863L288.524 26.4508H287.205L285.412 19.8901H286.714L287.879 24.8963H287.975L289.313 19.8901H290.544L291.882 24.8963H291.983L293.143 19.8901H294.427L292.641 26.4508Z" fill="white"/>
<path d="M295.935 19.8904H297.171V20.9326H297.267C297.43 20.5583 297.704 20.2445 298.052 20.035C298.4 19.8255 298.804 19.7307 299.208 19.7638C299.525 19.7398 299.843 19.7879 300.138 19.9046C300.434 20.0213 300.699 20.2036 300.916 20.4379C301.132 20.6723 301.293 20.9527 301.387 21.2584C301.481 21.5641 301.506 21.8872 301.46 22.2039V26.451H300.176V22.5291C300.176 21.4747 299.722 20.9504 298.772 20.9504C298.557 20.9403 298.343 20.9772 298.143 21.0586C297.944 21.1399 297.764 21.2638 297.617 21.4217C297.469 21.5796 297.357 21.7678 297.289 21.9734C297.22 22.1791 297.196 22.3972 297.219 22.613V26.4511H295.935L295.935 19.8904Z" fill="white"/>
<path d="M303.505 17.3291H304.789V26.4508H303.505V17.3291Z" fill="white"/>
<path d="M306.574 23.1673C306.533 22.7362 306.582 22.3011 306.718 21.8902C306.853 21.4792 307.073 21.1013 307.361 20.7808C307.65 20.4603 308.002 20.2042 308.395 20.0289C308.788 19.8537 309.213 19.7632 309.642 19.7632C310.072 19.7632 310.496 19.8537 310.889 20.0289C311.282 20.2042 311.634 20.4603 311.923 20.7808C312.212 21.1013 312.431 21.4792 312.567 21.8902C312.702 22.3011 312.751 22.7362 312.71 23.1673C312.752 23.5989 312.704 24.0346 312.568 24.4462C312.433 24.8578 312.214 25.2364 311.925 25.5575C311.636 25.8786 311.284 26.1352 310.891 26.3108C310.497 26.4864 310.072 26.5772 309.642 26.5772C309.212 26.5772 308.787 26.4864 308.394 26.3108C308.001 26.1352 307.648 25.8786 307.359 25.5575C307.07 25.2364 306.851 24.8578 306.716 24.4462C306.581 24.0346 306.532 23.5989 306.574 23.1673ZM311.389 23.1673C311.389 21.7452 310.756 20.9136 309.644 20.9136C308.528 20.9136 307.9 21.7452 307.9 23.1674C307.9 24.6009 308.528 25.4261 309.644 25.4261C310.756 25.4261 311.389 24.5951 311.389 23.1673H311.389Z" fill="white"/>
<path d="M314.062 24.5951C314.062 23.4141 314.934 22.7333 316.482 22.6366L318.244 22.5341V21.9678C318.244 21.2749 317.789 20.8837 316.912 20.8837C316.195 20.8837 315.699 21.149 315.556 21.6129H314.313C314.444 20.486 315.495 19.7632 316.971 19.7632C318.602 19.7632 319.522 20.582 319.522 21.9678V26.4504H318.286V25.5285H318.184C317.978 25.8592 317.689 26.1288 317.345 26.3098C317.002 26.4907 316.617 26.5766 316.23 26.5585C315.957 26.5872 315.681 26.5578 315.42 26.4723C315.159 26.3868 314.919 26.247 314.714 26.062C314.51 25.877 314.346 25.6509 314.234 25.3982C314.122 25.1456 314.063 24.872 314.062 24.5951ZM318.244 24.0345V23.486L316.655 23.5884C315.759 23.6489 315.353 23.9562 315.353 24.5346C315.353 25.1251 315.861 25.4687 316.559 25.4687C316.764 25.4896 316.971 25.4687 317.167 25.4074C317.364 25.3461 317.546 25.2455 317.703 25.1117C317.86 24.9779 317.989 24.8136 318.082 24.6285C318.175 24.4435 318.23 24.2414 318.244 24.0345Z" fill="white"/>
<path d="M321.209 23.1677C321.209 21.0946 322.266 19.7814 323.909 19.7814C324.316 19.7625 324.719 19.8607 325.073 20.0645C325.426 20.2683 325.714 20.5693 325.904 20.9324H326V17.3291H327.284V26.4508H326.054V25.4143H325.952C325.748 25.7749 325.449 26.0721 325.089 26.2739C324.729 26.4757 324.321 26.5742 323.909 26.5589C322.254 26.559 321.209 25.2457 321.209 23.1677ZM322.535 23.1677C322.535 24.5592 323.186 25.3965 324.273 25.3965C325.355 25.3965 326.024 24.5471 326.024 23.1734C326.024 21.806 325.348 20.9445 324.273 20.9445C323.193 20.9445 322.535 21.7875 322.535 23.1677H322.535Z" fill="white"/>
<path d="M332.596 23.1677C332.555 22.7366 332.604 22.3016 332.739 21.8906C332.875 21.4796 333.094 21.1018 333.383 20.7813C333.672 20.4608 334.024 20.2047 334.416 20.0294C334.809 19.8542 335.234 19.7637 335.663 19.7637C336.093 19.7637 336.518 19.8542 336.91 20.0294C337.303 20.2047 337.655 20.4608 337.944 20.7813C338.233 21.1018 338.452 21.4796 338.588 21.8906C338.723 22.3016 338.772 22.7366 338.731 23.1677C338.773 23.5993 338.725 24.0349 338.589 24.4465C338.454 24.8582 338.235 25.2367 337.946 25.5578C337.657 25.879 337.305 26.1356 336.912 26.3112C336.519 26.4868 336.093 26.5776 335.663 26.5776C335.233 26.5776 334.808 26.4868 334.415 26.3112C334.022 26.1356 333.67 25.879 333.381 25.5578C333.092 25.2367 332.873 24.8582 332.737 24.4465C332.602 24.0349 332.554 23.5993 332.596 23.1677ZM337.411 23.1677C337.411 21.7456 336.777 20.914 335.666 20.914C334.55 20.914 333.922 21.7456 333.922 23.1677C333.922 24.6012 334.55 25.4264 335.666 25.4264C336.777 25.4264 337.411 24.5955 337.411 23.1677Z" fill="white"/>
<path d="M340.454 19.8904H341.689V20.9326H341.785C341.948 20.5583 342.223 20.2445 342.571 20.035C342.919 19.8255 343.323 19.7307 343.727 19.7638C344.043 19.7398 344.361 19.7879 344.657 19.9046C344.952 20.0213 345.218 20.2036 345.434 20.4379C345.65 20.6723 345.812 20.9527 345.906 21.2584C346 21.5641 346.025 21.8872 345.978 22.2039V26.451H344.695V22.5291C344.695 21.4747 344.24 20.9504 343.291 20.9504C343.076 20.9403 342.861 20.9772 342.662 21.0586C342.462 21.1399 342.283 21.2638 342.135 21.4217C341.988 21.5796 341.876 21.7678 341.807 21.9734C341.738 22.1791 341.715 22.3972 341.737 22.613V26.4511H340.454V19.8904Z" fill="white"/>
<path d="M353.233 18.2568V19.9201H354.642V21.0107H353.233V24.3842C353.233 25.0714 353.514 25.3724 354.153 25.3724C354.316 25.3718 354.48 25.3619 354.642 25.3425V26.421C354.412 26.4626 354.178 26.4847 353.944 26.4871C352.516 26.4871 351.948 25.9806 351.948 24.7157V21.0107H350.915V19.9201H351.948V18.2568H353.233Z" fill="white"/>
<path d="M356.396 17.3291H357.669V20.9445H357.771C357.941 20.5667 358.223 20.2511 358.578 20.0408C358.933 19.8305 359.344 19.7357 359.754 19.7692C360.069 19.752 360.384 19.805 360.676 19.9245C360.968 20.0441 361.231 20.2272 361.445 20.4608C361.659 20.6944 361.819 20.9727 361.914 21.276C362.009 21.5792 362.037 21.8999 361.995 22.2151V26.4508H360.709V22.5345C360.709 21.4866 360.225 20.9559 359.318 20.9559C359.098 20.9376 358.876 20.9682 358.668 21.0455C358.46 21.1228 358.272 21.2449 358.116 21.4034C357.96 21.5618 357.84 21.7527 357.765 21.9627C357.69 22.1727 357.661 22.3967 357.68 22.6191V26.4508H356.397L356.396 17.3291Z" fill="white"/>
<path d="M369.48 24.6791C369.306 25.2787 368.928 25.7974 368.412 26.1444C367.897 26.4914 367.277 26.6446 366.661 26.5772C366.233 26.5886 365.807 26.5058 365.413 26.3346C365.019 26.1633 364.667 25.9077 364.381 25.5856C364.096 25.2634 363.883 24.8823 363.757 24.4688C363.632 24.0552 363.598 23.6192 363.656 23.1909C363.599 22.7612 363.634 22.3242 363.759 21.9095C363.884 21.4947 364.096 21.1119 364.38 20.7869C364.665 20.4619 365.015 20.2023 365.408 20.0257C365.8 19.8491 366.226 19.7596 366.656 19.7633C368.466 19.7633 369.558 21.0105 369.558 23.0706V23.5224H364.964V23.595C364.944 23.8357 364.974 24.0781 365.052 24.3064C365.13 24.5348 365.255 24.7442 365.418 24.9212C365.581 25.0981 365.779 25.2387 365.999 25.334C366.219 25.4293 366.457 25.4771 366.696 25.4745C367.004 25.5116 367.315 25.4559 367.59 25.3142C367.866 25.1726 368.093 24.9515 368.244 24.6791L369.48 24.6791ZM364.964 22.5648H368.25C368.266 22.3446 368.236 22.1235 368.163 21.9155C368.089 21.7076 367.973 21.5175 367.822 21.3574C367.671 21.1974 367.489 21.0709 367.287 20.9861C367.085 20.9014 366.867 20.8602 366.648 20.8653C366.426 20.8625 366.206 20.9045 366 20.9889C365.795 21.0734 365.608 21.1984 365.451 21.3568C365.294 21.5152 365.17 21.7037 365.086 21.9112C365.003 22.1186 364.961 22.3409 364.964 22.5648H364.964Z" fill="white"/>
</svg>
