<svg width="35" height="34" viewBox="0 0 35 34" fill="none" xmlns="http://www.w3.org/2000/svg">
<path d="M24.9182 10.67H9.57812C9.1803 10.67 8.79876 10.512 8.51746 10.2307C8.23615 9.94939 8.07813 9.56785 8.07813 9.17002V5.34004C8.07812 4.63878 8.21626 3.94437 8.48462 3.29649C8.75298 2.64861 9.14635 2.05993 9.64221 1.56407C10.1381 1.0682 10.7268 0.674864 11.3746 0.406504C12.0225 0.138143 12.7169 9.39876e-06 13.4182 9.39876e-06H21.0781C21.7798 -0.00130822 22.4748 0.135925 23.1232 0.403818C23.7717 0.671711 24.3609 1.06501 24.8571 1.56114C25.3532 2.05726 25.7465 2.64646 26.0143 3.29493C26.2822 3.9434 26.4195 4.63841 26.4182 5.34004V9.17002C26.4182 9.56785 26.2601 9.94939 25.9788 10.2307C25.6975 10.512 25.316 10.67 24.9182 10.67ZM11.0781 7.67002H23.4182V5.34004C23.4209 5.03262 23.3611 4.72782 23.2425 4.44419C23.1239 4.16056 22.9489 3.90398 22.7281 3.69001C22.5128 3.4711 22.256 3.29735 21.9727 3.17887C21.6893 3.0604 21.3852 2.99957 21.0781 3.00001H13.4182C12.7992 3.00523 12.207 3.25346 11.7693 3.69117C11.3316 4.12888 11.0833 4.72105 11.0781 5.34004V7.67002Z" fill="#078AFB"/>
<path d="M34.4969 10.9999V20.21C29.028 22.3317 23.2129 23.4202 17.3469 23.42H17.2969C11.3976 23.4291 5.54804 22.3405 0.0468881 20.21V10.9999C0.0455688 10.4966 0.143698 9.99799 0.335707 9.53272C0.527715 9.06745 0.809812 8.6447 1.16572 8.28879C1.52163 7.93288 1.94435 7.65081 2.40962 7.4588C2.87489 7.2668 3.37357 7.16864 3.87691 7.16996H30.7069C31.2102 7.16784 31.709 7.26577 32.1743 7.45804C32.6395 7.65031 33.0619 7.93307 33.4169 8.28995C34.1184 9.01664 34.5063 9.98991 34.4969 10.9999Z" fill="#078AFB"/>
<path d="M17.35 25.4201C23.2203 25.4281 29.0449 24.3885 34.55 22.3501V30.1701C34.5474 31.1868 34.1416 32.161 33.4218 32.8789C32.7019 33.5969 31.7267 34.0001 30.71 34.0001H3.82997C3.32664 34.0014 2.82802 33.9033 2.36275 33.7112C1.89747 33.5192 1.47476 33.2372 1.11885 32.8813C0.762937 32.5253 0.48084 32.1026 0.288832 31.6373C0.0968233 31.1721 -0.00130623 30.6734 1.31293e-05 30.1701V22.3501C5.52172 24.391 11.3632 25.4306 17.25 25.4201H17.35Z" fill="#078AFB"/>
<path d="M17.2679 20.1699C16.8691 20.1699 16.4865 20.0122 16.2036 19.7312C15.9208 19.4502 15.7605 19.0687 15.7578 18.6699C15.7565 18.4734 15.7941 18.2786 15.8684 18.0966C15.9427 17.9147 16.0522 17.7493 16.1907 17.6099C16.3292 17.4704 16.4939 17.3598 16.6753 17.2843C16.8568 17.2088 17.0514 17.1699 17.2479 17.1699C17.6457 17.1699 18.0272 17.3279 18.3085 17.6093C18.5898 17.8906 18.7479 18.2721 18.7479 18.6699C18.7479 19.0677 18.5898 19.4493 18.3085 19.7306C18.0272 20.0119 17.6457 20.1699 17.2479 20.1699H17.2679Z" fill="white"/>
</svg>
