<svg width="22" height="22" viewBox="0 0 22 22" fill="none" xmlns="http://www.w3.org/2000/svg">
<path d="M18.2015 0H20.6284C21.2985 0 21.8418 0.547207 21.8418 1.22222V3.66667C21.8418 4.34168 21.2985 4.88889 20.6284 4.88889H18.2015C17.5313 4.88889 16.9881 4.34168 16.9881 3.66667V1.22222C16.9881 0.547207 17.5313 0 18.2015 0Z" fill="#078AFB"/>
<path d="M18.2015 8.55469H20.6284C21.2985 8.55469 21.8418 9.1019 21.8418 9.77691V12.2214C21.8418 12.8964 21.2985 13.4436 20.6284 13.4436H18.2015C17.5313 13.4436 16.9881 12.8964 16.9881 12.2214V9.77691C16.9881 9.1019 17.5313 8.55469 18.2015 8.55469Z" fill="#078AFB"/>
<path d="M18.2015 17.1094H20.6284C21.2985 17.1094 21.8418 17.6566 21.8418 18.3316V20.776C21.8418 21.4511 21.2985 21.9983 20.6284 21.9983H18.2015C17.5313 21.9983 16.9881 21.4511 16.9881 20.776V18.3316C16.9881 17.6566 17.5313 17.1094 18.2015 17.1094Z" fill="#078AFB"/>
<path d="M1.21325 0H13.3476C14.0178 0 14.561 0.547207 14.561 1.22222V3.66667C14.561 4.34168 14.0178 4.88889 13.3476 4.88889H1.21325C0.543094 4.88889 -0.000179291 4.34168 -0.000179291 3.66667V1.22222C-0.000179291 0.547207 0.543094 0 1.21325 0Z" fill="#078AFB"/>
<path d="M1.21325 8.55469H13.3476C14.0178 8.55469 14.561 9.1019 14.561 9.77691V12.2214C14.561 12.8964 14.0178 13.4436 13.3476 13.4436H1.21325C0.543094 13.4436 -0.000179291 12.8964 -0.000179291 12.2214V9.77691C-0.000179291 9.1019 0.543094 8.55469 1.21325 8.55469Z" fill="#078AFB"/>
<path d="M1.21325 17.1094H13.3476C14.0178 17.1094 14.561 17.6566 14.561 18.3316V20.776C14.561 21.4511 14.0178 21.9983 13.3476 21.9983H1.21325C0.543094 21.9983 -0.000179291 21.4511 -0.000179291 20.776V18.3316C-0.000179291 17.6566 0.543094 17.1094 1.21325 17.1094Z" fill="#078AFB"/>
</svg>
