<svg width="26" height="28" viewBox="0 0 26 28" fill="none" xmlns="http://www.w3.org/2000/svg">
<path d="M25.333 13.5259V20.6457C25.333 23.8176 25.333 25.4204 24.3231 26.399C23.3131 27.3775 22.0072 27.3775 19.3605 27.3944C19.1619 27.3944 18.9715 27.3179 18.831 27.1819C18.6906 27.0458 18.6117 26.8613 18.6117 26.6689V18.2331C18.6072 17.4335 18.2773 16.6679 17.6938 16.1025C17.1103 15.5371 16.3201 15.2175 15.4949 15.2131H10.8109C9.98566 15.2175 9.19554 15.5371 8.612 16.1025C8.02846 16.6679 7.69859 17.4335 7.69402 18.2331V26.6689C7.69402 26.8613 7.61516 27.0458 7.47474 27.1819C7.33433 27.3179 7.14387 27.3944 6.94529 27.3944C4.31598 27.3944 2.88814 27.2932 1.98268 26.399C1.07723 25.5048 0.955344 23.8176 0.955344 20.6457V13.4922C0.792155 11.9908 0.958301 10.4729 1.4429 9.03806C2.2553 7.75651 3.33466 6.65323 4.61201 5.7987L6.35327 4.34774C9.59202 1.66516 11.2114 0.31543 13.1442 0.31543C15.077 0.31543 16.6267 1.66516 19.9525 4.34774L21.6938 5.7987C22.9665 6.65839 24.0449 7.76067 24.8629 9.03806C25.3354 10.487 25.4954 12.0145 25.333 13.5259Z" fill="#078AFB"/>
</svg>
