<svg width="254" height="292" viewBox="0 0 330 292" fill="none" xmlns="http://www.w3.org/2000/svg">
<path d="M61.9078 124.169L48.4065 110.041C46.7407 108.3 47.2041 105.457 49.3333 104.33L55.2699 101.186C56.1967 100.698 57.2988 100.623 58.2883 101.011L67.5187 104.605C68.671 105.056 69.9735 104.881 70.9755 104.155L78.6279 98.5687C81.4835 96.4771 85.366 96.4771 88.2341 98.5687L95.8865 104.155C96.8885 104.881 98.191 105.056 99.3433 104.605L108.574 101.011C109.551 100.623 110.653 100.698 111.592 101.186L117.529 104.33C119.658 105.457 120.109 108.3 118.456 110.041L104.954 124.169" fill="#078AFB"/>
<path d="M61.9078 124.169L48.4065 110.041C46.7407 108.3 47.2041 105.457 49.3333 104.33L55.2699 101.186C56.1967 100.698 57.2988 100.623 58.2883 101.011L67.5187 104.605C68.671 105.056 69.9735 104.881 70.9755 104.155L78.6279 98.5687C81.4835 96.4771 85.366 96.4771 88.2341 98.5687L95.8865 104.155C96.8885 104.881 98.191 105.056 99.3433 104.605L108.574 101.011C109.551 100.623 110.653 100.698 111.592 101.186L117.529 104.33C119.658 105.457 120.109 108.3 118.456 110.041L104.954 124.169" stroke="#078AFB" stroke-width="2.65" stroke-linecap="round" stroke-linejoin="round"/>
<path d="M166.825 226.494C166.825 257.167 152.259 275.089 141.839 283.981C136.391 288.603 129.452 291.07 122.313 291.07H44.5118C37.3729 291.07 30.4093 288.615 24.9862 283.981C14.5659 275.089 0 257.167 0 226.494C0 178.776 58.1383 127.025 58.1383 127.025H108.687C108.687 127.025 166.825 178.776 166.825 226.494Z" fill="#078AFB"/>
<path d="M110.328 118.621H56.5102C53.0102 118.621 50.1729 121.458 50.1729 124.958V129.079C50.1729 132.579 53.0102 135.416 56.5102 135.416H110.328C113.828 135.416 116.665 132.579 116.665 129.079V124.958C116.665 121.458 113.828 118.621 110.328 118.621Z" fill="#52AEFD"/>
<path d="M174.641 165.099L164.446 154.441C163.193 153.126 163.544 150.984 165.147 150.133L169.631 147.753C170.332 147.377 171.159 147.327 171.91 147.615L178.874 150.321C179.738 150.659 180.727 150.533 181.479 149.982L187.253 145.762C189.407 144.184 192.338 144.184 194.504 145.762L200.278 149.982C201.029 150.533 202.019 150.659 202.883 150.321L209.847 147.615C210.586 147.327 211.425 147.377 212.126 147.753L216.61 150.133C218.213 150.984 218.564 153.126 217.311 154.441L207.116 165.099" fill="#52AEFD"/>
<path d="M253.845 242.324C253.845 265.482 242.848 279.008 234.983 285.721C230.875 289.215 225.64 291.069 220.242 291.069H161.515C156.129 291.069 150.869 289.215 146.773 285.721C138.908 279.008 127.912 265.482 127.912 242.324C127.912 206.304 171.797 167.24 171.797 167.24H209.947C209.947 167.24 253.832 206.304 253.832 242.324H253.845Z" fill="#52AEFD"/>
<path d="M209.634 160.904H172.123C168.623 160.904 165.786 163.742 165.786 167.242V167.254C165.786 170.754 168.623 173.592 172.123 173.592H209.634C213.134 173.592 215.971 170.754 215.971 167.254V167.242C215.971 163.742 213.134 160.904 209.634 160.904Z" fill="#B5DCFE"/>
<path d="M168.769 50.896C178.433 50.896 186.267 43.0619 186.267 33.3982C186.267 23.7344 178.433 15.9004 168.769 15.9004C159.106 15.9004 151.271 23.7344 151.271 33.3982C151.271 43.0619 159.106 50.896 168.769 50.896Z" fill="#078AFB"/>
<path d="M168.769 43.2973C174.237 43.2973 178.669 38.8651 178.669 33.3977C178.669 27.9303 174.237 23.498 168.769 23.498C163.302 23.498 158.87 27.9303 158.87 33.3977C158.87 38.8651 163.302 43.2973 168.769 43.2973Z" fill="#078AFB"/>
<path d="M128.498 78.2827C138.162 78.2827 145.996 70.4487 145.996 60.7849C145.996 51.1211 138.162 43.2871 128.498 43.2871C118.834 43.2871 111 51.1211 111 60.7849C111 70.4487 118.834 78.2827 128.498 78.2827Z" fill="#078AFB"/>
<path d="M128.498 70.6841C133.965 70.6841 138.397 66.2518 138.397 60.7844C138.397 55.317 133.965 50.8848 128.498 50.8848C123.03 50.8848 118.598 55.317 118.598 60.7844C118.598 66.2518 123.03 70.6841 128.498 70.6841Z" fill="#078AFB"/>
<path d="M168.769 129.22C185.659 129.22 199.351 115.528 199.351 98.6384C199.351 81.7485 185.659 68.0566 168.769 68.0566C151.879 68.0566 138.187 81.7485 138.187 98.6384C138.187 115.528 151.879 129.22 168.769 129.22Z" fill="#078AFB"/>
<path d="M168.769 121.087C181.166 121.087 191.217 111.036 191.217 98.639C191.217 86.2415 181.166 76.1914 168.769 76.1914C156.371 76.1914 146.321 86.2415 146.321 98.639C146.321 111.036 156.371 121.087 168.769 121.087Z" fill="#078AFB"/>
<path d="M127.468 15.8281C125.482 15.8281 123.864 17.436 123.864 19.4328V33.8409C123.864 35.8271 125.471 37.4455 127.468 37.4455C129.454 37.4455 131.073 35.8376 131.073 33.8409V19.4328C131.073 17.4465 129.465 15.8281 127.468 15.8281Z" fill="#5FB5FF"/>
<path d="M180.823 0C178.837 0 177.219 1.60791 177.219 3.60465V13.2521C177.219 15.2383 178.827 16.8567 180.823 16.8567C182.81 16.8567 184.428 15.2488 184.428 13.2521V3.60465C184.428 1.61841 182.82 0 180.823 0Z" fill="#5FB5FF"/>
<path d="M177.113 61.1855C175.127 61.1855 173.509 62.7935 173.509 64.7902V90.1173C173.509 92.1036 175.116 93.722 177.113 93.722C179.099 93.722 180.718 92.1141 180.718 90.1173V64.7902C180.718 62.804 179.11 61.1855 177.113 61.1855Z" fill="#5FB5FF"/>
</svg>
