<svg width="31" height="31" viewBox="0 0 31 31" fill="none" xmlns="http://www.w3.org/2000/svg">
<path d="M30.1552 10.2503V29.6414H20.9995V6.72852H26.7225C27.1698 6.73001 27.6122 6.82122 28.0236 6.99676C28.435 7.1723 28.807 7.42859 29.1175 7.75047C29.7628 8.42537 30.1329 9.31686 30.1552 10.2503V10.2503Z" stroke="#078AFB" stroke-width="1.3" stroke-linecap="round" stroke-linejoin="round"/>
<path d="M16.9034 4.57949V29.6254H0.876953V4.57949C0.877965 4.11165 0.965016 3.64798 1.13376 3.21163C1.30669 2.77936 1.56112 2.38437 1.8832 2.04817C2.19924 1.71942 2.57672 1.4559 2.99425 1.27253C3.40991 1.09405 3.85734 1.00135 4.3097 1H13.4654C13.9178 1.00077 14.3654 1.0935 14.7809 1.27253C15.2 1.45578 15.5792 1.71927 15.8972 2.04817C16.2176 2.38465 16.4702 2.77966 16.6414 3.21163C16.8143 3.64696 16.9032 4.11109 16.9034 4.57949V4.57949Z" stroke="#078AFB" stroke-width="1.3" stroke-linecap="round" stroke-linejoin="round"/>
<path d="M12.6323 6.09375H10.8661C10.3654 6.09375 9.95947 6.49968 9.95947 7.00041V8.76657C9.95947 9.26731 10.3654 9.67324 10.8661 9.67324H12.6323C13.133 9.67324 13.539 9.26731 13.539 8.76657V7.00041C13.539 6.49968 13.133 6.09375 12.6323 6.09375Z" fill="#078AFB"/>
<path d="M26.4604 10.6377H24.6943C24.1935 10.6377 23.7876 11.0436 23.7876 11.5444V13.3105C23.7876 13.8113 24.1935 14.2172 24.6943 14.2172H26.4604C26.9612 14.2172 27.3671 13.8113 27.3671 13.3105V11.5444C27.3671 11.0436 26.9612 10.6377 26.4604 10.6377Z" fill="#078AFB"/>
<path d="M26.4604 15.8105H24.6943C24.1935 15.8105 23.7876 16.2165 23.7876 16.7172V18.4834C23.7876 18.9841 24.1935 19.39 24.6943 19.39H26.4604C26.9612 19.39 27.3671 18.9841 27.3671 18.4834V16.7172C27.3671 16.2165 26.9612 15.8105 26.4604 15.8105Z" fill="#078AFB"/>
<path d="M26.4604 20.9883H24.6943C24.1935 20.9883 23.7876 21.3942 23.7876 21.8949V23.6611C23.7876 24.1618 24.1935 24.5678 24.6943 24.5678H26.4604C26.9612 24.5678 27.3671 24.1618 27.3671 23.6611V21.8949C27.3671 21.3942 26.9612 20.9883 26.4604 20.9883Z" fill="#078AFB"/>
<path d="M6.94577 6.09375H5.17961C4.67888 6.09375 4.27295 6.49968 4.27295 7.00041V8.76657C4.27295 9.26731 4.67888 9.67324 5.17961 9.67324H6.94577C7.44651 9.67324 7.85243 9.26731 7.85243 8.76657V7.00041C7.85243 6.49968 7.44651 6.09375 6.94577 6.09375Z" fill="#078AFB"/>
<path d="M12.6323 13.793H10.8661C10.3654 13.793 9.95947 14.1989 9.95947 14.6996V16.4658C9.95947 16.9665 10.3654 17.3725 10.8661 17.3725H12.6323C13.133 17.3725 13.539 16.9665 13.539 16.4658V14.6996C13.539 14.1989 13.133 13.793 12.6323 13.793Z" fill="#078AFB"/>
<path d="M6.94577 13.793H5.17961C4.67888 13.793 4.27295 14.1989 4.27295 14.6996V16.4658C4.27295 16.9665 4.67888 17.3725 5.17961 17.3725H6.94577C7.44651 17.3725 7.85243 16.9665 7.85243 16.4658V14.6996C7.85243 14.1989 7.44651 13.793 6.94577 13.793Z" fill="#078AFB"/>
<path d="M12.6323 21.4912H10.8661C10.3654 21.4912 9.95947 21.8971 9.95947 22.3979V24.164C9.95947 24.6648 10.3654 25.0707 10.8661 25.0707H12.6323C13.133 25.0707 13.539 24.6648 13.539 24.164V22.3979C13.539 21.8971 13.133 21.4912 12.6323 21.4912Z" fill="#078AFB"/>
<path d="M6.94577 21.4912H5.17961C4.67888 21.4912 4.27295 21.8971 4.27295 22.3979V24.164C4.27295 24.6648 4.67888 25.0707 5.17961 25.0707H6.94577C7.44651 25.0707 7.85243 24.6648 7.85243 24.164V22.3979C7.85243 21.8971 7.44651 21.4912 6.94577 21.4912Z" fill="#078AFB"/>
</svg>
