<svg width="12" height="12" viewBox="0 0 12 12" fill="none" xmlns="http://www.w3.org/2000/svg">
<path opacity="1" d="M10.2929 11.7071C10.6834 12.0976 11.3166 12.0976 11.7071 11.7071C12.0976 11.3166 12.0976 10.6834 11.7071 10.2929L10.2929 11.7071ZM1.70715 0.292973C1.31662 -0.0975507 0.683456 -0.0975496 0.292933 0.292976C-0.0975908 0.683501 -0.0975895 1.31667 0.292936 1.70719L1.70715 0.292973ZM0.292895 10.2928C-0.0976304 10.6833 -0.0976317 11.3165 0.292892 11.707C0.683415 12.0975 1.31658 12.0976 1.70711 11.707L0.292895 10.2928ZM11.7071 1.70711C12.0976 1.31658 12.0976 0.68342 11.7071 0.292895C11.3165 -0.0976304 10.6834 -0.0976317 10.2929 0.292892L11.7071 1.70711ZM11.7071 10.2929L6.70707 5.29287L5.29285 6.70709L10.2929 11.7071L11.7071 10.2929ZM6.70706 5.29287L1.70715 0.292973L0.292936 1.70719L5.29285 6.70709L6.70706 5.29287ZM1.70711 11.707L6.70706 6.70709L5.29285 5.29287L0.292895 10.2928L1.70711 11.707ZM6.70706 6.70709L11.7071 1.70711L10.2929 0.292892L5.29285 5.29287L6.70706 6.70709Z" fill="#112347"/>
</svg>
