<svg width="80" height="62" viewBox="0 0 80 62" fill="none" xmlns="http://www.w3.org/2000/svg">
<path d="M22.8489 38.2014L11.4245 27.2764L0 38.2014V61.7619H22.8489V38.2014Z" fill="#078AFB"/>
<path d="M45.6912 38.208H22.8491V61.7616H45.6912V38.208Z" fill="#52ADFD"/>
<path d="M48.7217 35.1712H25.8796L14.4551 24.2461H37.2972L48.7217 35.1712Z" fill="#34E0A2"/>
<path d="M11.4244 44.5156C12.2065 44.5165 12.9807 44.6719 13.7026 44.9729C14.4245 45.2738 15.0798 45.7144 15.6309 46.2693C16.182 46.8243 16.6181 47.4826 16.9141 48.2065C17.21 48.9305 17.3601 49.7058 17.3556 50.4878V61.7618H5.47275V50.4878C5.46824 49.704 5.61895 48.9271 5.91619 48.2018C6.21344 47.4765 6.65134 46.8173 7.20463 46.2621C7.75793 45.7069 8.41567 45.2667 9.13992 44.967C9.86417 44.6672 10.6406 44.5138 11.4244 44.5156V44.5156Z" fill="#B5DBFE"/>
<path d="M65.2904 43.1611L60.8711 52.1023" stroke="#078AFB" stroke-width="0.903012" stroke-miterlimit="10"/>
<path d="M65.2904 33.8506L60.8711 43.3459" stroke="#078AFB" stroke-width="0.903012" stroke-miterlimit="10"/>
<path d="M65.2904 24.54L60.8711 33.8506" stroke="#078AFB" stroke-width="0.903012" stroke-miterlimit="10"/>
<path d="M65.2904 15.2295L60.8711 24.5401" stroke="#078AFB" stroke-width="0.903012" stroke-miterlimit="10"/>
<path d="M60.8711 52.1025H65.2904" stroke="#078AFB" stroke-width="0.903012" stroke-miterlimit="10"/>
<path d="M60.8711 43.3457H65.2904" stroke="#078AFB" stroke-width="0.903012" stroke-miterlimit="10"/>
<path d="M60.8711 33.8506H65.2904" stroke="#078AFB" stroke-width="0.903012" stroke-miterlimit="10"/>
<path d="M60.8711 24.54H65.2904" stroke="#078AFB" stroke-width="0.903012" stroke-miterlimit="10"/>
<path d="M60.8711 53.7233V15.9746" stroke="#52ADFD" stroke-width="0.903012" stroke-miterlimit="10"/>
<path d="M65.291 53.7233V15.9746" stroke="#52ADFD" stroke-width="0.903012" stroke-miterlimit="10"/>
<path d="M67.3835 52.4648H58.5928V61.6113H67.3835V52.4648Z" fill="#078AFB"/>
<path d="M66.7746 7.2666H59.2495V15.9752H66.7746V7.2666Z" fill="#52ADFD"/>
<path d="M63.9977 9.36621H59.8931V13.4708H63.9977V9.36621Z" fill="#078AFB"/>
<path d="M36.9614 1V7.26636" stroke="#078AFB" stroke-width="0.903012" stroke-miterlimit="10"/>
<path d="M47.894 1V7.26636" stroke="#078AFB" stroke-width="0.903012" stroke-miterlimit="10"/>
<path d="M59.9199 1V7.26636" stroke="#078AFB" stroke-width="0.903012" stroke-miterlimit="10"/>
<path d="M71.8506 1V7.26636" stroke="#078AFB" stroke-width="0.903012" stroke-miterlimit="10"/>
<path d="M36.3872 7.26636L47.8938 1" stroke="#078AFB" stroke-width="0.903012" stroke-miterlimit="10"/>
<path d="M48.5093 7.26636L60.0295 1" stroke="#078AFB" stroke-width="0.903012" stroke-miterlimit="10"/>
<path d="M60.1392 7.26636L71.851 1" stroke="#078AFB" stroke-width="0.903012" stroke-miterlimit="10"/>
<path d="M30.7095 7.26636H78.8975L72.4122 1H35.6897L30.7095 7.26636Z" stroke="#52ADFD" stroke-width="0.903012" stroke-linecap="round" stroke-linejoin="round"/>
<path d="M30.7095 7.2666V14.3676L36.6475 24.1844" stroke="#078AFB" stroke-width="0.903012" stroke-linecap="round" stroke-linejoin="round"/>
<path d="M30.7092 14.3672L15.2417 24.2524" stroke="#078AFB" stroke-width="0.903012" stroke-linecap="round" stroke-linejoin="round"/>
<path d="M30.7095 7.2666V15.168" stroke="#52ADFD" stroke-width="0.903012" stroke-linecap="round" stroke-linejoin="round"/>
<path d="M30.7092 17.3159C31.2937 17.3159 31.8651 17.1426 32.3511 16.8178C32.8371 16.4931 33.2159 16.0315 33.4396 15.4915C33.6633 14.9515 33.7218 14.3573 33.6078 13.784C33.4937 13.2108 33.2123 12.6842 32.7989 12.2709C32.3856 11.8576 31.859 11.5761 31.2858 11.4621C30.7125 11.348 30.1183 11.4065 29.5783 11.6302C29.0383 11.8539 28.5767 12.2327 28.252 12.7187C27.9272 13.2047 27.7539 13.7761 27.7539 14.3606C27.753 14.7489 27.8288 15.1336 27.977 15.4926C28.1252 15.8516 28.3429 16.1777 28.6175 16.4523C28.8921 16.7269 29.2182 16.9446 29.5772 17.0928C29.9362 17.241 30.3209 17.3168 30.7092 17.3159Z" fill="#078AFB"/>
<path d="M32.8026 14.3677C32.8085 14.7834 32.6881 15.1911 32.4572 15.5368C32.2263 15.8825 31.8959 16.15 31.5097 16.3037C31.1291 16.4626 30.7096 16.5031 30.3057 16.42C29.9984 16.3667 29.7073 16.244 29.4546 16.0613C29.2019 15.8787 28.9941 15.6408 28.847 15.3658C28.7 15.0908 28.6175 14.7859 28.6059 14.4743C28.5943 14.1627 28.6539 13.8525 28.7801 13.5673C28.9355 13.185 29.2025 12.8584 29.5463 12.6301C29.8613 12.4197 30.2275 12.2986 30.6058 12.2799C30.9842 12.2612 31.3606 12.3455 31.6948 12.5238C32.029 12.7022 32.3086 12.9679 32.5037 13.2926C32.6988 13.6173 32.8021 13.9889 32.8026 14.3677V14.3677Z" fill="#B5DBFE"/>
</svg>
