<svg width="15" height="17" viewBox="0 0 15 17" fill="none" xmlns="http://www.w3.org/2000/svg">
<path d="M7.61707 8.94118C9.80997 8.94118 11.5877 7.16348 11.5877 4.97059C11.5877 2.77769 9.80997 1 7.61707 1C5.42418 1 3.64648 2.77769 3.64648 4.97059C3.64648 7.16348 5.42418 8.94118 7.61707 8.94118Z" stroke="#112347" stroke-width="1.5" stroke-linecap="round" stroke-linejoin="round"/>
<path d="M5.52468 8.94141H9.71061C10.9106 8.94141 12.0615 9.4502 12.91 10.3559C13.7586 11.2615 14.2353 12.4899 14.2353 13.7707V13.7707C14.2353 14.362 14.0152 14.9291 13.6235 15.3472C13.2317 15.7653 12.7004 16.0002 12.1464 16.0002H3.08893C2.53491 16.0002 2.00359 15.7653 1.61183 15.3472C1.22008 14.9291 1 14.362 1 13.7707V13.7707C1 12.4899 1.47671 11.2615 2.32525 10.3559C3.17379 9.4502 4.32466 8.94141 5.52468 8.94141V8.94141Z" stroke="#112347" stroke-width="1.5" stroke-linecap="round" stroke-linejoin="round"/>
</svg>
