<svg width="126" height="106" viewBox="0 0 126 106" fill="none" xmlns="http://www.w3.org/2000/svg">
<path d="M59.6164 87.9342C54.5694 88.0696 49.5703 86.9209 45.0836 84.5948C40.5968 82.2687 36.7681 78.8407 33.9532 74.6294C31.0116 70.2105 29.3024 65.0802 29.0034 59.7724C29.0034 59.5348 29.0034 59.2972 29.0034 59.0754" stroke="#002245" stroke-width="1.79479" stroke-linecap="round"/>
<path d="M59.6164 87.9342C54.5694 88.0696 49.5703 86.9209 45.0836 84.5948C40.5968 82.2687 36.7681 78.8408 33.9532 74.6295C31.0116 70.2106 29.3024 65.0803 29.0034 59.7725" stroke="#002245" stroke-width="1.79479" stroke-linecap="round"/>
<path d="M23.6748 65.1896L28.6403 58.4105L35.3872 63.4157" stroke="#002245" stroke-width="1.79479" stroke-linecap="round" stroke-linejoin="round"/>
<path d="M23.3759 0.0753174H18.7729V17.2607H23.3759V0.0753174Z" fill="#52ADFD"/>
<path d="M29.0666 11.3052L23.376 17.2607V0.0753174H29.0666V11.3052Z" fill="#52ADFD"/>
<path d="M28.2612 21.4894L42.2751 8.02625L56.2889 21.4894V50.5382H28.2612V21.4894Z" fill="#078AFB"/>
<path d="M0.234375 21.4894L14.2482 8.02625H42.2759L28.2621 21.4894V50.5382H0.234375V21.4894Z" fill="#52ADFD"/>
<path d="M0.234375 21.4894H28.2621L42.2759 8.02625H14.2482L0.234375 21.4894Z" fill="#B5DBFE"/>
<path d="M49.6211 50.5225H35.0555V36.5841C35.0555 34.6434 35.8228 32.7821 37.1886 31.4098C38.5544 30.0375 40.4068 29.2665 42.3383 29.2665C44.2698 29.2665 46.1223 30.0375 47.488 31.4098C48.8538 32.7821 49.6211 34.6434 49.6211 36.5841V50.5225Z" fill="#B5DBFE"/>
<path d="M3.85997 39.8947H10.7959L10.7959 29.2667H3.85997L3.85997 39.8947Z" fill="#CEF0FE"/>
<path d="M15.0039 39.8947H21.9399V29.2667H15.0039V39.8947Z" fill="#CEF0FE"/>
<path d="M42.2762 25.1488C44.2872 25.1488 45.9176 23.5107 45.9176 21.49C45.9176 19.4693 44.2872 17.8312 42.2762 17.8312C40.2651 17.8312 38.6348 19.4693 38.6348 21.49C38.6348 23.5107 40.2651 25.1488 42.2762 25.1488Z" fill="#CEF0FE"/>
<path d="M97.1815 76.7681L83.1676 63.3049L69.1538 76.7681V105.817H97.1815V76.7681Z" fill="#078AFB"/>
<path d="M88.0225 89.8824H78.2964V105.817H88.0225V89.8824Z" fill="#B5DBFE"/>
<path d="M92.4366 82.8342H73.8828V84.1647H92.4366V82.8342Z" fill="#B5DBFE"/>
<path d="M92.4366 79.033H73.8828V80.3635H92.4366V79.033Z" fill="#B5DBFE"/>
<path d="M125.208 76.7681L111.194 63.3049H83.1665L97.1804 76.7681V105.817H125.208V76.7681Z" fill="#52ADFD"/>
<path d="M125.208 76.784H97.1804L83.1665 63.3049H111.194L125.208 76.784Z" fill="#B5DBFE"/>
<path d="M118.934 83.5154H103.455V99.0693H118.934V83.5154Z" fill="#CEF0FE"/>
<path d="M103.944 72.5389H108.546V55.3536H103.944V72.5389Z" fill="#B5DBFE"/>
<path d="M98.252 66.599L103.943 72.5545V55.3691H98.252V66.599Z" fill="#52ADFD"/>
<path d="M121.298 90.6113H102.744V91.9418H121.298V90.6113Z" fill="#52ADFD"/>
<path d="M114.851 81.9635H113.527V100.606H114.851V81.9635Z" fill="#52ADFD"/>
<path d="M67.4189 18.5115C72.4686 18.3734 77.4709 19.5209 81.9606 21.8471C86.4504 24.1733 90.2816 27.6027 93.0979 31.8163C96.0368 36.2355 97.7408 41.3665 98.0319 46.6734C98.0319 46.8951 98.0319 47.1327 98.0319 47.3702" stroke="#002245" stroke-width="1.79479" stroke-linecap="round"/>
<path d="M103.36 41.2406L98.3787 48.0197L91.6318 43.0304" stroke="#002245" stroke-width="1.79479" stroke-linecap="round" stroke-linejoin="round"/>
</svg>
