<svg width="439" height="327" viewBox="0 0 439 327" fill="none" xmlns="http://www.w3.org/2000/svg">
<path d="M278.342 81H255.894V164.445H278.342L306.097 135.556V81H278.342Z" fill="#078AFB"/>
<path d="M302.197 184.944L370.586 119.594L438.928 184.944V325.938H302.197V184.944Z" fill="#078AFB"/>
<path d="M165.466 184.944L233.854 119.594H370.585L302.197 184.944V325.938H165.466V184.944Z" fill="#52ADFD"/>
<path d="M165.511 184.989H302.197L370.585 119.594H233.854L165.511 184.989Z" fill="#B5DBFE"/>
<path d="M406.14 325.982H335.076V258.32C335.076 248.902 338.817 239.87 345.476 233.211C352.135 226.552 361.167 222.81 370.585 222.81C375.248 222.81 379.866 223.729 384.174 225.513C388.482 227.298 392.396 229.914 395.694 233.211C398.991 236.508 401.607 240.423 403.391 244.731C405.176 249.039 406.094 253.657 406.094 258.32V325.982H406.14Z" fill="#B5DBFE"/>
<path d="M183.152 252.152H216.938V222.765H183.152V252.152Z" fill="#CEF0FE"/>
<path d="M237.528 252.152H271.313V222.765H237.528V252.152Z" fill="#CEF0FE"/>
<path d="M370.585 202.766C380.403 202.766 388.362 194.806 388.362 184.988C388.362 175.17 380.403 167.211 370.585 167.211C360.767 167.211 352.808 175.17 352.808 184.988C352.808 194.806 360.767 202.766 370.585 202.766Z" fill="#002245"/>
<path d="M178.689 153.09H279.688L330.203 104.783H229.204L178.689 153.09Z" fill="#34E0A2"/>
<path d="M105.428 188.42L124.968 227.954" stroke="#078AFB" stroke-width="3.99278" stroke-miterlimit="10"/>
<path d="M105.428 147.252L124.968 189.237" stroke="#078AFB" stroke-width="3.99278" stroke-miterlimit="10"/>
<path d="M105.428 106.084L124.968 147.252" stroke="#078AFB" stroke-width="3.99278" stroke-miterlimit="10"/>
<path d="M105.428 64.916L124.968 106.084" stroke="#078AFB" stroke-width="3.99278" stroke-miterlimit="10"/>
<path d="M124.968 227.955H105.428" stroke="#078AFB" stroke-width="3.99278" stroke-miterlimit="10"/>
<path d="M124.968 189.236H105.428" stroke="#078AFB" stroke-width="3.99278" stroke-miterlimit="10"/>
<path d="M124.968 147.252H105.428" stroke="#078AFB" stroke-width="3.99278" stroke-miterlimit="10"/>
<path d="M124.968 106.084H105.428" stroke="#078AFB" stroke-width="3.99278" stroke-miterlimit="10"/>
<path d="M124.968 235.124V68.2139" stroke="#52ADFD" stroke-width="3.99278" stroke-miterlimit="10"/>
<path d="M105.428 235.124V68.2139" stroke="#52ADFD" stroke-width="3.99278" stroke-miterlimit="10"/>
<path d="M96.1719 229.558H135.041V270H96.1719V229.558Z" fill="#078AFB"/>
<path d="M98.8641 29.707H132.137V68.2132H98.8641V29.707Z" fill="#52ADFD"/>
<path d="M111.144 38.9941H129.293V57.1431H111.144V38.9941Z" fill="#078AFB"/>
<path d="M230.686 2V29.7075" stroke="#078AFB" stroke-width="3.99278" stroke-miterlimit="10"/>
<path d="M182.35 2V29.7075" stroke="#078AFB" stroke-width="3.99278" stroke-miterlimit="10"/>
<path d="M129.173 2V29.7075" stroke="#078AFB" stroke-width="3.99278" stroke-miterlimit="10"/>
<path d="M76.4194 2V29.7075" stroke="#078AFB" stroke-width="3.99278" stroke-miterlimit="10"/>
<path d="M233.227 29.7075L182.349 2" stroke="#078AFB" stroke-width="3.99278" stroke-miterlimit="10"/>
<path d="M179.627 29.7075L128.689 2" stroke="#078AFB" stroke-width="3.99278" stroke-miterlimit="10"/>
<path d="M128.205 29.7075L76.42 2" stroke="#078AFB" stroke-width="3.99278" stroke-miterlimit="10"/>
<path d="M258.333 29.7075H45.2638L73.9392 2H236.312L258.333 29.7075Z" stroke="#52ADFD" stroke-width="3.99278" stroke-linecap="round" stroke-linejoin="round"/>
<path d="M258.333 29.707V61.1048L232.077 104.511" stroke="#078AFB" stroke-width="3.99278" stroke-linecap="round" stroke-linejoin="round"/>
<path d="M258.333 61.1055L326.725 104.814" stroke="#078AFB" stroke-width="3.99278" stroke-linecap="round" stroke-linejoin="round"/>
<path d="M258.333 29.707V64.6439" stroke="#52ADFD" stroke-width="3.99278" stroke-linecap="round" stroke-linejoin="round"/>
<path d="M258.333 74.1414C255.749 74.1414 253.222 73.375 251.073 71.9392C248.924 70.5033 247.25 68.4624 246.261 66.0747C245.271 63.687 245.013 61.0596 245.517 58.5248C246.021 55.99 247.266 53.6616 249.093 51.8341C250.921 50.0066 253.249 48.7621 255.784 48.2579C258.319 47.7537 260.946 48.0125 263.334 49.0015C265.721 49.9905 267.762 51.6654 269.198 53.8143C270.634 55.9632 271.4 58.4896 271.4 61.0741C271.404 62.7912 271.069 64.4922 270.414 66.0794C269.759 67.6666 268.796 69.1088 267.582 70.323C266.368 71.5372 264.926 72.4995 263.338 73.1547C261.751 73.81 260.05 74.1453 258.333 74.1414Z" fill="#078AFB"/>
<path d="M249.077 61.1052C249.051 62.9432 249.584 64.7458 250.604 66.2744C251.625 67.803 253.086 68.9855 254.794 69.6655C256.477 70.3678 258.332 70.547 260.118 70.1797C261.476 69.9438 262.763 69.4014 263.881 68.5937C264.998 67.786 265.917 66.7342 266.567 65.5183C267.218 64.3024 267.582 62.9543 267.633 61.5764C267.685 60.1985 267.421 58.827 266.863 57.5661C266.176 55.8756 264.996 54.4314 263.475 53.4221C262.083 52.4915 260.463 51.9564 258.79 51.8736C257.117 51.7909 255.453 52.1636 253.976 52.9522C252.498 53.7407 251.262 54.9156 250.399 56.3514C249.536 57.7872 249.08 59.4302 249.077 61.1052Z" fill="#B5DBFE"/>
<path d="M97.0213 227.364L145.269 181.26L193.485 227.364V326.836H97.0213V227.364Z" fill="#078AFB"/>
<path d="M128.504 272.253H162.003V326.836H128.504V272.253Z" fill="#B5DBFE"/>
<path d="M113.339 248.16H177.2V252.735H113.339V248.16Z" fill="#002245"/>
<path d="M113.339 235.106H177.2V239.682H113.339V235.106Z" fill="#002245"/>
<path d="M0.557465 227.364L48.8055 181.26H145.27L97.0215 227.364V326.836H0.557465V227.364Z" fill="#52ADFD"/>
<path d="M0.589478 227.396H97.0215L145.27 181.26H48.8055L0.589478 227.396Z" fill="#B5DBFE"/>
<path d="M22.1856 250.432H75.4248V303.671H22.1856V250.432Z" fill="#CEF0FE"/>
<path d="M73.7612 212.87H57.9238L57.9238 154H73.7612V212.87Z" fill="#B5DBFE"/>
<path d="M93.374 192.521L73.7933 212.902V154.031H93.374V192.521Z" fill="#52ADFD"/>
<path d="M14.059 274.78H77.9204V279.356H14.059V274.78Z" fill="#52ADFD"/>
<path d="M36.2314 245.121H40.8066V308.983H36.2314V245.121Z" fill="#52ADFD"/>
</svg>
