<svg width="23" height="22" viewBox="0 0 23 22" fill="none" xmlns="http://www.w3.org/2000/svg">
<path d="M11.5948 1.92188C14.4136 1.92188 14.7979 1.92188 15.9511 1.92188C16.9761 1.92188 17.4886 2.17813 17.8729 2.30625C18.3854 2.5625 18.7698 2.69063 19.1542 3.075C19.5386 3.45938 19.7948 3.84375 19.9229 4.35625C20.0511 4.74063 20.1792 5.25313 20.3073 6.27813C20.3073 7.43125 20.3073 7.6875 20.3073 10.6344C20.3073 13.5813 20.3073 13.8375 20.3073 14.9906C20.3073 16.0156 20.0511 16.5281 19.9229 16.9125C19.6667 17.425 19.5386 17.8094 19.1542 18.1938C18.7698 18.5781 18.3854 18.8344 17.8729 18.9625C17.4886 19.0906 16.9761 19.2187 15.9511 19.3469C14.7979 19.3469 14.5417 19.3469 11.5948 19.3469C8.64795 19.3469 8.3917 19.3469 7.23857 19.3469C6.21357 19.3469 5.70108 19.0906 5.3167 18.9625C4.8042 18.7063 4.41982 18.5781 4.03545 18.1938C3.65108 17.8094 3.39482 17.425 3.2667 16.9125C3.13857 16.5281 3.01045 16.0156 2.88232 14.9906C2.88232 13.8375 2.88232 13.5813 2.88232 10.6344C2.88232 7.6875 2.88232 7.43125 2.88232 6.27813C2.88232 5.25313 3.13857 4.74063 3.2667 4.35625C3.52295 3.84375 3.65108 3.45938 4.03545 3.075C4.41982 2.69063 4.8042 2.43438 5.3167 2.30625C5.70108 2.17813 6.21357 2.05 7.23857 1.92188C8.3917 1.92188 8.77607 1.92188 11.5948 1.92188ZM11.5948 0C8.64795 0 8.3917 0 7.23857 0C6.08545 0 5.3167 0.256251 4.67607 0.512501C4.03545 0.768751 3.39482 1.15313 2.7542 1.79375C2.11357 2.43438 1.85732 2.94688 1.47295 3.71563C1.2167 4.35625 1.08857 5.125 0.960449 6.27813C0.960449 7.43125 0.960449 7.81563 0.960449 10.6344C0.960449 13.5813 0.960449 13.8375 0.960449 14.9906C0.960449 16.1437 1.2167 16.9125 1.47295 17.5531C1.7292 18.1938 2.11357 18.8344 2.7542 19.475C3.39482 20.1156 3.90733 20.3719 4.67607 20.7563C5.3167 21.0125 6.08545 21.1406 7.23857 21.2687C8.3917 21.2687 8.77607 21.2687 11.5948 21.2687C14.4136 21.2687 14.7979 21.2687 15.9511 21.2687C17.1042 21.2687 17.8729 21.0125 18.5136 20.7563C19.1542 20.5 19.7948 20.1156 20.4354 19.475C21.0761 18.8344 21.3323 18.3219 21.7167 17.5531C21.973 16.9125 22.1011 16.1437 22.2292 14.9906C22.2292 13.8375 22.2292 13.4531 22.2292 10.6344C22.2292 7.81563 22.2292 7.43125 22.2292 6.27813C22.2292 5.125 21.973 4.35625 21.7167 3.71563C21.4604 3.075 21.0761 2.43438 20.4354 1.79375C19.7948 1.15313 19.2823 0.896876 18.5136 0.512501C17.8729 0.256251 17.1042 0.128125 15.9511 0C14.7979 0 14.5417 0 11.5948 0Z" fill="white"/>
<path d="M11.5948 5.125C8.51982 5.125 6.08545 7.55938 6.08545 10.6344C6.08545 13.7094 8.51982 16.1437 11.5948 16.1437C14.6698 16.1437 17.1042 13.7094 17.1042 10.6344C17.1042 7.55938 14.6698 5.125 11.5948 5.125ZM11.5948 14.2219C9.67295 14.2219 8.00732 12.6844 8.00732 10.6344C8.00732 8.7125 9.54482 7.04688 11.5948 7.04688C13.5167 7.04688 15.1823 8.58438 15.1823 10.6344C15.1823 12.5563 13.5167 14.2219 11.5948 14.2219Z" fill="white"/>
<path d="M17.2323 6.27813C17.9399 6.27813 18.5136 5.70449 18.5136 4.99688C18.5136 4.28926 17.9399 3.71563 17.2323 3.71563C16.5247 3.71563 15.9511 4.28926 15.9511 4.99688C15.9511 5.70449 16.5247 6.27813 17.2323 6.27813Z" fill="white"/>
</svg>
