<svg width="32" height="31" viewBox="0 0 32 31" fill="none" xmlns="http://www.w3.org/2000/svg">
<path d="M24.7411 0H29.2241C29.9603 0 30.6664 0.270081 31.1869 0.750827C31.7075 1.23157 32 1.88361 32 2.56349V5.2936C32.0011 5.38977 31.9808 5.48513 31.9402 5.5737C31.8996 5.66228 31.8396 5.74216 31.7641 5.80833C31.6885 5.87451 31.5989 5.92557 31.501 5.9583C31.4031 5.99103 31.2989 6.00474 31.195 5.99856H22.7564C22.5558 5.99856 22.3634 5.92496 22.2215 5.79395C22.0797 5.66295 22 5.48527 22 5.30001V2.56349C21.9999 1.88912 22.2876 1.2419 22.8007 0.762063C23.3138 0.282227 24.011 0.00842953 24.7411 0V0Z" fill="#078AFB"/>
<path d="M2.73356 0H7.23183C7.966 0 8.67009 0.270435 9.18922 0.751811C9.70835 1.23319 10 1.88608 10 2.56684V5.30053C10 5.48604 9.92053 5.66396 9.77906 5.79513C9.6376 5.92631 9.44573 6 9.24567 6H0.754325C0.554266 6 0.3624 5.92631 0.220937 5.79513C0.0794734 5.66396 8.46029e-09 5.48604 8.46029e-09 5.30053V2.56684C-5.68849e-05 1.8916 0.286834 1.24353 0.798505 0.763062C1.31018 0.282597 2.00541 0.00844058 2.73356 0V0Z" fill="#078AFB"/>
<path d="M26 3H21.6933C20.1827 3.00183 18.7346 3.59427 17.6671 4.64721C16.5996 5.70014 16 7.12746 16 8.61563V24" stroke="#078AFB" stroke-width="1.3" stroke-linecap="round" stroke-linejoin="round"/>
<path d="M7 3H10.8733C12.2325 3.00195 13.5355 3.63471 14.4966 4.7595C15.4577 5.8843 15.9983 7.4093 16 9" stroke="#078AFB" stroke-width="1.3" stroke-linecap="round" stroke-linejoin="round"/>
<path d="M11 30H21L19.6538 23.8835C19.6002 23.6352 19.4503 23.4111 19.2299 23.2499C19.0094 23.0886 18.7323 23.0003 18.4461 23H13.5154C13.2296 23.0015 12.9532 23.0904 12.7331 23.2514C12.513 23.4124 12.3627 23.6357 12.3077 23.8835L11 30Z" fill="white" stroke="#078AFB" stroke-width="1.3" stroke-linejoin="round"/>
</svg>
