<svg width="27" height="27" viewBox="0 0 27 27" fill="none" xmlns="http://www.w3.org/2000/svg">
<path d="M4.78378 11H2.21622C1.54452 11 1 11.5484 1 12.2248V24.7752C1 25.4516 1.54452 26 2.21622 26H4.78378C5.45548 26 6 25.4516 6 24.7752V12.2248C6 11.5484 5.45548 11 4.78378 11Z" stroke="#078AFB" stroke-width="2" stroke-linecap="round" stroke-linejoin="round"/>
<path d="M6 23.7026C8.31987 25.2009 11.033 25.9993 13.8067 26H18.8988C20.7821 26 22.5884 25.2627 23.9201 23.9503C25.2519 22.6379 26 20.8579 26 19.0018V14.0744C26 13.3499 25.8552 12.6325 25.5739 11.9631C25.2925 11.2938 24.8802 10.6856 24.3604 10.1733C23.8405 9.66102 23.2234 9.25465 22.5442 8.9774C21.865 8.70015 21.137 8.55744 20.4018 8.55744C20.2896 8.55676 20.1788 8.53364 20.076 8.48947C19.9732 8.4453 19.8806 8.381 19.8037 8.30049C19.6796 8.15771 19.614 7.97449 19.6197 7.78659V3.6451C19.6156 2.9448 19.3315 2.2743 18.829 1.77911C18.3265 1.28391 17.6462 1.00397 16.9356 1V1C16.2238 1 15.541 1.27867 15.0376 1.77473C14.5343 2.27078 14.2516 2.94358 14.2516 3.6451V6.21463C14.2634 7.60426 13.7985 8.95711 12.9325 10.0538L12.7484 10.2654C11.1887 11.9756 9.06352 13.0844 6.75152 13.3942L6 13.5" stroke="#078AFB" stroke-width="2" stroke-linecap="round" stroke-linejoin="round"/>
</svg>
