<svg width="15" height="17" viewBox="0 0 15 17" fill="none" xmlns="http://www.w3.org/2000/svg">
<path d="M7.61756 8.94118C9.81046 8.94118 11.5881 7.16348 11.5881 4.97059C11.5881 2.77769 9.81046 1 7.61756 1C5.42467 1 3.64697 2.77769 3.64697 4.97059C3.64697 7.16348 5.42467 8.94118 7.61756 8.94118Z" stroke="white" stroke-width="1.5" stroke-linecap="round" stroke-linejoin="round"/>
<path d="M5.52468 8.94116H9.71061C10.9106 8.94116 12.0615 9.44996 12.91 10.3556C13.7586 11.2613 14.2353 12.4896 14.2353 13.7704V13.7704C14.2353 14.3617 14.0152 14.9288 13.6235 15.347C13.2317 15.7651 12.7004 16 12.1464 16H3.08893C2.53491 16 2.00359 15.7651 1.61183 15.347C1.22008 14.9288 1 14.3617 1 13.7704V13.7704C1 12.4896 1.47671 11.2613 2.32525 10.3556C3.17379 9.44996 4.32466 8.94116 5.52468 8.94116V8.94116Z" stroke="white" stroke-width="1.5" stroke-linecap="round" stroke-linejoin="round"/>
</svg>
