<svg width="102" height="109" viewBox="0 0 102 109" fill="none" xmlns="http://www.w3.org/2000/svg">
<path d="M101.562 14.611H35.3545V108.061H101.562V14.611Z" fill="#B5DCFE"/>
<path d="M27.4717 8.27563V101.726H65.7411L93.6789 73.9152V8.27563H27.4717Z" fill="#078AFB"/>
<path d="M65.7778 73.2157V101.726L94.1524 73.2157H65.7778Z" fill="#52AEFD"/>
<path d="M27.472 54.2084C42.2722 54.2084 54.2701 42.1531 54.2701 27.2821C54.2701 12.4111 42.2722 0.355713 27.472 0.355713C12.6718 0.355713 0.673828 12.4111 0.673828 27.2821C0.673828 42.1531 12.6718 54.2084 27.472 54.2084Z" fill="#F3AF34"/>
<path d="M33.7773 87.4701H49.541" stroke="#CEF0FE" stroke-width="1.79479" stroke-linecap="square" stroke-linejoin="round"/>
<path d="M33.7773 76.3829H60.5755" stroke="#CEF0FE" stroke-width="1.79479" stroke-linecap="square" stroke-linejoin="round"/>
<path d="M33.7256 25.0011C34.1693 26.2125 34.9721 27.2579 36.0258 27.9963C37.0794 28.7348 38.3332 29.1308 39.6178 29.1308C40.9025 29.1308 42.1562 28.7348 43.2099 27.9963C44.2635 27.2579 45.0663 26.2125 45.51 25.0011H33.7256Z" stroke="white" stroke-width="0.897396" stroke-linecap="round" stroke-linejoin="round"/>
<path d="M39.6182 25.0257V13.3547L45.5104 25.0257" stroke="white" stroke-width="0.897396" stroke-linecap="round" stroke-linejoin="round"/>
<path d="M39.6178 25.0257V13.3547L33.7256 25.0257" stroke="white" stroke-width="0.897396" stroke-linecap="round" stroke-linejoin="round"/>
<path d="M9.91553 25.0011C10.3592 26.2125 11.1621 27.2579 12.2157 27.9963C13.2694 28.7348 14.5231 29.1308 15.8078 29.1308C17.0924 29.1308 18.3462 28.7348 19.3998 27.9963C20.4535 27.2579 21.2563 26.2125 21.7 25.0011H9.91553Z" stroke="white" stroke-width="0.897396" stroke-linecap="round" stroke-linejoin="round"/>
<path d="M15.8066 25.0257V13.3547L21.6989 25.0257" stroke="white" stroke-width="0.897396" stroke-linecap="round" stroke-linejoin="round"/>
<path d="M15.8078 25.0257V13.3547L9.91553 25.0257" stroke="white" stroke-width="0.897396" stroke-linecap="round" stroke-linejoin="round"/>
<path d="M15.8066 13.3547H39.617" stroke="white" stroke-width="0.897396" stroke-linecap="round" stroke-linejoin="round"/>
<path d="M34.7886 31.6016C33.501 31.8607 32.1681 31.7727 30.9253 31.3466C29.6826 30.9204 28.5743 30.1712 27.713 29.1752C26.8518 30.1712 25.7435 30.9204 24.5008 31.3466C23.258 31.7727 21.9251 31.8607 20.6375 31.6016C20.6375 31.6016 20.1546 42.1322 27.713 45.602C35.2715 42.2535 34.7886 31.6016 34.7886 31.6016Z" stroke="white" stroke-width="0.897396" stroke-linecap="round" stroke-linejoin="round"/>
<path d="M20.6367 31.6011L25.2008 35.7988V43.9515" stroke="white" stroke-width="0.897396" stroke-linecap="round" stroke-linejoin="round"/>
<path d="M30.2964 43.9515V35.7988L34.8604 31.6011" stroke="white" stroke-width="0.897396" stroke-linecap="round" stroke-linejoin="round"/>
<path d="M30.2241 35.7986H25.2012" stroke="white" stroke-width="0.897396" stroke-linecap="round" stroke-linejoin="round"/>
</svg>
