<svg width="13" height="9" viewBox="0 0 13 9" fill="none" xmlns="http://www.w3.org/2000/svg">
<path d="M2.38388 8.38388C1.89573 8.87204 1.10427 8.87204 0.616116 8.38388C0.127961 7.89573 0.127961 7.10427 0.616116 6.61612L2.38388 8.38388ZM6.5 2.5L5.61612 1.61612L6.5 0.732233L7.38388 1.61612L6.5 2.5ZM12.3839 6.61612C12.872 7.10427 12.872 7.89573 12.3839 8.38388C11.8957 8.87204 11.1043 8.87204 10.6161 8.38388L12.3839 6.61612ZM0.616116 6.61612L5.61612 1.61612L7.38388 3.38388L2.38388 8.38388L0.616116 6.61612ZM7.38388 1.61612L12.3839 6.61612L10.6161 8.38388L5.61612 3.38388L7.38388 1.61612Z" fill="#078AFB"/>
</svg>
