<svg width="107" height="114" viewBox="0 0 107 114" fill="none" xmlns="http://www.w3.org/2000/svg">
<g filter="url(#filter0_d_143_3996)">
<path d="M76.62 37.2239V69.8539C76.6213 70.3336 76.5278 70.8088 76.3448 71.2523C76.1619 71.6957 75.893 72.0986 75.5538 72.4378C75.2146 72.777 74.8117 73.0458 74.3683 73.2288C73.9249 73.4117 73.4497 73.5052 72.97 73.5039H33.6499C32.6819 73.5039 31.7535 73.1194 31.069 72.4349C30.3845 71.7504 30 70.8219 30 69.8539V23.6639C30 22.6932 30.3855 21.7623 31.0719 21.0759C31.7583 20.3895 32.6892 20.0039 33.6599 20.0039H59.39C59.8329 20.0039 60.2576 20.1799 60.5708 20.493C60.884 20.8062 61.0599 21.231 61.0599 21.6739V29.4639C61.0599 30.2637 61.2175 31.0556 61.5236 31.7944C61.8296 32.5333 62.2781 33.2047 62.8436 33.7702C63.4091 34.3357 64.0806 34.7843 64.8195 35.0903C65.5583 35.3964 66.3502 35.5539 67.1499 35.5539H74.95C75.3929 35.5539 75.8177 35.7298 76.1309 36.043C76.444 36.3562 76.62 36.781 76.62 37.2239Z" fill="#078AFB"/>
</g>
<path d="M75.5222 32.8744H67.8322C66.7474 32.8744 65.7071 32.4434 64.9401 31.6764C64.173 30.9094 63.7422 29.8691 63.7422 28.7844V21.1043C63.7413 20.8861 63.8053 20.6726 63.9262 20.4909C64.047 20.3092 64.2191 20.1676 64.4207 20.0839C64.6222 20.0003 64.844 19.9786 65.058 20.0214C65.2719 20.0642 65.4683 20.1696 65.6222 20.3244L76.2921 30.9943C76.4462 31.1476 76.5516 31.3431 76.5947 31.5561C76.6379 31.7691 76.6168 31.9902 76.5344 32.1913C76.4521 32.3924 76.312 32.5646 76.1318 32.6862C75.9517 32.8078 75.7396 32.8732 75.5222 32.8744Z" fill="#078AFB"/>
<path d="M53.3106 64.5548C60.0319 64.5548 65.4806 59.1061 65.4806 52.3848C65.4806 45.6635 60.0319 40.2148 53.3106 40.2148C46.5893 40.2148 41.1406 45.6635 41.1406 52.3848C41.1406 59.1061 46.5893 64.5548 53.3106 64.5548Z" stroke="white" stroke-width="2" stroke-linecap="round" stroke-linejoin="round"/>
<path d="M51.5 56.0241V48.4141L57.13 52.2141L51.5 56.0241Z" stroke="white" stroke-width="2" stroke-linecap="round" stroke-linejoin="round"/>
<defs>
<filter id="filter0_d_143_3996" x="0" y="0.00390625" width="106.62" height="113.5" filterUnits="userSpaceOnUse" color-interpolation-filters="sRGB">
<feFlood flood-opacity="0" result="BackgroundImageFix"/>
<feColorMatrix in="SourceAlpha" type="matrix" values="0 0 0 0 0 0 0 0 0 0 0 0 0 0 0 0 0 0 127 0" result="hardAlpha"/>
<feOffset dy="10"/>
<feGaussianBlur stdDeviation="15"/>
<feComposite in2="hardAlpha" operator="out"/>
<feColorMatrix type="matrix" values="0 0 0 0 0.509804 0 0 0 0 0.819608 0 0 0 0 0.992157 0 0 0 0.65 0"/>
<feBlend mode="normal" in2="BackgroundImageFix" result="effect1_dropShadow_143_3996"/>
<feBlend mode="normal" in="SourceGraphic" in2="effect1_dropShadow_143_3996" result="shape"/>
</filter>
</defs>
</svg>
