<svg width="394" height="642" viewBox="0 0 394 642" fill="none" xmlns="http://www.w3.org/2000/svg">
<g opacity="0.26">
<path d="M310.113 321.728V300.543H287.336V321.728" stroke="#078AFB" stroke-width="3.4" stroke-linecap="round" stroke-linejoin="round"/>
<path d="M306.203 370.165H291.267V420.658H306.203V370.165Z" stroke="#078AFB" stroke-width="3.4" stroke-linecap="round" stroke-linejoin="round"/>
<path d="M298.725 370.165C321.357 370.165 339.704 359.11 339.704 345.473C339.704 331.836 321.357 320.781 298.725 320.781C276.093 320.781 257.746 331.836 257.746 345.473C257.746 359.11 276.093 370.165 298.725 370.165Z" stroke="#52ADFD" stroke-width="3.4" stroke-linecap="round" stroke-linejoin="round"/>
<path d="M326.985 420.698H270.465V568.912H326.985V420.698Z" stroke="#078AFB" stroke-width="3.4" stroke-linecap="round" stroke-linejoin="round"/>
<path d="M288.626 236.565L299.854 2L308.844 235.437" stroke="#52ADFD" stroke-width="3.4" stroke-linecap="round" stroke-linejoin="round"/>
<path d="M269.538 236.565H327.932V282.463C327.932 292.46 319.829 300.563 309.831 300.563H287.638C277.641 300.563 269.538 292.46 269.538 282.463V236.565V236.565Z" stroke="#078AFB" stroke-width="3.4" stroke-linecap="round" stroke-linejoin="round"/>
<path d="M264.478 264.624H332.971" stroke="#078AFB" stroke-width="3.4" stroke-linecap="round" stroke-linejoin="round"/>
<path d="M264.478 273.049H332.971" stroke="#078AFB" stroke-width="3.4" stroke-linecap="round" stroke-linejoin="round"/>
<path d="M264.478 281.475H332.971" stroke="#078AFB" stroke-width="3.4" stroke-linecap="round" stroke-linejoin="round"/>
<path d="M338.052 338.519H259.399" stroke="#52ADFD" stroke-width="3.4" stroke-linecap="round" stroke-linejoin="round"/>
<path d="M339.643 346.703H257.806" stroke="#52ADFD" stroke-width="3.4" stroke-linecap="round" stroke-linejoin="round"/>
<path d="M278.851 435.292H318.62" stroke="#52ADFD" stroke-width="3.4" stroke-linecap="round" stroke-linejoin="round"/>
<path d="M278.851 450.45H318.62" stroke="#52ADFD" stroke-width="3.4" stroke-linecap="round" stroke-linejoin="round"/>
<path d="M278.851 465.608H318.62" stroke="#52ADFD" stroke-width="3.4" stroke-linecap="round" stroke-linejoin="round"/>
<path d="M278.851 480.766H318.62" stroke="#52ADFD" stroke-width="3.4" stroke-linecap="round" stroke-linejoin="round"/>
<path d="M278.851 495.924H318.62" stroke="#52ADFD" stroke-width="3.4" stroke-linecap="round" stroke-linejoin="round"/>
<path d="M278.851 511.082H318.62" stroke="#52ADFD" stroke-width="3.4" stroke-linecap="round" stroke-linejoin="round"/>
<path d="M278.851 526.239H318.62" stroke="#52ADFD" stroke-width="3.4" stroke-linecap="round" stroke-linejoin="round"/>
<path d="M278.851 541.397H318.62" stroke="#52ADFD" stroke-width="3.4" stroke-linecap="round" stroke-linejoin="round"/>
<path d="M278.851 556.555H318.62" stroke="#52ADFD" stroke-width="3.4" stroke-linecap="round" stroke-linejoin="round"/>
<path d="M283.285 219.15H314.165" stroke="#078AFB" stroke-width="3.4" stroke-linecap="round" stroke-linejoin="round"/>
<path d="M283.849 202.883H313.601" stroke="#078AFB" stroke-width="3.4" stroke-linecap="round" stroke-linejoin="round"/>
<path d="M283.849 187.726H313.601" stroke="#078AFB" stroke-width="3.4" stroke-linecap="round" stroke-linejoin="round"/>
<path d="M444 595.055H84.8452" stroke="#52ADFD" stroke-width="3.4" stroke-linecap="round" stroke-linejoin="round"/>
<path d="M289.477 624.283H28.4653" stroke="#52ADFD" stroke-width="3.4" stroke-linecap="round" stroke-linejoin="round"/>
<path d="M312.455 639.944H262.325" stroke="#52ADFD" stroke-width="3.4" stroke-linecap="round" stroke-linejoin="round"/>
<path d="M146.726 427.512V455.792" stroke="#078AFB" stroke-width="3.4" stroke-linecap="round" stroke-linejoin="round"/>
<path d="M41.7896 570.807C54.4077 516.101 100.345 455.792 145.98 455.792C191.616 455.792 235.316 511.626 250.171 570.807" stroke="#52ADFD" stroke-width="3.4" stroke-linecap="round" stroke-linejoin="round"/>
<path d="M157.45 526.925C157.45 533.819 151.806 539.382 144.832 539.382C137.857 539.382 132.213 533.798 132.213 526.925C132.213 520.052 144.832 478.811 144.832 478.811C144.832 478.811 157.45 520.031 157.45 526.925Z" stroke="#52ADFD" stroke-width="3.4" stroke-linecap="round" stroke-linejoin="round"/>
<path d="M106.009 525.091C101.877 530.936 93.7336 533.073 87.8075 529.828C81.8814 526.603 80.4503 519.245 84.5824 513.4C88.7146 507.554 124.17 478.367 124.17 478.367C124.17 478.367 110.141 519.245 106.009 525.091Z" stroke="#52ADFD" stroke-width="3.4" stroke-linecap="round" stroke-linejoin="round"/>
<path d="M204.858 514.468C208.648 520.495 206.793 527.772 200.706 530.735C194.619 533.698 186.596 531.218 182.807 525.191C179.017 519.165 167.306 477.742 167.306 477.742C167.306 477.742 201.069 508.441 204.858 514.468Z" stroke="#52ADFD" stroke-width="3.4" stroke-linecap="round" stroke-linejoin="round"/>
<path d="M157.752 424.387C146.807 424.387 137.918 415.518 137.918 404.552C137.918 399.432 139.873 394.796 143.038 391.289C133.947 394.111 127.355 402.597 127.355 412.615C127.355 424.951 137.353 434.949 149.689 434.949C159.707 434.949 168.193 428.358 171.015 419.267C167.508 422.452 162.852 424.387 157.752 424.387Z" fill="#078AFB"/>
<path d="M64.4667 548.553L61.6851 564.175" stroke="#52ADFD" stroke-width="3.4" stroke-linecap="round" stroke-linejoin="round"/>
<path d="M84.5622 549.098L83.4536 563.631" stroke="#52ADFD" stroke-width="3.4" stroke-linecap="round" stroke-linejoin="round"/>
<path d="M106.332 549.098L105.788 564.175" stroke="#52ADFD" stroke-width="3.4" stroke-linecap="round" stroke-linejoin="round"/>
<path d="M226.426 548.553L229.208 564.175" stroke="#52ADFD" stroke-width="3.4" stroke-linecap="round" stroke-linejoin="round"/>
<path d="M206.33 549.098L207.439 563.631" stroke="#52ADFD" stroke-width="3.4" stroke-linecap="round" stroke-linejoin="round"/>
<path d="M184.541 549.098L185.105 564.175" stroke="#52ADFD" stroke-width="3.4" stroke-linecap="round" stroke-linejoin="round"/>
<path d="M162.166 549.662V564.739" stroke="#52ADFD" stroke-width="3.4" stroke-linecap="round" stroke-linejoin="round"/>
<path d="M143.179 549.662V564.739" stroke="#52ADFD" stroke-width="3.4" stroke-linecap="round" stroke-linejoin="round"/>
<path d="M124.211 549.662V564.739" stroke="#52ADFD" stroke-width="3.4" stroke-linecap="round" stroke-linejoin="round"/>
<path d="M41.5679 564.739H248.7" stroke="#078AFB" stroke-width="3.4" stroke-linecap="round" stroke-linejoin="round"/>
<path d="M47.1509 548.231H243.68" stroke="#078AFB" stroke-width="3.4" stroke-linecap="round" stroke-linejoin="round"/>
<path d="M398.768 572.077H2" stroke="#52ADFD" stroke-width="3.4" stroke-linecap="round" stroke-linejoin="round"/>
</g>
</svg>
