<svg width="439" height="246" viewBox="0 0 439 246" fill="none" xmlns="http://www.w3.org/2000/svg">
<path d="M277.785 0H255.337V83.4446H277.785L305.539 54.5564V0H277.785Z" fill="#078AFB"/>
<path d="M301.639 103.944L370.028 38.5938L438.371 103.944V244.938H301.639V103.944Z" fill="#078AFB"/>
<path d="M164.908 103.944L233.297 38.5938H370.028L301.64 103.944V244.938H164.908V103.944Z" fill="#52ADFD"/>
<path d="M164.954 103.989H301.64L370.028 38.5938H233.297L164.954 103.989Z" fill="#B5DBFE"/>
<path d="M405.582 244.984H334.518V177.322C334.518 167.904 338.259 158.872 344.919 152.213C351.578 145.554 360.61 141.812 370.028 141.812C374.691 141.812 379.308 142.731 383.616 144.515C387.925 146.3 391.839 148.916 395.136 152.213C398.434 155.51 401.049 159.425 402.834 163.733C404.618 168.041 405.537 172.659 405.537 177.322V244.984H405.582Z" fill="#B5DBFE"/>
<path d="M182.595 171.152H216.381V141.765H182.595V171.152Z" fill="#CEF0FE"/>
<path d="M236.97 171.152H270.756V141.765H236.97V171.152Z" fill="#CEF0FE"/>
<path d="M370.028 121.766C379.846 121.766 387.805 113.806 387.805 103.988C387.805 94.1701 379.846 86.2109 370.028 86.2109C360.209 86.2109 352.25 94.1701 352.25 103.988C352.25 113.806 360.209 121.766 370.028 121.766Z" fill="#002245"/>
<path d="M96.4639 146.362L144.712 100.258L192.928 146.362V245.834H96.4639V146.362Z" fill="#078AFB"/>
<path d="M127.947 191.25H161.445V245.833H127.947V191.25Z" fill="#B5DBFE"/>
<path d="M112.781 167.16H176.643V171.735H112.781V167.16Z" fill="#002245"/>
<path d="M112.781 154.105H176.643V158.681H112.781V154.105Z" fill="#002245"/>
<path d="M9.15527e-05 146.362L48.2481 100.258H144.712L96.4641 146.362V245.834H9.15527e-05V146.362Z" fill="#52ADFD"/>
<path d="M0.0321045 146.394H96.4641L144.712 100.258H48.2481L0.0321045 146.394Z" fill="#B5DBFE"/>
<path d="M21.6282 169.43H74.8674V222.669H21.6282V169.43Z" fill="#CEF0FE"/>
<path d="M73.2038 131.871H57.3665L57.3665 73.0009H73.2038V131.871Z" fill="#B5DBFE"/>
<path d="M92.8167 111.521L73.2359 131.902V73.0312H92.8167V111.521Z" fill="#52ADFD"/>
<path d="M13.5016 193.777H77.363V198.353H13.5016V193.777Z" fill="#52ADFD"/>
<path d="M35.674 164.121H40.2493V227.983H35.674V164.121Z" fill="#52ADFD"/>
</svg>
