<svg width="23" height="22" viewBox="0 0 23 22" fill="none" xmlns="http://www.w3.org/2000/svg">
<path d="M11.5953 1.92188C14.4141 1.92188 14.7984 1.92188 15.9516 1.92188C16.9766 1.92188 17.4891 2.17813 17.8734 2.30625C18.3859 2.5625 18.7703 2.69063 19.1547 3.075C19.5391 3.45938 19.7953 3.84375 19.9234 4.35625C20.0516 4.74063 20.1797 5.25313 20.3078 6.27813C20.3078 7.43125 20.3078 7.6875 20.3078 10.6344C20.3078 13.5813 20.3078 13.8375 20.3078 14.9906C20.3078 16.0156 20.0516 16.5281 19.9234 16.9125C19.6672 17.425 19.5391 17.8094 19.1547 18.1938C18.7703 18.5781 18.3859 18.8344 17.8734 18.9625C17.4891 19.0906 16.9766 19.2187 15.9516 19.3469C14.7984 19.3469 14.5422 19.3469 11.5953 19.3469C8.64844 19.3469 8.39219 19.3469 7.23906 19.3469C6.21406 19.3469 5.70156 19.0906 5.31719 18.9625C4.80469 18.7063 4.42031 18.5781 4.03594 18.1938C3.65156 17.8094 3.39531 17.425 3.26719 16.9125C3.13906 16.5281 3.01094 16.0156 2.88281 14.9906C2.88281 13.8375 2.88281 13.5813 2.88281 10.6344C2.88281 7.6875 2.88281 7.43125 2.88281 6.27813C2.88281 5.25313 3.13906 4.74063 3.26719 4.35625C3.52344 3.84375 3.65156 3.45938 4.03594 3.075C4.42031 2.69063 4.80469 2.43438 5.31719 2.30625C5.70156 2.17813 6.21406 2.05 7.23906 1.92188C8.39219 1.92188 8.77656 1.92188 11.5953 1.92188ZM11.5953 0C8.64844 0 8.39219 0 7.23906 0C6.08594 0 5.31719 0.256251 4.67656 0.512501C4.03594 0.768751 3.39531 1.15313 2.75469 1.79375C2.11406 2.43438 1.85781 2.94688 1.47344 3.71563C1.21719 4.35625 1.08906 5.125 0.960938 6.27813C0.960938 7.43125 0.960938 7.81563 0.960938 10.6344C0.960938 13.5813 0.960938 13.8375 0.960938 14.9906C0.960938 16.1437 1.21719 16.9125 1.47344 17.5531C1.72969 18.1938 2.11406 18.8344 2.75469 19.475C3.39531 20.1156 3.90781 20.3719 4.67656 20.7563C5.31719 21.0125 6.08594 21.1406 7.23906 21.2687C8.39219 21.2687 8.77656 21.2687 11.5953 21.2687C14.4141 21.2687 14.7984 21.2687 15.9516 21.2687C17.1047 21.2687 17.8734 21.0125 18.5141 20.7563C19.1547 20.5 19.7953 20.1156 20.4359 19.475C21.0766 18.8344 21.3328 18.3219 21.7172 17.5531C21.9734 16.9125 22.1016 16.1437 22.2297 14.9906C22.2297 13.8375 22.2297 13.4531 22.2297 10.6344C22.2297 7.81563 22.2297 7.43125 22.2297 6.27813C22.2297 5.125 21.9734 4.35625 21.7172 3.71563C21.4609 3.075 21.0766 2.43438 20.4359 1.79375C19.7953 1.15313 19.2828 0.896876 18.5141 0.512501C17.8734 0.256251 17.1047 0.128125 15.9516 0C14.7984 0 14.5422 0 11.5953 0Z" fill="#112347"/>
<path d="M11.5953 5.125C8.52031 5.125 6.08594 7.55938 6.08594 10.6344C6.08594 13.7094 8.52031 16.1437 11.5953 16.1437C14.6703 16.1437 17.1047 13.7094 17.1047 10.6344C17.1047 7.55938 14.6703 5.125 11.5953 5.125ZM11.5953 14.2219C9.67344 14.2219 8.00781 12.6844 8.00781 10.6344C8.00781 8.7125 9.54531 7.04688 11.5953 7.04688C13.5172 7.04688 15.1828 8.58438 15.1828 10.6344C15.1828 12.5563 13.5172 14.2219 11.5953 14.2219Z" fill="#112347"/>
<path d="M17.2328 6.27813C17.9404 6.27813 18.5141 5.70449 18.5141 4.99688C18.5141 4.28926 17.9404 3.71563 17.2328 3.71563C16.5252 3.71563 15.9516 4.28926 15.9516 4.99688C15.9516 5.70449 16.5252 6.27813 17.2328 6.27813Z" fill="#112347"/>
</svg>
