<svg width="22" height="17" viewBox="0 0 22 17" fill="none" xmlns="http://www.w3.org/2000/svg">
<path d="M21.125 2.22656C20.3563 2.61094 19.5875 2.73906 18.6906 2.86719C19.5875 2.35469 20.2281 1.58594 20.4844 0.560937C19.7156 1.07344 18.8188 1.32969 17.7937 1.58594C17.025 0.817187 15.8719 0.304688 14.7188 0.304688C12.0281 0.304688 9.97813 2.86719 10.6188 5.42969C7.15938 5.30156 4.08438 3.63594 1.90625 1.07344C0.753125 2.99531 1.39375 5.42969 3.1875 6.71094C2.54688 6.71094 1.90625 6.45469 1.26562 6.19844C1.26562 8.12031 2.675 9.91406 4.59688 10.4266C3.95625 10.5547 3.31563 10.6828 2.675 10.5547C3.1875 12.2203 4.725 13.5016 6.64687 13.5016C5.10937 14.6547 2.80313 15.2953 0.625 15.0391C2.54688 16.1922 4.725 16.9609 7.03125 16.9609C14.8469 16.9609 19.2031 10.4266 18.9469 4.40469C19.8437 3.89219 20.6125 3.12344 21.125 2.22656Z" fill="#112347"/>
</svg>
