<svg width="19" height="22" viewBox="0 0 19 22" fill="none" xmlns="http://www.w3.org/2000/svg">
<mask id="path-1-inside-1_347_3994" fill="white">
<path d="M17.5686 7.90628C17.5686 7.97806 17.006 15.0933 16.6847 18.0878C16.4835 19.9255 15.2988 21.0401 13.5218 21.0718C12.1564 21.1024 10.8198 21.1129 9.50475 21.1129C8.1086 21.1129 6.74324 21.1024 5.41793 21.0718C3.70045 21.0306 2.51475 19.8938 2.3238 18.0878C1.99324 15.0828 1.44094 7.97806 1.43068 7.90628C1.42041 7.6899 1.49022 7.48408 1.63189 7.3173C1.7715 7.1632 1.97271 7.07031 2.18419 7.07031H16.8253C17.0358 7.07031 17.2267 7.1632 17.3776 7.3173C17.5183 7.48408 17.5891 7.6899 17.5686 7.90628Z"/>
</mask>
<path d="M16.6847 18.0878L18.6728 18.3055L18.6733 18.3012L16.6847 18.0878ZM13.5218 21.0718L13.4861 19.0721L13.4769 19.0723L13.5218 21.0718ZM5.41793 21.0718L5.37 23.0712L5.37174 23.0712L5.41793 21.0718ZM2.3238 18.0878L4.31274 17.8775L4.31181 17.8691L2.3238 18.0878ZM1.43068 7.90628L-0.567076 8.00106L-0.562587 8.09568L-0.549175 8.18946L1.43068 7.90628ZM1.63189 7.3173L0.149707 5.97449L0.128277 5.99815L0.107613 6.02247L1.63189 7.3173ZM17.3776 7.3173L18.9065 6.02795L18.8586 5.97111L18.8066 5.918L17.3776 7.3173ZM15.5686 7.90628C15.5686 7.81334 15.5771 7.72434 15.5676 7.85208C15.5636 7.90566 15.5576 7.98473 15.5497 8.08753C15.5339 8.2926 15.5108 8.58635 15.482 8.94726C15.4244 9.66889 15.3442 10.6561 15.2541 11.7344C15.0731 13.8989 14.8539 16.4039 14.6961 17.8744L18.6733 18.3012C18.8368 16.7772 19.0596 14.2273 19.2402 12.0677C19.3308 10.9839 19.4114 9.99164 19.4693 9.2654C19.4983 8.90237 19.5216 8.60506 19.5378 8.39558C19.5459 8.29111 19.5523 8.20703 19.5567 8.14703C19.5589 8.11744 19.5608 8.09113 19.5622 8.07019C19.5629 8.0602 19.5638 8.04756 19.5645 8.03479C19.5649 8.02873 19.5655 8.01817 19.5661 8.00565C19.5664 7.9994 19.5669 7.98915 19.5673 7.97663C19.5676 7.96768 19.5686 7.94067 19.5686 7.90628H15.5686ZM14.6966 17.8701C14.6377 18.4073 14.4584 18.6734 14.3222 18.8018C14.192 18.9245 13.952 19.0638 13.4861 19.0721L13.5574 23.0714C14.8686 23.0481 16.1094 22.6142 17.0661 21.7123C18.0168 20.8161 18.5304 19.606 18.6728 18.3055L14.6966 17.8701ZM13.4769 19.0723C12.1304 19.1025 10.8093 19.1129 9.50475 19.1129V23.1129C10.8303 23.1129 12.1825 23.1023 13.5666 23.0713L13.4769 19.0723ZM9.50475 19.1129C8.11801 19.1129 6.76903 19.1024 5.46411 19.0723L5.37174 23.0712C6.71746 23.1023 8.09919 23.1129 9.50475 23.1129V19.1129ZM5.46585 19.0723C5.05267 19.0624 4.82204 18.9322 4.6856 18.8009C4.54229 18.6629 4.36694 18.3904 4.31272 17.8775L0.33489 18.2981C0.471614 19.5913 0.984583 20.7901 1.91123 21.6823C2.84475 22.5812 4.0657 23.0399 5.37 23.0712L5.46585 19.0723ZM4.31181 17.8691C4.14985 16.3968 3.93118 13.8951 3.75017 11.7304C3.66006 10.6527 3.5799 9.66614 3.52159 8.94388C3.46977 8.30212 3.42471 7.72225 3.41053 7.62311L-0.549175 8.18946C-0.558221 8.12621 -0.530394 8.46134 -0.465438 9.26581C-0.406983 9.98977 -0.326481 10.9806 -0.235914 12.0637C-0.0555611 14.2206 0.167198 16.7738 0.335796 18.3065L4.31181 17.8691ZM3.42843 7.8115C3.44222 8.10226 3.34233 8.39298 3.15616 8.61214L0.107613 6.02247C-0.361894 6.57518 -0.601402 7.27754 -0.567076 8.00106L3.42843 7.8115ZM3.11407 8.66012C2.88715 8.91058 2.55589 9.07031 2.18419 9.07031V5.07031C1.38954 5.07031 0.655855 5.41581 0.149707 5.97449L3.11407 8.66012ZM2.18419 9.07031H16.8253V5.07031H2.18419V9.07031ZM16.8253 9.07031C16.4118 9.07031 16.109 8.88036 15.9487 8.71661L18.8066 5.918C18.3444 5.44604 17.6597 5.07031 16.8253 5.07031V9.07031ZM15.8487 8.60666C15.6718 8.39689 15.5432 8.07871 15.5775 7.71736L19.5596 8.09521C19.635 7.3011 19.3647 6.57126 18.9065 6.02795L15.8487 8.60666Z" fill="#8996A2" mask="url(#path-1-inside-1_347_3994)"/>
<path d="M6.11688 2.57057L6.11697 2.57018L6.27445 1.8668C6.42201 1.31016 6.86448 1 7.32159 1H11.6794C12.1411 1 12.5813 1.32488 12.7159 1.81865L12.8837 2.56765C12.8838 2.56796 12.8839 2.56827 12.8839 2.56858C13.086 3.47604 13.7925 4.18134 14.6828 4.37259H4.31793C5.20784 4.18131 5.91379 3.47595 6.11688 2.57057Z" stroke="#8996A2" stroke-width="2"/>
</svg>
