<svg width="38" height="32" viewBox="0 0 38 32" fill="none" xmlns="http://www.w3.org/2000/svg">
<path d="M37.0599 16.0176V22.1684L19.1491 30.7305L1.23828 22.1684V16.0176L19.1491 24.5926L37.0599 16.0176Z" fill="#078AFB" stroke="#078AFB" stroke-width="1.28947" stroke-linecap="round" stroke-linejoin="round"/>
<path d="M37.0599 16.0035L19.1491 7.44141L1.23828 16.0035L19.1491 24.5785L37.0599 16.0035Z" fill="#B5DBFE" stroke="#B5DBFE" stroke-width="1.28947" stroke-linecap="round" stroke-linejoin="round"/>
<path d="M37.0599 10.5234V16.0424L19.1491 24.6045L1.23828 16.0424V10.5234" stroke="#078AFB" stroke-width="1.28947" stroke-linecap="round" stroke-linejoin="round"/>
<path d="M35.5646 9.16923L34.9844 8.89844" stroke="#078AFB" stroke-width="1.28947" stroke-linecap="round" stroke-linejoin="round"/>
<path d="M32.8046 7.85339L20.8125 2.11523" stroke="#078AFB" stroke-width="1.28947" stroke-linecap="round" stroke-linejoin="round" stroke-dasharray="1.21 2.41"/>
<path d="M19.7289 1.60009L19.1486 1.31641L18.5684 1.60009" stroke="#078AFB" stroke-width="1.28947" stroke-linecap="round" stroke-linejoin="round"/>
<path d="M16.3761 2.64453L4.37109 8.38269" stroke="#078AFB" stroke-width="1.28947" stroke-linecap="round" stroke-linejoin="round" stroke-dasharray="1.21 2.42"/>
<path d="M3.28847 8.91016L2.69531 9.18095" stroke="#078AFB" stroke-width="1.28947" stroke-linecap="round" stroke-linejoin="round"/>
<path d="M3.75391 11.0898L4.34706 11.3735" stroke="#078AFB" stroke-width="1.28947" stroke-linecap="round" stroke-linejoin="round"/>
<path d="M6.92578 12.6113L17.2674 17.5629" stroke="#078AFB" stroke-width="1.28947" stroke-linecap="round" stroke-linejoin="round" stroke-dasharray="1.43 2.86"/>
<path d="M18.5684 18.1836L19.1486 18.4673L19.7289 18.1836" stroke="#078AFB" stroke-width="1.28947" stroke-linecap="round" stroke-linejoin="round"/>
<path d="M22.2949 16.9586L32.5333 12.0586" stroke="#078AFB" stroke-width="1.28947" stroke-linecap="round" stroke-linejoin="round" stroke-dasharray="1.42 2.84"/>
<path d="M33.8086 11.438L34.3889 11.1543" stroke="#078AFB" stroke-width="1.28947" stroke-linecap="round" stroke-linejoin="round"/>
</svg>
