<svg width="26" height="33" viewBox="0 0 26 33" fill="none" xmlns="http://www.w3.org/2000/svg">
<path d="M0.170848 9.35907C0.170848 4.98301 0.170848 2.78842 1.48498 1.47429C2.79911 0.160156 5.07252 0.160156 9.50114 0.160156H15.7696C20.185 0.160156 22.4059 0.160156 23.7857 1.47429C25.1656 2.78842 25.0999 5.0093 25.0999 9.35907V25.2732C25.0999 29.4127 25.0999 31.489 23.7857 32.1198C22.4716 32.7506 20.8027 31.4759 17.5042 28.9133L16.4529 28.0986C14.5869 26.653 13.667 25.9434 12.5106 25.9434C11.3541 25.9434 10.4999 26.653 8.64701 28.0986L7.59572 28.9133C4.28411 31.4759 2.64141 32.7637 1.31414 32.1198C-0.0131363 31.4759 4.95476e-06 29.4127 4.95476e-06 25.2732L0.170848 9.35907Z" fill="white"/>
<path d="M10.9596 9.2536C11.6823 7.57151 12.0503 6.73047 12.6811 6.73047C13.3119 6.73047 13.6797 7.57151 14.4157 9.2536V9.33244C14.823 10.2786 15.0333 10.7517 15.4539 11.0408C16.1061 11.348 16.823 11.4923 17.5433 11.4613H17.7404C19.5671 11.6059 20.4738 11.6847 20.6578 12.2104C20.8418 12.736 20.1847 13.3011 18.8312 14.4313L18.3844 14.8124C17.701 15.3774 17.3594 15.6666 17.2017 16.0345L17.1228 16.2448C17.0588 16.7959 17.1263 17.3543 17.3199 17.8743V18.1371C17.6879 19.6615 17.8718 20.4106 17.5564 20.7654C17.4292 20.8923 17.2705 20.983 17.0965 21.0282C16.6366 21.1465 15.9795 20.6471 14.6653 19.7141C14.1578 19.2347 13.5461 18.8793 12.8781 18.6759C12.6819 18.6497 12.483 18.6497 12.2868 18.6759C11.6177 18.8766 11.0054 19.2323 10.4996 19.7141C9.18545 20.6997 8.5284 21.199 8.05531 21.0282C7.88508 20.9833 7.73047 20.8923 7.60847 20.7654C7.29308 20.4369 7.47705 19.6878 7.84501 18.1371L7.91078 17.8743C8.10194 17.3537 8.16498 16.7948 8.09469 16.2448C8.10031 16.1748 8.10031 16.1045 8.09469 16.0345C7.937 15.6666 7.59537 15.3774 6.91203 14.8124L6.46519 14.4313C5.15106 13.3011 4.44143 12.736 4.62541 12.2104C4.80939 11.6847 5.72928 11.6059 7.54278 11.4613H7.75309C8.47322 11.4907 9.18982 11.3465 9.84251 11.0408C10.263 10.7517 10.4602 10.2786 10.8807 9.33244L10.9596 9.2536Z" fill="#F3AF34"/>
</svg>
