<svg width="79" height="62" viewBox="0 0 79 62" fill="none" xmlns="http://www.w3.org/2000/svg">
<path d="M31.9896 0H36.4614V16.6225H31.9896L26.4608 10.8678V0H31.9896Z" fill="#078AFB"/>
<path d="M27.2373 20.7054L13.6141 7.6875L-5.34058e-05 20.7054V48.792H27.2373V20.7054Z" fill="#078AFB"/>
<path d="M54.4756 20.7054L40.8524 7.6875H13.615L27.2382 20.7054V48.792H54.4756V20.7054Z" fill="#52ADFD"/>
<path d="M54.4663 20.7145H27.238L13.6148 7.6875H40.8521L54.4663 20.7145Z" fill="#B5DBFE"/>
<path d="M6.53223 48.8018H20.6884V35.3231C20.6884 33.4471 19.9432 31.6479 18.6166 30.3213C17.2901 28.9948 15.4909 28.2495 13.6148 28.2495C12.6859 28.2495 11.7661 28.4325 10.9079 28.788C10.0497 29.1435 9.26991 29.6645 8.61307 30.3213C7.95623 30.9782 7.43518 31.758 7.0797 32.6162C6.72422 33.4744 6.54126 34.3942 6.54126 35.3231L6.54126 48.8018H6.53223Z" fill="#B5DBFE"/>
<path d="M50.952 34.0938H44.2217V28.2398H50.952V34.0938Z" fill="#CEF0FE"/>
<path d="M40.1199 34.0938H33.3896V28.2398H40.1199V34.0938Z" fill="#CEF0FE"/>
<path d="M13.6145 24.2564C11.6586 24.2564 10.0731 22.6709 10.0731 20.7151C10.0731 18.7593 11.6586 17.1738 13.6145 17.1738C15.5703 17.1738 17.1558 18.7593 17.1558 20.7151C17.1558 22.6709 15.5703 24.2564 13.6145 24.2564Z" fill="#002245"/>
<path d="M47.8668 50.5H52.438V61.9912H47.8668V50.5Z" fill="#FF735C"/>
<path d="M69.7921 50.5H74.3633V61.9912H69.7921V50.5Z" fill="#FF735C"/>
<path d="M43.783 35.3857H78.4463V51.3578H43.783V35.3857Z" fill="#FF735C"/>
<path d="M52.3885 47.4217C53.6753 47.369 54.2322 46.8046 54.2322 45.5178V42.7787H53.1185V45.7436C53.1185 46.2327 52.8927 46.4133 52.2531 46.481L52.3885 47.4217ZM56.869 45.9844C56.9669 45.9844 57.0195 45.8339 57.0195 45.5329C57.0195 45.1867 56.9669 45.0136 56.869 45.0136C56.41 45.0136 56.2219 44.8556 56.2219 44.4944V40.2954H55.1082V44.5095C55.1082 45.5329 55.5747 45.9844 56.869 45.9844ZM60.1123 45.0136C60.1951 43.471 59.5028 42.6959 58.0354 42.6959C57.6666 42.6959 57.3205 42.7561 57.0044 42.869L57.2528 43.787C57.5011 43.7344 57.7419 43.7043 57.9676 43.7043C58.818 43.7043 59.0814 44.2536 58.9835 45.0136H56.869V45.9844H60.4133C60.5111 45.9844 60.5638 45.8339 60.5638 45.5329C60.5638 45.1867 60.5111 45.0136 60.4133 45.0136H60.1123ZM58.0203 46.7294C57.915 46.8347 57.8623 46.9702 57.8623 47.1357C57.8623 47.4593 58.088 47.685 58.4192 47.685C58.7503 47.685 58.961 47.4593 58.961 47.1357C58.961 46.9702 58.9158 46.8347 58.818 46.7294C58.6223 46.5111 58.2235 46.5111 58.0203 46.7294ZM60.6594 45.9844C61.3216 45.9844 61.7882 45.864 62.0666 45.6232C62.3375 45.3899 62.4729 44.961 62.4729 44.3514V42.7787H61.3592V44.216C61.3592 44.5396 61.3141 44.7503 61.2238 44.8556C61.126 44.961 60.9303 45.0136 60.6293 45.0136H60.4111V45.9844H60.6594ZM61.3818 47.5345C61.4796 47.4292 61.5323 47.2937 61.5323 47.1357C61.5323 46.8046 61.3066 46.5638 60.983 46.5638C60.6594 46.5638 60.4186 46.8121 60.4186 47.1357C60.3734 47.6173 61.0658 47.8657 61.3818 47.5345ZM62.7363 47.527C62.8342 47.4217 62.8868 47.2937 62.8868 47.1357C62.8868 46.8121 62.646 46.5638 62.3375 46.5638C62.0139 46.5638 61.7731 46.8121 61.7731 47.1357C61.728 47.6173 62.4203 47.8732 62.7363 47.527ZM66.6291 44.3289C66.6291 44.7879 66.456 45.0136 66.0271 45.0136H65.7035V41.8456H64.5898V45.0136H63.288V45.9844H66.3431C67.2687 45.9844 67.7428 45.4426 67.7428 44.6073V40.2954H66.6291V44.3289ZM65.1467 47.2411C65.1467 47.0981 65.237 47.0228 65.41 47.0228C65.4853 47.0228 65.5605 47.0304 65.6433 47.0529L65.7336 46.5713C65.6057 46.5337 65.4778 46.5187 65.3348 46.5187C64.8908 46.5187 64.6199 46.7595 64.6199 47.1207C64.6199 47.2335 64.65 47.3389 64.7102 47.4367H64.4619V47.9334H65.8013V47.4367H65.2069C65.1692 47.369 65.1467 47.3088 65.1467 47.2411ZM69.7289 45.9844V40.2954H68.6151V45.9844H69.7289Z" fill="white"/>
</svg>
