<svg width="22" height="17" viewBox="0 0 22 17" fill="none" xmlns="http://www.w3.org/2000/svg">
<path d="M21.125 2.22852C20.3563 2.61289 19.5875 2.74102 18.6906 2.86914C19.5875 2.35664 20.2281 1.58789 20.4844 0.56289C19.7156 1.07539 18.8188 1.33164 17.7937 1.58789C17.025 0.819141 15.8719 0.306641 14.7188 0.306641C12.0281 0.306641 9.97813 2.86914 10.6188 5.43164C7.15938 5.30352 4.08438 3.63789 1.90625 1.07539C0.753125 2.99727 1.39375 5.43164 3.1875 6.71289C2.54688 6.71289 1.90625 6.45664 1.26562 6.20039C1.26562 8.12227 2.675 9.91601 4.59688 10.4285C3.95625 10.5566 3.31563 10.6848 2.675 10.5566C3.1875 12.2223 4.725 13.5035 6.64687 13.5035C5.10937 14.6566 2.80313 15.2973 0.625 15.041C2.54688 16.1941 4.725 16.9629 7.03125 16.9629C14.8469 16.9629 19.2031 10.4285 18.9469 4.40664C19.8437 3.89414 20.6125 3.12539 21.125 2.22852Z" fill="white"/>
</svg>
