<svg width="24" height="24" viewBox="0 0 24 24" fill="none" xmlns="http://www.w3.org/2000/svg">
<path d="M11.6025 2.09627C14.6987 2.09627 15.0651 2.09627 16.2854 2.16513C17.0222 2.16962 17.7528 2.30101 18.445 2.55354C18.9454 2.74732 19.3999 3.0434 19.7794 3.42286C20.1588 3.80233 20.4549 4.25681 20.6487 4.75724C20.9031 5.44636 21.0373 6.17406 21.0453 6.9086C21.1032 8.13165 21.1142 8.49802 21.1142 11.5915C21.1142 14.6849 21.1142 15.054 21.0453 16.2743C21.0381 17.0125 20.9039 17.744 20.6487 18.4367C20.4609 18.9395 20.1646 19.3947 19.781 19.77C19.4062 20.1548 18.9496 20.4505 18.445 20.6349C17.7565 20.8918 17.0285 21.027 16.2936 21.0343C15.0706 21.0922 14.7042 21.1032 11.6108 21.1032C8.51731 21.1032 8.14819 21.1032 6.92789 21.0343C6.1921 21.0273 5.46317 20.8921 4.77377 20.6349C4.27195 20.4435 3.81622 20.1483 3.43645 19.7685C3.05668 19.3887 2.76144 18.933 2.57007 18.4312C2.31285 17.7418 2.17769 17.0129 2.17065 16.2771C2.1128 15.0568 2.10178 14.6904 2.10178 11.5942C2.10178 8.49802 2.10178 8.13166 2.17065 6.91136C2.17681 6.17573 2.31103 5.4468 2.56731 4.75724C2.75213 4.25365 3.04773 3.79802 3.43227 3.424C3.80726 3.03933 4.26249 2.74212 4.7655 2.55354C5.45561 2.29923 6.1842 2.16507 6.91962 2.15687C8.13992 2.09902 8.50629 2.088 11.6025 2.088V2.09627ZM11.6025 0C8.45395 0 8.06004 0.0137731 6.82321 0.0688657C5.86138 0.092755 4.9105 0.27902 4.01074 0.619791C3.24034 0.916587 2.54062 1.37139 1.9566 1.95493C1.37259 2.53847 0.917213 3.23782 0.619791 4.00798C0.279123 4.90872 0.0928669 5.86049 0.0688657 6.82321C0.0137731 8.06003 0 8.45395 0 11.6025C0 14.751 0 15.1449 0.0688657 16.3818C0.092755 17.3436 0.27902 18.2945 0.619791 19.1942C0.909622 19.9686 1.36565 20.67 1.95579 21.2492C2.53492 21.8393 3.23636 22.2954 4.01074 22.5852C4.9105 22.926 5.86138 23.1122 6.82321 23.1361C8.06004 23.1912 8.45395 23.205 11.6025 23.205C14.751 23.205 15.1449 23.1912 16.3818 23.1361C17.3445 23.1121 18.2962 22.9259 19.197 22.5852C19.9659 22.2865 20.6638 21.8303 21.2459 21.2458C21.828 20.6613 22.2814 19.9616 22.5769 19.1915C22.9177 18.2917 23.104 17.3408 23.1278 16.379C23.1829 15.1422 23.1967 14.7483 23.1967 11.5997C23.1967 8.45119 23.1967 8.05728 23.1278 6.82045C23.1038 5.85773 22.9176 4.90597 22.5769 4.00522C22.2795 3.23784 21.8252 2.54091 21.2433 1.95895C20.6613 1.37698 19.9644 0.922766 19.197 0.625297C18.2962 0.284629 17.3445 0.0983732 16.3818 0.0743719C15.1449 0.0192794 14.751 0.00550623 11.6025 0.00550623V0Z" fill="#F3AF34"/>
<path d="M11.5992 5.64844C10.4219 5.64844 9.27099 5.99756 8.29207 6.65166C7.31314 7.30575 6.55016 8.23545 6.09961 9.32317C5.64906 10.4109 5.53118 11.6078 5.76087 12.7625C5.99056 13.9172 6.5575 14.9779 7.39001 15.8104C8.22251 16.6429 9.28319 17.2099 10.4379 17.4395C11.5926 17.6692 12.7895 17.5514 13.8773 17.1008C14.965 16.6503 15.8947 15.8873 16.5488 14.9084C17.2029 13.9294 17.552 12.7785 17.552 11.6012C17.552 10.0224 16.9248 8.50831 15.8085 7.39195C14.6921 6.2756 13.178 5.64844 11.5992 5.64844ZM11.5992 15.4659C10.8365 15.4659 10.0909 15.2397 9.45669 14.816C8.8225 14.3922 8.3282 13.7899 8.03631 13.0853C7.74443 12.3806 7.66806 11.6052 7.81686 10.8571C7.96566 10.109 8.33296 9.42185 8.87229 8.88251C9.41163 8.34317 10.0988 7.97587 10.8469 7.82707C11.595 7.67827 12.3704 7.75464 13.075 8.04653C13.7797 8.33842 14.382 8.83271 14.8058 9.4669C15.2295 10.1011 15.4557 10.8467 15.4557 11.6094C15.4557 12.6322 15.0494 13.6132 14.3262 14.3364C13.6029 15.0596 12.622 15.4659 11.5992 15.4659Z" fill="#F3AF34"/>
<path d="M17.7905 6.80561C18.5588 6.80561 19.1816 6.1828 19.1816 5.41452C19.1816 4.64625 18.5588 4.02344 17.7905 4.02344C17.0222 4.02344 16.3994 4.64625 16.3994 5.41452C16.3994 6.1828 17.0222 6.80561 17.7905 6.80561Z" fill="#F3AF34"/>
</svg>
