<svg width="112" height="67" viewBox="0 0 112 67" fill="none" xmlns="http://www.w3.org/2000/svg">
<path d="M112 12.6064H105.039V43.2349H112V12.6064Z" fill="#112347"/>
<path d="M100.329 12.6064H93.3682V43.2349H100.329V12.6064Z" fill="#112347"/>
<path d="M88.6583 12.6064H81.6973V43.2349H88.6583V12.6064Z" fill="#112347"/>
<path d="M100.329 43.2354V36.2744L11.6708 36.2744V43.2354L100.329 43.2354Z" fill="#112347"/>
<path d="M14.5459 19.5675V12.6064H4.08627V19.5675H14.5459Z" fill="#112347"/>
<path d="M83.9668 19.5665V12.6055H73.5072V19.5665H83.9668Z" fill="#112347"/>
<path d="M76.9874 12.6064H70.0264V31.5641H76.9874V12.6064Z" fill="#112347"/>
<path d="M65.3165 12.6064H58.3555V43.2349H65.3165V12.6064Z" fill="#112347"/>
<path d="M53.6446 12.6064H46.6836V43.2349H53.6446V12.6064Z" fill="#112347"/>
<path d="M41.9737 12.6064H35.0127V43.2349H41.9737V12.6064Z" fill="#112347"/>
<path d="M30.3028 12.6064H23.3418V43.2349H30.3028V12.6064Z" fill="#112347"/>
<path d="M18.6319 12.6064H11.6709V43.2349H18.6319V12.6064Z" fill="#112347"/>
<path d="M6.96102 12.6064H0V43.2349H6.96102V12.6064Z" fill="#112347"/>
<path d="M18.5052 4.92218L13.583 0L8.66083 4.92218L13.583 9.84437L18.5052 4.92218Z" fill="#112347"/>
<path d="M9.96955 4.92218L5.04736 0L0.125181 4.92218L5.04736 9.84437L9.96955 4.92218Z" fill="#112347"/>
<path d="M31.7444 50.9417L26.8223 46.0195L21.9001 50.9417L26.8223 55.8639L31.7444 50.9417Z" fill="#112347"/>
<path d="M18.8588 50.4082H0V51.522H18.8588V50.4082Z" fill="#D3AC2B"/>
<path d="M112 50.4082H34.7715V51.522H112V50.4082Z" fill="#D3AC2B"/>
<path d="M1.4035 64.1153L0.526415 66.0547H0.078125L3.16743 59.2412H3.60597L6.72451 66.0547H6.27622L5.38938 64.1153H1.4035ZM3.38182 59.7104L1.57892 63.706H5.20422L3.38182 59.7104Z" fill="#112347"/>
<path d="M16.0119 65.6551V66.0547H12.5718V59.2412H12.9811V65.6551H16.0119Z" fill="#112347"/>
<path d="M27.0731 66.0547V62.8387H22.4635V66.0547H22.0542V59.2412H22.4635V62.4377H27.0731V59.2412H27.4824V66.0547H27.0731Z" fill="#112347"/>
<path d="M34.4209 66.0547V59.2412H34.8302V66.0547H34.4209Z" fill="#112347"/>
<path d="M45.5306 59.7772L45.3454 60.1475C44.8387 59.8161 44.1467 59.6505 43.562 59.6505C42.4803 59.6505 41.7786 60.0988 41.7786 60.8102C41.7786 62.886 45.784 61.814 45.7645 64.3283C45.7645 65.3808 44.8192 66.063 43.3963 66.063C42.49 66.063 41.5642 65.6634 40.9697 65.0787L41.1841 64.7181C41.7396 65.2931 42.607 65.6439 43.4061 65.6439C44.5755 65.6439 45.3259 65.1372 45.3259 64.338C45.3454 62.2038 41.3401 63.2953 41.3401 60.8394C41.3401 59.8551 42.2366 59.2217 43.5815 59.2217C44.2734 59.2217 45.0238 59.4458 45.5306 59.7772Z" fill="#112347"/>
<path d="M54.9937 59.2416C56.3289 59.2416 57.1182 59.8653 57.1182 60.9276C57.1182 61.7657 56.6407 62.3407 55.8026 62.4966C56.8454 62.6233 57.4593 63.2665 57.4593 64.2215C57.4593 65.3812 56.5627 66.0537 55.0132 66.0537H52.2065V59.2402H54.9937V59.2416ZM52.6159 62.3309H54.984C56.0755 62.3309 56.7089 61.8437 56.7089 60.9763C56.7089 60.109 56.0755 59.6412 54.984 59.6412H52.6159V62.3309ZM52.6159 65.6541H54.984C56.2996 65.6541 57.05 65.1181 57.05 64.1728C57.05 63.2275 56.2996 62.7305 54.984 62.7305H52.6159V65.6541Z" fill="#112347"/>
<path d="M64.1056 64.1153L63.2286 66.0547H62.7803L65.8696 59.2412H66.3081L69.4267 66.0547H68.9784L68.0915 64.1153H64.1056ZM66.084 59.7104L64.2811 63.706H67.9064L66.084 59.7104Z" fill="#112347"/>
<path d="M75.274 65.7718C75.274 65.9764 75.1181 66.1323 74.9329 66.1323C74.7477 66.1323 74.6016 65.9764 74.6016 65.7718C74.6016 65.5671 74.7477 65.4307 74.9329 65.4307C75.1181 65.4307 75.274 65.5768 75.274 65.7718Z" fill="#112347"/>
<path d="M86.7343 60.1475L86.4907 60.4594C85.9254 59.9331 85.1556 59.6213 84.3467 59.6213C82.6217 59.6213 81.2282 60.9661 81.2282 62.6326C81.2282 64.2991 82.6217 65.6634 84.3467 65.6634C85.1556 65.6634 85.9157 65.3516 86.4907 64.8351L86.7441 65.1177C86.1106 65.7024 85.2433 66.063 84.3369 66.063C82.3976 66.063 80.8188 64.533 80.8188 62.6423C80.8188 60.7517 82.3976 59.2314 84.3369 59.2314C85.253 59.2314 86.1009 59.5823 86.7343 60.1475Z" fill="#112347"/>
<path d="M99.1402 62.6433C99.1402 64.5339 97.5614 66.064 95.6123 66.064C93.6632 66.064 92.0845 64.5339 92.0845 62.6433C92.0845 60.7527 93.6632 59.2324 95.6123 59.2324C97.5614 59.2324 99.1402 60.7527 99.1402 62.6433ZM92.5035 62.6433C92.5035 64.3098 93.9069 65.6644 95.6123 65.6644C97.3178 65.6644 98.7211 64.3098 98.7211 62.6433C98.7211 60.9769 97.3178 59.632 95.6123 59.632C93.9069 59.632 92.5035 60.9769 92.5035 62.6433Z" fill="#112347"/>
<path d="M111.556 66.0547L111.546 59.8064L108.749 65.3126H108.564L105.748 59.8064V66.0547H105.358V59.2412H105.923L108.662 64.6012L111.381 59.2412H111.946V66.0547H111.556Z" fill="#112347"/>
</svg>
