<svg width="99" height="173" viewBox="0 0 99 173" fill="none" xmlns="http://www.w3.org/2000/svg">
<path d="M61.6227 31.2109C61.6227 10.0869 52.1506 0.830078 38.05 0.830078C23.9494 0.830078 14.0198 10.0869 14.0198 31.2109C14.0198 52.3348 0 66.0317 0 88.1513C0 88.3666 0 88.5819 0 88.7971C0.161457 105.992 12.9435 119.689 28.3626 119.689H47.2799C62.6722 119.689 75.4542 105.965 75.6425 88.7971C75.6425 88.5819 75.6425 88.3666 75.6425 88.1513C75.6425 66.0317 61.6227 52.7654 61.6227 31.2109Z" fill="#23D7A0"/>
<path d="M37.8087 50.2637H36.3018V169.15H37.8087V50.2637Z" fill="#002245"/>
<path d="M32.6685 172.943C32.6685 166.566 37.8351 161.399 44.2126 161.399C46.9574 161.399 49.4869 162.368 51.4782 163.982C53.4157 157.282 59.5779 152.411 66.8973 152.411C73.6785 152.411 79.464 156.609 81.8321 162.556C83.339 161.829 85.0343 161.426 86.8103 161.426C93.1879 161.426 98.3545 166.592 98.3545 172.97H32.6685V172.943Z" fill="#23D7A0"/>
</svg>
