<svg width="19" height="22" viewBox="0 0 19 22" fill="none" xmlns="http://www.w3.org/2000/svg">
<path d="M18.844 11.0474V16.6144C18.844 19.0944 18.844 20.3476 18.0739 21.1128C17.3038 21.8779 16.308 21.8779 14.2898 21.8911C14.1383 21.8911 13.9931 21.8313 13.886 21.7249C13.779 21.6185 13.7188 21.4743 13.7188 21.3238V14.7279C13.7153 14.1027 13.4638 13.5041 13.0189 13.062C12.5739 12.62 11.9714 12.3701 11.3421 12.3666H7.77047C7.14121 12.3701 6.53871 12.62 6.09375 13.062C5.64879 13.5041 5.39726 14.1027 5.39377 14.7279V21.3238C5.39377 21.4743 5.33364 21.6185 5.22656 21.7249C5.11949 21.8313 4.97427 21.8911 4.82284 21.8911C2.81793 21.8911 1.72916 21.8119 1.03873 21.1128C0.348294 20.4136 0.255356 19.0944 0.255356 16.6144V11.021C0.13092 9.84711 0.257611 8.6603 0.627126 7.53842C1.24661 6.53638 2.06965 5.67373 3.04365 5.00559L4.37141 3.87109C6.84104 1.7736 8.07585 0.718262 9.54966 0.718262C11.0235 0.718262 12.2052 1.7736 14.7412 3.87109L16.069 5.00559C17.0395 5.67777 17.8617 6.53963 18.4855 7.53842C18.8458 8.67131 18.9678 9.8657 18.844 11.0474Z" fill="white"/>
</svg>
