<svg width="43" height="51" viewBox="0 0 43 51" fill="none" xmlns="http://www.w3.org/2000/svg">
<g filter="url(#filter0_d_143_2082)">
<path d="M36.3999 4.17143C36.3999 2.97218 35.4277 2 34.2285 2H8.17133C6.97208 2 5.9999 2.97218 5.9999 4.17143V40L21.1999 34.3L36.3999 40V4.17143Z" fill="#F3AF34"/>
</g>
<path d="M23.3026 13.2017C22.4115 11.1625 21.9659 10.1428 21.1998 10.1428C20.4336 10.1428 19.988 11.1625 19.0969 13.2017L19.0554 13.2967C18.552 14.4488 18.3003 15.0248 17.7873 15.375C17.2743 15.7251 16.6009 15.7805 15.254 15.8912L15.0105 15.9112C12.8062 16.0924 11.7041 16.183 11.4682 16.8267C11.2324 17.4704 12.0509 18.154 13.6879 19.5212L14.2343 19.9774C15.0629 20.6695 15.4773 21.0156 15.6704 21.4691C15.7064 21.5537 15.7364 21.6404 15.7601 21.7286C15.887 22.2014 15.7657 22.7034 15.523 23.7074L15.4475 24.0199C15.0015 25.8651 14.7785 26.7877 15.1678 27.1856C15.3133 27.3343 15.5024 27.4414 15.7125 27.494C16.2746 27.6348 17.0726 27.0378 18.6688 25.8439C19.7168 25.0599 20.2409 24.6679 20.8425 24.5797C21.0792 24.5451 21.3203 24.5451 21.557 24.5797C22.1587 24.6679 22.6827 25.0599 23.7308 25.8439C25.3269 27.0378 26.1249 27.6348 26.6871 27.494C26.8971 27.4414 27.0862 27.3343 27.2317 27.1856C27.621 26.7877 27.398 25.8651 26.9521 24.0199L26.8765 23.7074C26.6339 22.7034 26.5125 22.2014 26.6395 21.7286C26.6631 21.6404 26.6931 21.5537 26.7291 21.4691C26.9222 21.0156 27.3366 20.6695 28.1653 19.9774L28.7116 19.5212C30.3486 18.154 31.1671 17.4704 30.9313 16.8267C30.6955 16.183 29.5933 16.0924 27.389 15.9112L27.1455 15.8912C25.7987 15.7805 25.1252 15.7251 24.6122 15.375C24.0992 15.0248 23.8475 14.4488 23.3441 13.2967L23.3026 13.2017Z" fill="white"/>
<defs>
<filter id="filter0_d_143_2082" x="0" y="0.342857" width="42.3999" height="50" filterUnits="userSpaceOnUse" color-interpolation-filters="sRGB">
<feFlood flood-opacity="0" result="BackgroundImageFix"/>
<feColorMatrix in="SourceAlpha" type="matrix" values="0 0 0 0 0 0 0 0 0 0 0 0 0 0 0 0 0 0 127 0" result="hardAlpha"/>
<feOffset dy="4.34286"/>
<feGaussianBlur stdDeviation="3"/>
<feComposite in2="hardAlpha" operator="out"/>
<feColorMatrix type="matrix" values="0 0 0 0 0.0666667 0 0 0 0 0.137255 0 0 0 0 0.278431 0 0 0 0.1 0"/>
<feBlend mode="normal" in2="BackgroundImageFix" result="effect1_dropShadow_143_2082"/>
<feBlend mode="normal" in="SourceGraphic" in2="effect1_dropShadow_143_2082" result="shape"/>
</filter>
</defs>
</svg>
