<svg width="331" height="449" viewBox="0 0 331 449" fill="none" xmlns="http://www.w3.org/2000/svg">
<g opacity="0.26">
<path d="M129.706 410.309H176.218" stroke="#52ADFD" stroke-width="3.40003" stroke-linecap="round" stroke-linejoin="round"/>
<path d="M214.826 447.131H91.0986" stroke="#52ADFD" stroke-width="3.40003" stroke-linecap="round" stroke-linejoin="round"/>
<path d="M196.84 383.177H105.192" stroke="#52ADFD" stroke-width="3.40003" stroke-linecap="round" stroke-linejoin="round"/>
<path d="M225.979 383.177H328.863" stroke="#52ADFD" stroke-width="3.40003" stroke-linecap="round" stroke-linejoin="round"/>
<path d="M81.9699 406.96H11.8613" stroke="#52ADFD" stroke-width="3.40003" stroke-linecap="round" stroke-linejoin="round"/>
<path d="M200.784 278.642L195.344 422.684" stroke="#52ADFD" stroke-width="3.40003" stroke-linecap="round" stroke-linejoin="round"/>
<path d="M227.474 422.684L222.034 278.642" stroke="#52ADFD" stroke-width="3.40003" stroke-linecap="round" stroke-linejoin="round"/>
<path d="M205.204 161.732L203.742 200.255" stroke="#52ADFD" stroke-width="3.40003" stroke-linecap="round" stroke-linejoin="round"/>
<path d="M219.076 200.255L217.614 161.715" stroke="#52ADFD" stroke-width="3.40003" stroke-linecap="round" stroke-linejoin="round"/>
<path d="M206.954 115.441L211.238 1.99902H211.578L215.862 115.441" stroke="#52ADFD" stroke-width="3.40003" stroke-linecap="round" stroke-linejoin="round"/>
<path d="M211.392 280.071C233.634 280.071 251.665 262.04 251.665 239.797C251.665 217.555 233.634 199.524 211.392 199.524C189.149 199.524 171.118 217.555 171.118 239.797C171.118 262.04 189.149 280.071 211.392 280.071Z" stroke="#52ADFD" stroke-width="3.40003" stroke-linecap="round" stroke-linejoin="round"/>
<path d="M211.391 162.548C224.517 162.548 235.157 151.908 235.157 138.782C235.157 125.656 224.517 115.016 211.391 115.016C198.265 115.016 187.625 125.656 187.625 138.782C187.625 151.908 198.265 162.548 211.391 162.548Z" stroke="#078AFB" stroke-width="3.40003" stroke-linecap="round" stroke-linejoin="round"/>
<path d="M185.654 133.172H237.147" stroke="#078AFB" stroke-width="3.40003" stroke-linecap="round" stroke-linejoin="round"/>
<path d="M185.654 139.105H237.147" stroke="#078AFB" stroke-width="3.40003" stroke-linecap="round" stroke-linejoin="round"/>
<path d="M164.165 232.215H259.247" stroke="#52ADFD" stroke-width="3.40003" stroke-linecap="round" stroke-linejoin="round"/>
<path d="M164.165 241.123H259.247" stroke="#52ADFD" stroke-width="3.40003" stroke-linecap="round" stroke-linejoin="round"/>
<path d="M328.863 424.232H-4" stroke="#52ADFD" stroke-width="3.40003" stroke-linecap="round" stroke-linejoin="round"/>
<path d="M98.9188 221.947V221.93L98.8168 219.397L94.2097 100.77H93.8697L89.2627 219.125V219.397" stroke="#078AFB" stroke-width="3.40003" stroke-linecap="round" stroke-linejoin="round"/>
<path d="M86.6101 287.584L81.374 422.09" stroke="#078AFB" stroke-width="3.40003" stroke-linecap="round" stroke-linejoin="round"/>
<path d="M101.333 284.049L101.469 287.585L106.705 422.09" stroke="#078AFB" stroke-width="3.40003" stroke-linecap="round" stroke-linejoin="round"/>
<path d="M94.0232 288.383C113.167 288.383 128.686 272.864 128.686 253.72C128.686 234.576 113.167 219.057 94.0232 219.057C74.8792 219.057 59.3599 234.576 59.3599 253.72C59.3599 272.864 74.8792 288.383 94.0232 288.383Z" stroke="#52ADFD" stroke-width="3.40003" stroke-linecap="round" stroke-linejoin="round"/>
<path d="M87.6309 219.057C103.237 219.057 115.902 234.578 115.902 253.72C115.902 272.862 103.254 288.383 87.6309 288.383" stroke="#52ADFD" stroke-width="3.40003" stroke-linecap="round" stroke-linejoin="round"/>
<path d="M24.0477 49.2217H161.865C160.862 40.4042 153.381 33.5603 144.309 33.5603C143.179 33.5603 142.081 33.6717 140.999 33.8786C138.548 24.6792 130.16 17.9149 120.196 17.9149C109.183 17.9149 100.11 26.1753 98.8371 36.839C95.4948 34.8972 91.6431 33.7354 87.5367 33.5921C85.2289 22.4032 75.3132 13.9995 63.4399 13.9995C49.8476 13.9995 38.8337 25.0134 38.8337 38.6057C38.8337 38.7967 38.8337 38.9877 38.8337 39.1787C32.1967 39.3856 26.5306 43.4601 24 49.2217H24.0477Z" stroke="#52ADFD" stroke-width="3.4" stroke-linecap="round" stroke-linejoin="round"/>
</g>
</svg>
