<svg width="112" height="67" viewBox="0 0 112 67" fill="none" xmlns="http://www.w3.org/2000/svg">
<path d="M112 12.6067H105.039V43.2352H112V12.6067Z" fill="white"/>
<path d="M100.329 12.6067H93.3682V43.2352H100.329V12.6067Z" fill="white"/>
<path d="M88.6583 12.6067H81.6973V43.2352H88.6583V12.6067Z" fill="white"/>
<path d="M100.329 43.2352V36.2742L11.6708 36.2742V43.2352L100.329 43.2352Z" fill="white"/>
<path d="M14.5459 19.5675V12.6064H4.08627V19.5675H14.5459Z" fill="white"/>
<path d="M83.9668 19.5663V12.6053H73.5072V19.5663H83.9668Z" fill="white"/>
<path d="M76.9874 12.6064H70.0264V31.5641H76.9874V12.6064Z" fill="white"/>
<path d="M65.3165 12.6064H58.3555V43.2349H65.3165V12.6064Z" fill="white"/>
<path d="M53.6446 12.6064H46.6836V43.2349H53.6446V12.6064Z" fill="white"/>
<path d="M41.9737 12.6064H35.0127V43.2349H41.9737V12.6064Z" fill="white"/>
<path d="M30.3028 12.6064H23.3418V43.2349H30.3028V12.6064Z" fill="white"/>
<path d="M18.6319 12.6067H11.6709V43.2352H18.6319V12.6067Z" fill="white"/>
<path d="M6.96102 12.6067H0V43.2352H6.96102V12.6067Z" fill="white"/>
<path d="M18.5057 4.92255L13.5835 0.000366211L8.66131 4.92255L13.5835 9.84473L18.5057 4.92255Z" fill="white"/>
<path d="M9.96955 4.92218L5.04736 0L0.125181 4.92218L5.04736 9.84437L9.96955 4.92218Z" fill="white"/>
<path d="M31.7444 50.9412L26.8223 46.019L21.9001 50.9412L26.8223 55.8634L31.7444 50.9412Z" fill="white"/>
<path d="M18.8588 50.4078H0V51.5216H18.8588V50.4078Z" fill="#D3AC2B"/>
<path d="M112 50.4078H34.7715V51.5216H112V50.4078Z" fill="#D3AC2B"/>
<path d="M1.4035 64.1154L0.526415 66.0548H0.078125L3.16743 59.2413H3.60597L6.72451 66.0548H6.27622L5.38938 64.1154H1.4035ZM3.38182 59.7105L1.57892 63.7061H5.20422L3.38182 59.7105Z" fill="white"/>
<path d="M16.0119 65.6553V66.0548H12.5718V59.2414H12.9811V65.6553H16.0119Z" fill="white"/>
<path d="M27.0731 66.0548V62.8388H22.4635V66.0548H22.0542V59.2414H22.4635V62.4379H27.0731V59.2414H27.4824V66.0548H27.0731Z" fill="white"/>
<path d="M34.4209 66.0548V59.2414H34.8302V66.0548H34.4209Z" fill="white"/>
<path d="M45.5306 59.7774L45.3454 60.1477C44.8387 59.8164 44.1467 59.6507 43.562 59.6507C42.4803 59.6507 41.7786 60.099 41.7786 60.8104C41.7786 62.8862 45.784 61.8142 45.7645 64.3285C45.7645 65.381 44.8192 66.0632 43.3963 66.0632C42.49 66.0632 41.5642 65.6637 40.9697 65.0789L41.1841 64.7183C41.7396 65.2933 42.607 65.6442 43.4061 65.6442C44.5755 65.6442 45.3259 65.1374 45.3259 64.3383C45.3454 62.204 41.3401 63.2955 41.3401 60.8397C41.3401 59.8554 42.2366 59.2219 43.5815 59.2219C44.2734 59.2219 45.0238 59.4461 45.5306 59.7774Z" fill="white"/>
<path d="M54.9937 59.2414C56.3289 59.2414 57.1182 59.8651 57.1182 60.9273C57.1182 61.7654 56.6407 62.3404 55.8026 62.4964C56.8454 62.623 57.4593 63.2662 57.4593 64.2213C57.4593 65.381 56.5627 66.0534 55.0132 66.0534H52.2065V59.24H54.9937V59.2414ZM52.6159 62.3307H54.984C56.0755 62.3307 56.7089 61.8434 56.7089 60.9761C56.7089 60.1087 56.0755 59.6409 54.984 59.6409H52.6159V62.3307ZM52.6159 65.6539H54.984C56.2996 65.6539 57.05 65.1179 57.05 64.1726C57.05 63.2273 56.2996 62.7302 54.984 62.7302H52.6159V65.6539Z" fill="white"/>
<path d="M64.1056 64.1155L63.2286 66.0548H62.7803L65.8696 59.2414H66.3081L69.4267 66.0548H68.9784L68.0915 64.1155H64.1056ZM66.084 59.7106L64.2811 63.7062H67.9064L66.084 59.7106Z" fill="white"/>
<path d="M75.274 65.7723C75.274 65.977 75.1181 66.1329 74.9329 66.1329C74.7477 66.1329 74.6016 65.977 74.6016 65.7723C74.6016 65.5676 74.7477 65.4312 74.9329 65.4312C75.1181 65.4312 75.274 65.5774 75.274 65.7723Z" fill="white"/>
<path d="M86.7343 60.1477L86.4907 60.4595C85.9254 59.9333 85.1556 59.6214 84.3467 59.6214C82.6217 59.6214 81.2282 60.9663 81.2282 62.6328C81.2282 64.2992 82.6217 65.6636 84.3467 65.6636C85.1556 65.6636 85.9157 65.3518 86.4907 64.8352L86.7441 65.1179C86.1106 65.7026 85.2433 66.0632 84.3369 66.0632C82.3976 66.0632 80.8188 64.5331 80.8188 62.6425C80.8188 60.7519 82.3976 59.2316 84.3369 59.2316C85.253 59.2316 86.1009 59.5825 86.7343 60.1477Z" fill="white"/>
<path d="M99.1402 62.6439C99.1402 64.5345 97.5614 66.0646 95.6123 66.0646C93.6632 66.0646 92.0845 64.5345 92.0845 62.6439C92.0845 60.7533 93.6632 59.233 95.6123 59.233C97.5614 59.233 99.1402 60.7533 99.1402 62.6439ZM92.5035 62.6439C92.5035 64.3104 93.9069 65.665 95.6123 65.665C97.3178 65.665 98.7211 64.3104 98.7211 62.6439C98.7211 60.9775 97.3178 59.6326 95.6123 59.6326C93.9069 59.6326 92.5035 60.9775 92.5035 62.6439Z" fill="white"/>
<path d="M111.556 66.0548L111.546 59.8066L108.749 65.3128H108.564L105.748 59.8066V66.0548H105.358V59.2414H105.923L108.662 64.6014L111.381 59.2414H111.946V66.0548H111.556Z" fill="white"/>
</svg>
