<svg width="48" height="24" viewBox="0 0 48 24" fill="none" xmlns="http://www.w3.org/2000/svg">
<path d="M47.6805 5.47266H44.7148V18.4759H47.6805V5.47266Z" fill="#078AFB"/>
<path d="M42.658 5.47266H39.6924V18.4759H42.658V5.47266Z" fill="#078AFB"/>
<path d="M37.6434 5.47266H34.6777V18.4759H37.6434V5.47266Z" fill="#078AFB"/>
<path d="M42.6562 18.4774V15.5117L5.01516 15.5117V18.4774L42.6562 18.4774Z" fill="#078AFB"/>
<path d="M6.16309 8.43832V5.47266H1.82866V8.43832H6.16309Z" fill="#078AFB"/>
<path d="M35.8115 8.43832V5.47266H31.249V8.43832H35.8115Z" fill="#078AFB"/>
<path d="M32.8436 5.47266H29.8779V13.4571H32.8436V5.47266Z" fill="#078AFB"/>
<path d="M27.8348 5.47266H24.8691V18.4759H27.8348V5.47266Z" fill="#078AFB"/>
<path d="M22.826 5.47266H19.8604V18.4759H22.826V5.47266Z" fill="#078AFB"/>
<path d="M17.783 5.47266H14.8174V18.4759H17.783V5.47266Z" fill="#078AFB"/>
<path d="M13.0174 5.47266H10.0518V18.4759H13.0174V5.47266Z" fill="#078AFB"/>
<path d="M7.97445 5.47266H5.00879V18.4759H7.97445V5.47266Z" fill="#078AFB"/>
<path d="M2.96566 5.47266H0V18.4759H2.96566V5.47266Z" fill="#078AFB"/>
<path d="M7.88348 2.0954L5.78809 0L3.69269 2.0954L5.78809 4.19079L7.88348 2.0954Z" fill="#078AFB"/>
<path d="M4.24481 2.0954L2.14941 0L0.0540179 2.0954L2.14941 4.19079L4.24481 2.0954Z" fill="#078AFB"/>
<path d="M13.5173 21.6852L11.4219 19.5898L9.32648 21.6852L11.4219 23.7806L13.5173 21.6852Z" fill="#078AFB"/>
<path d="M7.98447 21.4414H0V21.8977H7.98447V21.4414Z" fill="#078AFB"/>
<path d="M47.6678 21.4414H14.8174V21.8977H47.6678V21.4414Z" fill="#078AFB"/>
</svg>
