<svg width="16" height="17" viewBox="0 0 16 17" fill="none" xmlns="http://www.w3.org/2000/svg">
<path opacity="0.7" d="M1 6.18232C1 3.73935 1 2.51787 1.75893 1.75893C2.51787 1 3.73935 1 6.18232 1H9.63719C12.0802 1 13.3016 1 14.0606 1.75893C14.8195 2.51787 14.8195 3.73935 14.8195 6.18232V12.0795C14.8195 14.3971 14.8195 15.5559 14.0903 15.9103C13.361 16.2647 12.4499 15.5488 10.6275 14.1169L10.0443 13.6587C9.01956 12.8536 8.50721 12.451 7.90976 12.451C7.3123 12.451 6.79995 12.8536 5.77526 13.6587L5.19203 14.1169C3.36965 15.5488 2.45847 16.2647 1.72923 15.9103C1 15.5559 1 14.3971 1 12.0795V6.18232Z" fill="#8897A4" stroke="#8897A4" stroke-width="2"/>
</svg>
