<svg width="21" height="18" viewBox="0 0 21 18" fill="none" xmlns="http://www.w3.org/2000/svg">
<path d="M11 14C11 14.7956 10.6839 15.5587 10.1213 16.1213C9.55867 16.6839 8.79565 17 8 17H4C3.20435 17 2.44127 16.6839 1.87866 16.1213C1.31605 15.5587 1 14.7956 1 14V4C1 3.20435 1.31605 2.4413 1.87866 1.87869C2.44127 1.31608 3.20435 1 4 1H8C8.79565 1 9.55867 1.31608 10.1213 1.87869C10.6839 2.4413 11 3.20435 11 4" stroke="#FF735C" stroke-width="2" stroke-linecap="round" stroke-linejoin="round"/>
<path d="M19.9962 9L14.9963 5V5.79001C14.9963 5.98258 14.9582 6.17325 14.8842 6.35104C14.8102 6.52883 14.7018 6.69022 14.5651 6.82593C14.4285 6.96163 14.2663 7.06897 14.088 7.14175C13.9097 7.21454 13.7188 7.25132 13.5262 7.25H9.15625C9.08995 7.25 9.02638 7.27636 8.97949 7.32324C8.93261 7.37013 8.90625 7.4337 8.90625 7.5V10.5C8.90883 10.5646 8.9363 10.6256 8.98291 10.6703C9.02952 10.7151 9.09164 10.7401 9.15625 10.74H13.5762C13.9661 10.74 14.34 10.8949 14.6157 11.1706C14.8914 11.4462 15.0463 11.8202 15.0463 12.21V13L19.9962 9Z" fill="#FF735C" stroke="#FF735C" stroke-width="2" stroke-linecap="round" stroke-linejoin="round"/>
</svg>
