<svg width="20" height="20" viewBox="0 0 20 20" fill="none" xmlns="http://www.w3.org/2000/svg">
<g opacity="0.7">
<path d="M4.44784 5.96942C4.76219 3.14032 7.15349 1 10 1C12.8465 1 15.2378 3.14032 15.5522 5.96942L15.804 8.23563C15.8072 8.26452 15.8088 8.27897 15.8104 8.29326C15.9394 9.41695 16.3051 10.5005 16.8836 11.4725C16.8909 11.4849 16.8984 11.4973 16.9133 11.5222L17.4914 12.4856C18.0159 13.3599 18.2782 13.797 18.2216 14.1559C18.1839 14.3946 18.061 14.6117 17.8757 14.7668C17.5971 15 17.0873 15 16.0678 15H3.93223C2.91268 15 2.40291 15 2.12434 14.7668C1.93897 14.6117 1.81609 14.3946 1.77841 14.1559C1.72179 13.797 1.98407 13.3599 2.50862 12.4856L3.08665 11.5222C3.10161 11.4973 3.10909 11.4849 3.11644 11.4725C3.69488 10.5005 4.06064 9.41695 4.18959 8.29326C4.19123 8.27897 4.19283 8.26452 4.19604 8.23563L4.44784 5.96942Z" fill="#8897A4" stroke="#8897A4" stroke-width="2"/>
<path d="M8.06815 18.6294C8.1821 18.7357 8.43319 18.8297 8.78248 18.8967C9.13177 18.9637 9.55973 19 10 19C10.4403 19 10.8682 18.9637 11.2175 18.8967C11.5668 18.8297 11.8179 18.7357 11.9319 18.6294" stroke="#8897A4" stroke-width="2" stroke-linecap="round"/>
</g>
</svg>
