<svg width="23" height="19" viewBox="0 0 23 19" fill="none" xmlns="http://www.w3.org/2000/svg">
<path d="M10.6329 13.688L7.18293 10.228C7.03412 10.0765 6.91238 9.90058 6.82294 9.70797C6.66319 9.30661 6.66319 8.85932 6.82294 8.45797C6.9097 8.26087 7.03169 8.0813 7.18293 7.928L10.6329 4.46798C11.3165 3.79945 12.1388 3.28947 13.0414 2.97414C13.9441 2.65882 14.905 2.54587 15.8561 2.64333C16.8073 2.74079 17.7254 3.04628 18.5454 3.53811C19.3653 4.02993 20.0671 4.69608 20.6009 5.48934C21.1347 6.2826 21.4875 7.18351 21.6343 8.12832C21.7811 9.07312 21.7183 10.0387 21.4504 10.9565C21.1824 11.8743 20.7159 12.722 20.0838 13.4395C19.4517 14.1569 18.6697 14.7265 17.7929 15.108C16.6022 15.6083 15.2881 15.7373 14.0229 15.478C12.7583 15.2274 11.5961 14.6081 10.6829 13.698L10.6329 13.688Z" fill="white" stroke="white" stroke-width="2" stroke-linecap="round" stroke-linejoin="round"/>
<path d="M2.17188 1V4.2" stroke="white" stroke-width="2" stroke-linecap="round" stroke-linejoin="round"/>
<path d="M2.17188 14.7305V17.9305" stroke="white" stroke-width="2" stroke-linecap="round" stroke-linejoin="round"/>
<path d="M2.17 10.5002C2.81617 10.5002 3.34 9.97633 3.34 9.33016C3.34 8.68398 2.81617 8.16016 2.17 8.16016C1.52383 8.16016 1 8.68398 1 9.33016C1 9.97633 1.52383 10.5002 2.17 10.5002Z" fill="white" stroke="white" stroke-width="2" stroke-linecap="round" stroke-linejoin="round"/>
<path d="M15.2812 6.26953V9.14953L17.4413 11.3095" stroke="#078AFB" stroke-width="2" stroke-linecap="round" stroke-linejoin="round"/>
</svg>
