<svg width="32" height="39" viewBox="0 0 32 39" fill="none" xmlns="http://www.w3.org/2000/svg">
<path opacity="0.2" d="M28.8168 13.8605C27.9669 13.8605 26.8412 13.8417 25.4397 13.8417C22.0217 13.8417 19.2112 11.0125 19.2112 7.56218V1.50853C19.2112 1.0323 18.8291 0.644531 18.3576 0.644531H8.40349C3.75725 0.644531 0 4.45818 0 9.13206V29.4144C0 34.3179 3.93617 38.2916 8.79115 38.2916H23.6151C28.2465 38.2916 32 34.5024 32 29.8248V14.7076C32 14.2295 31.6198 13.8436 31.1464 13.8455C30.3506 13.8511 29.3964 13.8605 28.8168 13.8605" fill="#078AFB"/>
<path opacity="0.2" d="M23.6909 1.71505C23.1281 1.12964 22.1455 1.53246 22.1455 2.34375V7.30752C22.1455 9.3894 23.8584 11.1023 25.9403 11.1023C27.2542 11.1174 29.0763 11.1212 30.6236 11.1174C31.4161 11.1155 31.8189 10.1687 31.2693 9.59646C29.2834 7.53152 25.7276 3.83081 23.6909 1.71505" fill="#078AFB"/>
<path d="M21.8348 20.8028C21.2851 20.2588 20.4004 20.255 19.8508 20.8066L16.8597 23.8127V14.7266C16.8597 13.9529 16.231 13.3242 15.4573 13.3242C14.6837 13.3242 14.055 13.9529 14.055 14.7266V23.8127L11.0621 20.8066C10.5143 20.255 9.6277 20.2588 9.07994 20.8028C8.53029 21.3487 8.53029 22.2353 9.07429 22.7849L14.4635 28.1986H14.4653C14.5933 28.3266 14.7458 28.4301 14.9171 28.5016C15.0865 28.5713 15.271 28.6089 15.4573 28.6089C15.6456 28.6089 15.8301 28.5713 15.9995 28.4997C16.167 28.4301 16.3195 28.3266 16.4475 28.2005L16.4512 28.1986L21.8385 22.7849C22.3844 22.2353 22.3844 21.3487 21.8348 20.8028" fill="#078AFB"/>
</svg>
