<svg width="15" height="18" viewBox="0 0 15 18" fill="none" xmlns="http://www.w3.org/2000/svg">
<path d="M7.5 9C9.98528 9 12 6.98528 12 4.5C12 2.01472 9.98528 0 7.5 0C5.01472 0 3 2.01472 3 4.5C3 6.98528 5.01472 9 7.5 9Z" fill="white"/>
<path d="M5.12797 10H9.87203C11.2321 10 12.5364 10.5766 13.4981 11.6031C14.4597 12.6295 15 14.0216 15 15.4732C15 16.1433 14.7506 16.786 14.3066 17.2599C13.8626 17.7338 13.2604 18 12.6325 18H2.36746C1.73957 18 1.1374 17.7338 0.693413 17.2599C0.249428 16.786 0 16.1433 0 15.4732C0 14.0216 0.540267 12.6295 1.50195 11.6031C2.46363 10.5766 3.76795 10 5.12797 10Z" fill="white"/>
</svg>
