<svg width="22" height="22" viewBox="0 0 22 22" fill="none" xmlns="http://www.w3.org/2000/svg">
<path d="M18.8301 13.9112V4.92135C18.8301 3.98909 18.4597 3.095 17.8005 2.4358C17.1413 1.77659 16.2472 1.40625 15.315 1.40625C14.6432 1.40704 13.9857 1.60027 13.4203 1.96315C12.855 2.32603 12.4055 2.84332 12.125 3.45376" stroke="#002245" stroke-width="1.5" stroke-linecap="round" stroke-linejoin="round"/>
<path d="M11.4292 7.94092L7.02977 3.54149L7.37156 3.19969C7.95496 2.61629 8.74621 2.28859 9.57126 2.28859C10.3963 2.28859 11.1876 2.61629 11.771 3.19969V3.19969C12.3544 3.78309 12.6821 4.57438 12.6821 5.39943C12.6821 6.22448 12.3544 7.01573 11.771 7.59912L11.4292 7.94092V7.94092Z" stroke="#002245" stroke-width="1.5" stroke-linecap="round" stroke-linejoin="round"/>
<path d="M6.20243 5.29883L4.79639 6.16881" stroke="#002245" stroke-width="1.5" stroke-linecap="round" stroke-linejoin="round"/>
<path d="M7.60822 7.36426L6.43945 8.52424" stroke="#002245" stroke-width="1.5" stroke-linecap="round" stroke-linejoin="round"/>
<path d="M9.63856 8.81396L8.86523 10.2727" stroke="#002245" stroke-width="1.5" stroke-linecap="round" stroke-linejoin="round"/>
<path d="M1 13.9106H20.5C20.5 14.7254 20.3395 15.5321 20.0277 16.2849C19.716 17.0376 19.259 17.7215 18.6828 18.2976C18.1067 18.8737 17.4228 19.3307 16.6701 19.6425C15.9174 19.9543 15.1106 20.1148 14.2959 20.1148H7.20415C5.5587 20.1148 3.98066 19.4611 2.81715 18.2976C1.65365 17.1341 1 15.5561 1 13.9106V13.9106Z" stroke="#002245" stroke-width="1.5" stroke-linecap="round" stroke-linejoin="round"/>
<path d="M16.5898 19.6758L17.5829 21.0906" stroke="#002245" stroke-width="1.5" stroke-linecap="round" stroke-linejoin="round"/>
<path d="M4.91098 19.6758L3.91797 21.0906" stroke="#002245" stroke-width="1.5" stroke-linecap="round" stroke-linejoin="round"/>
</svg>
