<svg width="23" height="21" viewBox="0 0 23 21" fill="none" xmlns="http://www.w3.org/2000/svg">
<path d="M2.36572 10.2426V3.79921C2.36572 3.05682 2.66062 2.34484 3.18557 1.81989C3.71052 1.29494 4.4225 1 5.16489 1H17.1766C17.9177 1.002 18.6277 1.29778 19.151 1.82252C19.6743 2.34725 19.9682 3.05813 19.9682 3.79921V10.2426" stroke="#002245" stroke-width="1.5" stroke-linecap="round" stroke-linejoin="round"/>
<path d="M5.30066 9.08057H17.0256C18.1662 9.08057 19.2601 9.53367 20.0666 10.3402C20.8731 11.1467 21.3262 12.2406 21.3262 13.3812V17.3574H1.00001V13.3888C0.999015 12.8234 1.10952 12.2633 1.32521 11.7407C1.54089 11.218 1.85752 10.743 2.25697 10.3429C2.65642 9.94271 3.13085 9.62525 3.65313 9.40865C4.1754 9.19205 4.73525 9.08057 5.30066 9.08057V9.08057Z" stroke="#002245" stroke-width="1.5" stroke-linecap="round" stroke-linejoin="round"/>
<path d="M18.2778 9.23906V7.63953C18.2778 7.40768 18.2321 7.17812 18.1434 6.96391C18.0547 6.74971 17.9246 6.55508 17.7607 6.39113C17.5967 6.22719 17.4021 6.09713 17.1879 6.0084C16.9737 5.91967 16.7441 5.87402 16.5123 5.87402H12.936C12.7041 5.87402 12.4745 5.91967 12.2603 6.0084C12.0461 6.09713 11.8515 6.22719 11.6875 6.39113C11.5236 6.55508 11.3935 6.74971 11.3048 6.96391C11.2161 7.17812 11.1704 7.40768 11.1704 7.63953V9.08065" stroke="#002245" stroke-width="1.5" stroke-linecap="round" stroke-linejoin="round"/>
<path d="M11.1706 9.08065V7.63953C11.1686 7.17059 10.9809 6.72156 10.6486 6.39067C10.3163 6.05978 9.86648 5.87402 9.39754 5.87402H5.82117C5.35292 5.87402 4.90387 6.06003 4.57277 6.39113C4.24167 6.72223 4.05566 7.17128 4.05566 7.63953V9.23906" stroke="#002245" stroke-width="1.5" stroke-linecap="round" stroke-linejoin="round"/>
<path d="M21.3262 14.8525H1" stroke="#002245" stroke-width="1.5" stroke-linecap="round" stroke-linejoin="round"/>
<path d="M18.7837 17.365V18.1648C18.7837 18.3322 18.8166 18.498 18.8807 18.6527C18.9448 18.8074 19.0387 18.948 19.1571 19.0664C19.2755 19.1848 19.4161 19.2787 19.5708 19.3428C19.7255 19.4069 19.8913 19.4399 20.0588 19.4399C20.2262 19.4399 20.3921 19.4069 20.5468 19.3428C20.7015 19.2787 20.842 19.1848 20.9604 19.0664C21.0788 18.948 21.1728 18.8074 21.2368 18.6527C21.3009 18.498 21.3339 18.3322 21.3339 18.1648V17.365" stroke="#002245" stroke-width="1.5" stroke-linecap="round" stroke-linejoin="round"/>
<path d="M1.03027 17.365V18.1648C1.03027 18.3322 1.06327 18.498 1.12735 18.6527C1.19143 18.8074 1.28534 18.948 1.40375 19.0664C1.52215 19.1848 1.66272 19.2787 1.81742 19.3428C1.97213 19.4069 2.13793 19.4399 2.30538 19.4399C2.47283 19.4399 2.63863 19.4069 2.79334 19.3428C2.94804 19.2787 3.08861 19.1848 3.20701 19.0664C3.32542 18.948 3.41933 18.8074 3.48341 18.6527C3.54749 18.498 3.58049 18.3322 3.58049 18.1648V17.365" stroke="#002245" stroke-width="1.5" stroke-linecap="round" stroke-linejoin="round"/>
</svg>
