<svg width="16" height="18" viewBox="0 0 16 18" fill="none" xmlns="http://www.w3.org/2000/svg">
<path d="M1 6.6259C1 4.146 1 2.90605 1.75893 2.13564C2.51787 1.36523 3.73935 1.36523 6.18232 1.36523H9.63719C12.0802 1.36523 13.3016 1.36523 14.0606 2.13564C14.8195 2.90605 14.8195 4.146 14.8195 6.6259V12.6122C14.8195 14.9648 14.8195 16.1412 14.0903 16.501C13.361 16.8607 12.4499 16.134 10.6275 14.6805L10.0443 14.2153C9.01956 13.398 8.50721 12.9894 7.90976 12.9894C7.3123 12.9894 6.79995 13.398 5.77526 14.2153L5.19203 14.6805C3.36965 16.134 2.45847 16.8607 1.72923 16.501C1 16.1412 1 14.9648 1 12.6122V6.6259Z" stroke="#078AFB" stroke-width="2"/>
</svg>
