<svg width="16" height="18" viewBox="0 0 16 18" fill="none" xmlns="http://www.w3.org/2000/svg">
<path d="M8.05854 9.47059C10.3976 9.47059 12.2938 7.57438 12.2938 5.23529C12.2938 2.89621 10.3976 1 8.05854 1C5.71945 1 3.82324 2.89621 3.82324 5.23529C3.82324 7.57438 5.71945 9.47059 8.05854 9.47059Z" stroke="#112347" stroke-width="1.5" stroke-linecap="round" stroke-linejoin="round"/>
<path d="M5.82633 9.47046H10.2913C11.5713 9.47046 12.7989 10.0132 13.704 10.9792C14.6092 11.9453 15.1176 13.2555 15.1176 14.6217V14.6217C15.1176 15.2524 14.8829 15.8573 14.465 16.3033C14.0472 16.7493 13.4804 16.9999 12.8895 16.9999H3.2282C2.63724 16.9999 2.07049 16.7493 1.65262 16.3033C1.23476 15.8573 1 15.2524 1 14.6217V14.6217C1 13.2555 1.50849 11.9453 2.4136 10.9792C3.31871 10.0132 4.5463 9.47046 5.82633 9.47046V9.47046Z" stroke="#112347" stroke-width="1.5" stroke-linecap="round" stroke-linejoin="round"/>
</svg>
