<svg width="66" height="66" viewBox="0 0 66 66" fill="none" xmlns="http://www.w3.org/2000/svg">
<circle r="33" transform="matrix(-1 0 0 1 33 33)" fill="white"/>
<path d="M41.5497 48.7538C45.3717 48.7538 48.4715 45.6539 48.4715 41.832C48.4715 38.01 45.3717 34.9102 41.5497 34.9102C37.7278 34.9102 34.6279 38.01 34.6279 41.832C34.6279 45.6539 37.7278 48.7538 41.5497 48.7538Z" stroke="#0789FA" stroke-width="2.81818" stroke-linecap="round" stroke-linejoin="round"/>
<path d="M46.6753 46.9766L50.691 50.9923" stroke="#0789FA" stroke-width="2.81818" stroke-linecap="round" stroke-linejoin="round"/>
<path d="M48.9824 32.3227C49.1938 30.7904 48.366 29.0996 46.499 28.6593C45.9882 28.536 45.5303 28.2894 45.1428 27.9548C44.7553 27.6201 44.4383 27.1974 44.2446 26.7219C44.0508 26.2463 43.9628 25.718 43.998 25.2072C44.0332 24.6964 44.1917 24.1857 44.4735 23.7453C46.27 20.804 42.8884 17.44 39.9471 19.2189C39.5068 19.4831 39.0136 19.6416 38.4852 19.6944C37.9568 19.7472 37.4461 19.6592 36.9705 19.4478C36.495 19.2541 36.0723 18.9371 35.7376 18.5496C35.403 18.1621 35.1564 17.6866 35.0331 17.1934C34.2229 13.847 29.4499 13.847 28.6397 17.1934C28.1113 19.3598 25.6279 20.3813 23.7434 19.2189C20.8021 17.4224 17.438 20.804 19.2169 23.7453C19.4811 24.1857 19.6396 24.6788 19.6925 25.2072C19.7277 25.718 19.6572 26.2463 19.4459 26.7219C19.2521 27.1974 18.9351 27.6201 18.5476 27.9548C18.1602 28.2894 17.6846 28.536 17.1915 28.6593C13.845 29.4695 13.845 34.2425 17.1915 35.0527C17.7022 35.176 18.1602 35.4226 18.5476 35.7572C18.9351 36.0918 19.2521 36.5146 19.4459 36.9901C19.6396 37.4656 19.7277 37.994 19.6925 38.5048C19.6572 39.0156 19.4987 39.5263 19.2169 39.9666C17.4204 42.908 20.8021 46.272 23.7434 44.4931C24.1837 44.2289 24.6769 44.0704 25.2052 44.0176C25.716 43.9823 26.2444 44.0528 26.7199 44.2641C27.1955 44.4579 27.6182 44.7749 27.9528 45.1624C28.2875 45.5499 28.534 46.0254 28.6573 46.5186C29.0624 48.1918 30.4538 49.0372 31.8452 49.0372" stroke="#0789FA" stroke-width="2.81818" stroke-linecap="round" stroke-linejoin="round"/>
<path d="M29.485 37.096C28.622 36.7262 27.8646 36.1273 27.301 35.37C26.3676 34.1723 25.9625 32.6576 26.1562 31.1429C26.3499 29.6282 27.1249 28.2897 28.3402 27.3562C29.5555 26.4227 31.0701 26.0176 32.5672 26.2114C34.0643 26.4051 35.4205 27.1801 36.354 28.3954C36.7943 28.959 37.1289 29.593 37.305 30.2799" stroke="#0789FA" stroke-width="2.81818" stroke-linecap="round" stroke-linejoin="round"/>
</svg>
