<svg width="15" height="14" viewBox="0 0 15 14" fill="none" xmlns="http://www.w3.org/2000/svg">
<path d="M3.90974 4.32787H10.1318C10.2932 4.32787 10.4479 4.26378 10.562 4.14968C10.6761 4.03558 10.7402 3.88082 10.7402 3.71946V2.16597C10.7402 1.88154 10.6842 1.59988 10.5754 1.33709C10.4665 1.0743 10.307 0.83553 10.1058 0.634402C9.9047 0.433274 9.66592 0.273732 9.40314 0.164882C9.14035 0.0560324 8.8587 3.81224e-06 8.57426 3.81224e-06H5.4673C5.18271 -0.000530627 4.90081 0.0551324 4.63778 0.163793C4.37475 0.272453 4.13576 0.431979 3.93452 0.633213C3.73329 0.834448 3.57378 1.07343 3.46512 1.33646C3.35646 1.59949 3.30079 1.88139 3.30133 2.16597V3.71946C3.30133 3.88082 3.36542 4.03558 3.47952 4.14968C3.59362 4.26378 3.74838 4.32787 3.90974 4.32787ZM9.5234 3.11104H4.51816V2.16597C4.51706 2.04128 4.5413 1.91765 4.58941 1.80261C4.63752 1.68757 4.70849 1.5835 4.79803 1.49671C4.88538 1.40791 4.98955 1.33744 5.10447 1.28938C5.21938 1.24133 5.34274 1.21666 5.4673 1.21684H8.57426C8.82533 1.21895 9.06552 1.31964 9.24306 1.49718C9.4206 1.67472 9.52128 1.91491 9.5234 2.16597V3.11104Z" fill="#8996A2"/>
<path d="M0.0184078 4.45975V8.19543C2.23663 9.05604 4.59532 9.49751 6.97464 9.49744H6.99491C9.38774 9.50113 11.7604 9.05961 13.9917 8.19543V4.45975C13.9922 4.25559 13.9524 4.05334 13.8745 3.86462C13.7967 3.67591 13.6822 3.50444 13.5379 3.36008C13.3935 3.21571 13.2221 3.1013 13.0333 3.02342C12.8446 2.94554 12.6424 2.90573 12.4382 2.90626H1.55569C1.35151 2.90541 1.14919 2.94513 0.960492 3.02311C0.771793 3.1011 0.600471 3.21579 0.456474 3.36055C0.171916 3.6553 0.0145817 4.05007 0.0184078 4.45975Z" fill="#8996A2"/>
<path d="M6.97829 10.3116C4.59723 10.3149 2.23469 9.8932 0.00178242 9.06641V12.2383C0.00285625 12.6507 0.167426 13.0458 0.459407 13.337C0.751387 13.6282 1.14695 13.7918 1.55934 13.7918H12.4621C12.6663 13.7923 12.8686 13.7525 13.0573 13.6746C13.246 13.5967 13.4174 13.4823 13.5618 13.338C13.7062 13.1936 13.8206 13.0221 13.8985 12.8334C13.9764 12.6447 14.0162 12.4424 14.0156 12.2383V9.06641C11.776 9.89423 9.40659 10.3159 7.01884 10.3116H6.97829Z" fill="#8996A2"/>
<path d="M7.00909 8.18168C7.17083 8.18168 7.326 8.11771 7.44075 8.00373C7.55549 7.88974 7.6205 7.73499 7.62157 7.57326C7.6221 7.49355 7.60687 7.41453 7.57673 7.34073C7.5466 7.26694 7.50217 7.19984 7.446 7.14329C7.38982 7.08674 7.32302 7.04186 7.24943 7.01124C7.17584 6.98061 7.0969 6.96484 7.01719 6.96484C6.85583 6.96484 6.70109 7.02894 6.58699 7.14304C6.47289 7.25714 6.40877 7.4119 6.40877 7.57326C6.40877 7.73462 6.47289 7.88938 6.58699 8.00348C6.70109 8.11758 6.85583 8.18168 7.01719 8.18168H7.00909Z" fill="white"/>
</svg>
