<svg width="20" height="25" viewBox="0 0 20 25" fill="none" xmlns="http://www.w3.org/2000/svg">
<g opacity="0.7">
<path d="M1 7.96875C1 5.13875 1 3.72875 1.88 2.84875C2.76 1.96875 4.18 1.96875 7 1.96875H9C11.83 1.96875 13.25 1.96875 14.13 2.84875C15.01 3.72875 15 5.13875 15 7.96875V13.9688C15 16.7987 15 18.2087 14.13 19.0887C13.26 19.9687 11.83 19.9688 9 19.9688H7C4.18 19.9688 2.76 19.9687 1.88 19.0887C1 18.2087 1 16.7987 1 13.9688V7.96875Z" fill="#8897A4" stroke="#8897A4" stroke-width="2" stroke-linecap="round"/>
<path opacity="0.5" d="M14.9497 5.28769C15.8757 5.23254 16.7878 5.53297 17.4998 6.12766C18.3798 7.00766 18.3798 8.41772 18.3798 11.2477V17.2477C18.3798 20.0777 18.3798 21.4877 17.4998 22.3677C16.6198 23.2477 15.2098 23.2477 12.3798 23.2477H10.3798C7.54976 23.2477 6.13976 23.2477 5.25976 22.3677C4.70138 21.7071 4.40898 20.8622 4.4397 19.9977" stroke="#8897A4" stroke-width="2" stroke-linecap="round"/>
<path d="M5 10.9688H11" stroke="white" stroke-width="2" stroke-linecap="round"/>
<path d="M7 6.96875H11" stroke="white" stroke-width="2" stroke-linecap="round"/>
<path d="M7 14.9688H11" stroke="white" stroke-width="2" stroke-linecap="round"/>
</g>
</svg>
