<svg width="109" height="107" viewBox="0 0 109 107" fill="none" xmlns="http://www.w3.org/2000/svg">
<path d="M23.1167 67.4396V104.117C23.1167 104.649 22.9045 105.159 22.5269 105.535C22.1493 105.911 21.6372 106.122 21.1032 106.122H16.5179C15.9839 106.122 15.4718 105.911 15.0942 105.535C14.7166 105.159 14.5044 104.649 14.5044 104.117V67.4396C17.3493 68.091 20.3056 68.091 23.1505 67.4396H23.1167Z" fill="#B5DBFE"/>
<path d="M49.106 46.801V103.595C49.106 104.265 49.3733 104.908 49.8493 105.382C50.3253 105.856 50.9708 106.122 51.6439 106.122H57.4644C58.1375 106.122 58.7831 105.856 59.2591 105.382C59.735 104.908 60.0024 104.265 60.0024 103.595V46.801H49.106Z" fill="#52ADFD"/>
<path d="M94.8235 74.4315L95.0772 103.982C95.0772 104.263 95.0216 104.542 94.9136 104.801C94.8056 105.061 94.6474 105.297 94.4479 105.495C94.2483 105.694 94.0114 105.852 93.7507 105.959C93.49 106.067 93.2105 106.122 92.9283 106.122H87.9539C87.6717 106.122 87.3923 106.067 87.1316 105.959C86.8709 105.852 86.634 105.694 86.4344 105.495C86.2349 105.297 86.0767 105.061 85.9687 104.801C85.8607 104.542 85.8051 104.263 85.8051 103.982L85.5513 74.4315C88.5998 75.1504 91.7749 75.1504 94.8235 74.4315Z" fill="#B5DBFE"/>
<path d="M54.5542 53.2704C69.2439 53.2704 81.1523 41.4128 81.1523 26.7858C81.1523 12.1587 69.2439 0.301147 54.5542 0.301147C39.8644 0.301147 27.9561 12.1587 27.9561 26.7858C27.9561 41.4128 39.8644 53.2704 54.5542 53.2704Z" fill="#078AFB"/>
<path d="M54.756 13.6445C55.0344 13.6532 55.2988 13.7683 55.4941 13.966C55.6895 14.1636 55.8008 14.4286 55.805 14.7059V15.7842C57.8126 15.9818 59.7326 16.7024 61.3717 17.8733C61.5618 17.9857 61.7213 18.1428 61.8363 18.3307C61.9514 18.5187 62.0184 18.7318 62.0316 18.9516C62.0295 19.1116 61.9952 19.2695 61.9306 19.4161C61.8661 19.5627 61.7727 19.6948 61.6559 19.8048C61.5392 19.9148 61.4014 20.0003 61.2509 20.0563C61.1004 20.1123 60.94 20.1377 60.7795 20.1309C60.5189 20.1435 60.2619 20.0661 60.0519 19.9119C58.7838 18.9275 57.2893 18.2731 55.7035 18.0081V26.095C60.7795 27.207 62.8099 29.1445 62.8099 32.4466C62.8099 35.7488 59.9165 38.377 55.805 38.6466V40.9716C55.805 41.2486 55.6945 41.5143 55.4978 41.7102C55.301 41.9061 55.0342 42.0161 54.756 42.0161C54.4777 42.0161 54.211 41.9061 54.0143 41.7102C53.8175 41.5143 53.7069 41.2486 53.7069 40.9716V38.5792C51.0871 38.3428 48.5994 37.3272 46.5668 35.6645C46.3418 35.5241 46.1691 35.3144 46.0749 35.0672C45.9807 34.8201 45.9701 34.5491 46.0448 34.2954C46.1195 34.0418 46.2754 33.8193 46.4887 33.662C46.702 33.5046 46.9612 33.421 47.2267 33.4238C47.4991 33.4231 47.7629 33.5186 47.9712 33.6933C49.5869 35.1734 51.6288 36.1105 53.8085 36.3721V28.1504C48.9355 27.0048 46.7867 25.2189 46.7867 21.7652C46.7867 18.3114 49.6631 15.9021 53.7069 15.7168V14.7059C53.7112 14.4286 53.8225 14.1636 54.0179 13.966C54.2133 13.7683 54.4776 13.6532 54.756 13.6445ZM53.8085 25.6401V17.8565C50.9997 17.9912 49.3247 19.5412 49.3247 21.563C49.3247 23.5847 50.2215 24.6292 53.7408 25.5896L53.8085 25.6401ZM55.7035 28.5885V36.4732C58.5291 36.3216 60.2888 34.7884 60.2888 32.6151C60.2888 30.4417 59.2905 29.4477 55.7035 28.5379V28.5885Z" fill="white"/>
<path d="M90.3055 88.0105C100.491 88.0105 108.748 79.7887 108.748 69.6465C108.748 59.5043 100.491 51.2825 90.3055 51.2825C80.1199 51.2825 71.8628 59.5043 71.8628 69.6465C71.8628 79.7887 80.1199 88.0105 90.3055 88.0105Z" fill="#52ADFD"/>
<path d="M97.5633 64.9625L88.1559 74.3298L83.4521 69.6462" stroke="white" stroke-width="1.79479" stroke-linecap="round" stroke-linejoin="round"/>
<path d="M18.7846 77.7162C28.6992 77.7162 36.7366 69.7131 36.7366 59.8408C36.7366 49.9684 28.6992 41.9653 18.7846 41.9653C8.86993 41.9653 0.83252 49.9684 0.83252 59.8408C0.83252 69.7131 8.86993 77.7162 18.7846 77.7162Z" fill="#34E0A2"/>
<path d="M25.9592 55.275L16.8055 64.3896L12.2202 59.8408" stroke="white" stroke-width="1.79479" stroke-linecap="round" stroke-linejoin="round"/>
</svg>
