<svg width="17" height="12" viewBox="0 0 17 12" fill="none" xmlns="http://www.w3.org/2000/svg">
<path d="M11.0644 0.317682C10.6876 -0.0860689 10.0548 -0.107889 9.65102 0.268945C9.24726 0.645779 9.22544 1.27857 9.60228 1.68232L11.0644 0.317682ZM15 6L15.7311 6.68232L16.3679 6L15.7311 5.31768L15 6ZM9.60228 10.3177C9.22544 10.7214 9.24726 11.3542 9.65102 11.7311C10.0548 12.1079 10.6876 12.0861 11.0644 11.6823L9.60228 10.3177ZM1 5C0.447715 5 0 5.44772 0 6C0 6.55228 0.447715 7 1 7V5ZM9.60228 1.68232L14.2689 6.68232L15.7311 5.31768L11.0644 0.317682L9.60228 1.68232ZM14.2689 5.31768L9.60228 10.3177L11.0644 11.6823L15.7311 6.68232L14.2689 5.31768ZM15 5H1V7H15V5Z" fill="#112347" fill-opacity="0.3"/>
</svg>
