<svg width="23" height="26" viewBox="0 0 23 26" fill="none" xmlns="http://www.w3.org/2000/svg">
<path d="M12.2854 24.3023L12.736 25.1951H12.736L12.2854 24.3023ZM11.4862 24.3023L11.9368 23.4096L11.4862 24.3023ZM20.9943 11.4991C20.9943 14.8547 19.2342 17.5775 17.1428 19.6284C15.054 21.6767 12.7285 22.9586 11.8349 23.4096L12.736 25.1951C13.7172 24.6999 16.2463 23.3087 18.5431 21.0563C20.8375 18.8064 22.9943 15.6008 22.9943 11.4991H20.9943ZM11.8858 2.39062C16.9163 2.39062 20.9943 6.46864 20.9943 11.4991H22.9943C22.9943 5.36407 18.0209 0.390625 11.8858 0.390625V2.39062ZM2.77734 11.4991C2.77734 6.46864 6.85536 2.39062 11.8858 2.39062V0.390625C5.75079 0.390625 0.777344 5.36407 0.777344 11.4991H2.77734ZM11.9368 23.4096C11.0431 22.9586 8.71769 21.6767 6.62885 19.6284C4.53749 17.5775 2.77734 14.8547 2.77734 11.4991H0.777344C0.777344 15.6008 2.93419 18.8064 5.22854 21.0563C7.52543 23.3087 10.0544 24.6999 11.0357 25.1951L11.9368 23.4096ZM11.8349 23.4096C11.8458 23.4041 11.8637 23.3986 11.8858 23.3986C11.908 23.3986 11.9259 23.4041 11.9368 23.4096L11.0357 25.1951C11.5733 25.4664 12.1983 25.4664 12.736 25.1951L11.8349 23.4096ZM15.2181 11.4924C15.2181 13.3327 13.7263 14.8246 11.8859 14.8246V16.8246C14.8308 16.8246 17.2181 14.4373 17.2181 11.4924H15.2181ZM11.8859 8.16016C13.7263 8.16016 15.2181 9.65204 15.2181 11.4924H17.2181C17.2181 8.54747 14.8308 6.16016 11.8859 6.16016V8.16016ZM8.55371 11.4924C8.55371 9.65204 10.0456 8.16016 11.8859 8.16016V6.16016C8.94102 6.16016 6.55371 8.54747 6.55371 11.4924H8.55371ZM11.8859 14.8246C10.0456 14.8246 8.55371 13.3327 8.55371 11.4924H6.55371C6.55371 14.4373 8.94102 16.8246 11.8859 16.8246V14.8246Z" fill="#078AFB"/>
</svg>
