<svg width="168" height="74" viewBox="0 0 168 74" fill="none" xmlns="http://www.w3.org/2000/svg">
<path d="M147.568 35.4832H149.715V33.7222H147.568V35.4832ZM121.922 39.0159H125.277C125.539 39.0208 125.798 38.9619 126.032 38.8444C126.266 38.7269 126.468 38.5543 126.62 38.3415L125.965 37.7367C125.895 37.8078 125.811 37.8644 125.719 37.903C125.627 37.9416 125.528 37.9615 125.428 37.9615H124.037V37.2014C124.027 37.0007 124.065 36.8004 124.15 36.618C124.198 36.5191 124.275 36.4374 124.371 36.3838C124.467 36.3302 124.577 36.3073 124.687 36.3182C124.833 36.3144 124.975 36.3607 125.091 36.4494C125.206 36.5382 125.287 36.6638 125.32 36.8053H126.324C126.185 35.7348 125.702 35.3226 124.687 35.3012C123.506 35.3012 123.076 36.1737 123.076 37.2014V37.9615H122.303L121.922 39.0159ZM39.9871 40.5682H42.1345V38.7911H39.9871V40.5682ZM91.0421 43.0251C90.7956 43.0281 90.5509 42.9813 90.323 42.8875C90.0951 42.7936 89.8886 42.6547 89.716 42.4791C89.5435 42.3036 89.4083 42.0949 89.3188 41.8659C89.2293 41.6368 89.1873 41.392 89.1953 41.1463C89.1867 40.6484 89.3761 40.1673 89.7222 39.8082C90.0682 39.4492 90.5428 39.2413 91.0421 39.23H92.7493V43.0251H91.0421ZM67.4204 43.9136C67.6984 44.3024 68.0694 44.6158 68.4997 44.8252C68.9301 45.0346 69.4062 45.1334 69.8846 45.1126H81.2498C84.165 45.1126 84.3529 42.6664 84.369 41.6334V37.378H82.2216V41.7833C82.2304 41.9506 82.206 42.1181 82.1498 42.2761C82.0936 42.4341 82.0067 42.5795 81.8941 42.7039C81.7763 42.8149 81.6369 42.9007 81.4845 42.956C81.3322 43.0112 81.1701 43.0347 81.0083 43.0251H69.7343C69.4772 43.0365 69.2205 42.9949 68.9803 42.9028C68.7401 42.8106 68.5216 42.6701 68.3385 42.4898C68.1619 42.3053 68.0235 42.0879 67.9314 41.85C67.8393 41.6121 67.7952 41.3584 67.8016 41.1035V37.9293H65.6542V41.4086C65.6728 41.631 65.6447 41.855 65.5717 42.066C65.4987 42.2771 65.3823 42.4706 65.23 42.6343C64.8975 42.9108 64.47 43.0471 64.0382 43.0144H52.8716C52.7111 43.0225 52.5507 42.9977 52.4002 42.9415C52.2496 42.8853 52.1123 42.799 51.9965 42.6879C51.7723 42.437 51.6565 42.1081 51.6744 41.7726V33.7222H49.5646V41.6494C49.5646 42.6825 49.7525 45.1287 52.673 45.1287H64.7791C65.2422 45.1509 65.7032 45.0531 66.1172 44.8448C66.5312 44.6366 66.884 44.325 67.1413 43.9404L67.2647 43.7263L67.4204 43.9136ZM117.192 41.3336C117.192 41.4353 117.192 41.5263 117.192 41.612C117.293 42.5735 117.748 43.4636 118.469 44.1101C119.19 44.7567 120.126 45.1139 121.095 45.1126H128.466C128.943 45.1506 129.422 45.0691 129.858 44.8756C130.295 44.682 130.677 44.3826 130.968 44.0046L131.092 43.828L131.226 43.9993C131.513 44.3646 131.883 44.6563 132.306 44.85C132.729 45.0437 133.193 45.1337 133.658 45.1126H146.655C147.118 45.1348 147.579 45.037 147.993 44.8288C148.407 44.6205 148.76 44.3089 149.017 43.9243L149.146 43.7102L149.291 43.9136C149.569 44.3024 149.94 44.6158 150.37 44.8252C150.801 45.0346 151.277 45.1334 151.755 45.1126H164.715C167.635 45.1126 167.823 42.6664 167.839 41.6334V37.3834H165.692V41.7833C165.701 41.9506 165.676 42.1181 165.62 42.2761C165.564 42.4341 165.477 42.5795 165.365 42.7039C165.246 42.8144 165.107 42.8999 164.955 42.9551C164.802 43.0103 164.64 43.0341 164.479 43.0251H151.653C151.396 43.0365 151.139 42.9949 150.899 42.9028C150.659 42.8106 150.441 42.6701 150.257 42.4898C150.081 42.3053 149.942 42.0879 149.85 41.85C149.758 41.6121 149.714 41.3584 149.721 41.1035V37.9293H147.573V41.4086C147.592 41.631 147.564 41.855 147.491 42.066C147.418 42.2771 147.301 42.4706 147.149 42.6343C146.819 42.9109 146.393 43.0474 145.963 43.0144H133.507C133.249 43.0269 132.992 42.9858 132.75 42.8936C132.509 42.8015 132.29 42.6603 132.106 42.4791C131.762 42.1011 131.581 41.603 131.602 41.0928V33.7222H129.454V41.7993C129.472 42.1348 129.356 42.4638 129.132 42.7146C129.017 42.8281 128.879 42.9159 128.727 42.9722C128.575 43.0285 128.413 43.052 128.252 43.0411H121.052C120.644 43.0446 120.247 42.9106 119.924 42.661C119.602 42.4114 119.373 42.0607 119.275 41.6655C119.254 41.5489 119.243 41.4307 119.243 41.3122C119.251 40.8997 119.37 40.4969 119.587 40.1453C119.361 39.9526 118.798 39.4656 118.062 38.8018C117.521 39.5419 117.227 40.4336 117.225 41.3497L117.192 41.3336ZM90.6663 48.2225H90.8488C92.5292 48.2225 94.5585 47.5106 94.8592 45.2678V45.1287H107.996C110.911 45.1287 111.104 42.6825 111.121 41.6494V37.3994H108.973V41.7993C108.989 42.1381 108.869 42.4692 108.64 42.72C108.523 42.8313 108.383 42.9172 108.231 42.9725C108.078 43.0277 107.916 43.0511 107.754 43.0411H94.8699V37.3834H91.1119C88.5726 37.3834 86.9996 38.9892 86.9942 41.1302C86.9946 41.6628 87.1025 42.1899 87.3113 42.68C87.5202 43.1702 87.8258 43.6135 88.2099 43.9835C88.5941 44.3536 89.049 44.6428 89.5475 44.834C90.046 45.0252 90.5781 45.1145 91.1119 45.0965H92.7225L92.6205 45.3214C92.1373 46.4187 90.7898 46.3919 90.3603 46.3919H90.3174C89.8641 46.388 89.4131 46.3268 88.9752 46.2099L89.5121 47.9977C89.8869 48.0908 90.2698 48.1482 90.6556 48.169L90.6663 48.2225ZM35.1929 42.2864C35.1701 43.0479 35.2989 43.8064 35.5718 44.518C35.8447 45.2296 36.2565 45.8802 36.7831 46.4322C37.3098 46.9842 37.941 47.4266 38.6402 47.7339C39.3394 48.0412 40.0928 48.2073 40.8568 48.2225C44.1155 48.2225 46.6387 45.9369 46.6495 42.3346V37.3941H44.5396V42.2436C44.5612 42.7409 44.4823 43.2375 44.3074 43.7037C44.1325 44.17 43.8652 44.5964 43.5216 44.9575C43.1779 45.3186 42.7649 45.6071 42.3071 45.8057C41.8493 46.0043 41.356 46.109 40.8568 46.1135C38.9939 46.1135 37.2545 44.3418 37.2491 42.2971C37.2434 41.4075 37.3998 40.5242 37.7108 39.6904H35.5312C35.2677 40.5331 35.1532 41.4152 35.1929 42.2971V42.2864ZM64.2744 46.4775H62.127V48.2332H64.2744V46.4775ZM67.866 46.4775H65.7186V48.2332H67.866V46.4775ZM83.859 46.4775H81.7115V48.2332H83.859V46.4775ZM110.6 46.4775H108.452V48.2332H110.6V46.4775ZM167.34 46.4775H165.193V48.2332H167.34V46.4775Z" fill="#4F4E51"/>
<path d="M81.8615 18.199C76.7506 9.49561 68.6924 4.94585 59.7161 4.94585C58.7854 4.94369 57.8553 4.99193 56.9299 5.09037C56.7965 5.1323 56.6847 5.22449 56.6185 5.3473C56.5771 5.43813 56.5551 5.53658 56.554 5.63634C56.5528 5.74854 56.5841 5.85871 56.6441 5.95365C56.7041 6.04859 56.7902 6.12426 56.8923 6.17161L57.0641 6.21443C61.0636 7.2582 63.8607 9.84887 66.5342 14.7787C66.7044 15.0965 66.9426 15.373 67.2321 15.5886C67.5217 15.8041 67.8553 15.9534 68.2092 16.0258L80.8629 19.7192C80.9434 19.7498 81.0291 19.7644 81.1152 19.762C81.3669 19.7482 81.6028 19.6358 81.7717 19.4493C81.9406 19.2628 82.0289 19.0174 82.0172 18.7664C82.0194 18.5665 81.9655 18.3699 81.8615 18.199ZM63.4312 2.26417C63.968 2.26417 64.1613 1.59509 63.6513 1.47198C59.5803 0.499502 55.4092 0.00548032 51.2231 0C30.1783 0 10.3361 12.3379 0.47404 32.223C-0.486933 34.1499 -0.00912087 36.1358 2.11146 36.9012L13.4874 40.9638C14.3276 41.2816 15.2584 41.2629 16.085 40.9116C16.9116 40.5604 17.5698 39.904 17.9219 39.0797C27.3544 15.2497 43.8145 1.61115 63.4419 2.24811" fill="#EB2629"/>
<path d="M75.7314 59.949C75.0959 59.9382 74.4728 60.1253 73.949 60.4843V66.2116C73.949 66.324 73.949 66.5381 73.949 66.5381C74.4543 66.7057 74.9842 66.7872 75.5166 66.779C77.5406 66.779 78.4747 65.1732 78.4747 63.3051C78.4747 61.5923 77.6909 59.9651 75.7528 59.9651L75.7314 59.949ZM75.3878 69.0485C73.9715 69.0317 72.5669 68.7896 71.2271 68.3313C71.2271 68.3313 71.3399 67.4641 71.3399 67.0306V52.8621H73.949V58.2897C74.703 57.9037 75.5388 57.7036 76.3863 57.7063C79.7148 57.7063 81.3684 60.2648 81.3684 63.364C81.3684 66.7094 78.6841 69.0271 75.3878 69.0271V69.0485ZM64.0708 69.0271C61.4134 69.0271 59.325 68.16 59.325 65.1679V57.9418H61.9395V64.7664C61.9395 66.0885 62.8092 66.7629 64.087 66.7629C64.8418 66.7338 65.5854 66.5707 66.2827 66.2812C66.2606 66.1304 66.2463 65.9785 66.2397 65.8262V57.9418H68.8542V66.4257C68.8771 66.9348 68.9273 67.4422 69.0046 67.9459C67.4272 68.5671 65.7591 68.9287 64.0655 69.0164L64.0708 69.0271ZM52.1258 59.949C50.1877 59.949 49.5543 61.7261 49.5543 63.3801C49.5543 65.034 50.1877 66.7843 52.1258 66.7843C54.0638 66.7843 54.692 65.0233 54.692 63.3801C54.692 61.7368 54.0585 59.949 52.1258 59.949ZM52.1258 69.0164C48.7973 69.0164 46.6606 66.5863 46.6606 63.3533C46.6606 60.1203 48.808 57.6955 52.1258 57.6955C55.4436 57.6955 57.5856 60.0989 57.5856 63.3533C57.5856 66.6077 55.4382 69.0164 52.1258 69.0164ZM39.4506 62.3256H38.0548V66.5114C38.4574 66.5798 38.865 66.6156 39.2735 66.6184C40.7122 66.6184 42.5805 66.2919 42.5805 64.4774C42.5805 62.5932 40.9699 62.3095 39.4506 62.3095V62.3256ZM39.252 56.0362C38.8505 56.0418 38.4502 56.0793 38.0548 56.1486V59.9651H39.3808C40.7337 59.9651 42.0651 59.5529 42.0651 57.9685C42.0651 56.2343 40.6478 56.0362 39.2573 56.0362H39.252ZM39.0909 69.0485C37.8285 69.0392 36.57 68.9084 35.3329 68.6578V54.1467C36.5795 53.8816 37.8487 53.7364 39.1231 53.7132C41.9524 53.7132 44.846 54.5375 44.846 57.899C44.8315 58.5924 44.6131 59.2663 44.218 59.8372C43.8229 60.4081 43.2685 60.8509 42.6234 61.1105V61.1534C43.4321 61.3248 44.1536 61.7765 44.6598 62.4282C45.166 63.0799 45.4241 63.8894 45.3882 64.7129C45.3882 68.267 41.9953 69.0485 39.0802 69.0485" fill="#4F4E51"/>
<path d="M89.3347 69.4396C88.6368 71.3719 87.2463 73.5183 85.115 74L83.7406 72.1105C84.5215 71.8715 85.2373 71.458 85.8337 70.9014C86.43 70.3449 86.8911 69.66 87.1819 68.8989C86.894 68.787 86.635 68.6121 86.424 68.3869C86.2131 68.1618 86.0556 67.8922 85.9632 67.5982L81.8939 57.9206H84.8305L87.9389 66.1637L90.7037 57.9206H93.4685L89.3347 69.4396Z" fill="#4F4E51"/>
<path d="M152.878 68.792V61.9781C152.878 60.656 152.002 59.9815 150.73 59.9815C149.976 60.0121 149.233 60.1733 148.534 60.4579C148.534 60.4579 148.577 60.763 148.577 60.9129V68.792H145.968V60.3081C145.944 59.7989 145.892 59.2914 145.812 58.7879C147.39 58.1667 149.058 57.8051 150.752 57.7174C153.436 57.7174 155.497 58.5845 155.497 61.5766V68.8027L152.878 68.792ZM140.82 66.1424V63.4661C139.929 64.3118 136.949 63.9639 136.949 65.5269C136.949 66.651 138.023 66.849 138.973 66.849C139.615 66.8461 140.253 66.7432 140.863 66.5439C140.84 66.4075 140.826 66.2699 140.82 66.1317V66.1424ZM138.946 69.0489C136.858 69.0489 134.071 68.2889 134.071 65.7517C134.071 61.3732 140.82 62.8666 140.82 60.9771C140.82 60.0672 139.644 59.9815 138.989 59.9815C137.949 60.0039 136.923 60.2257 135.967 60.6346L135.075 58.6594C136.427 58.057 137.89 57.7399 139.37 57.7281C141.7 57.7281 143.44 58.7451 143.44 61.2608V66.8383C143.464 67.296 143.516 67.7517 143.595 68.2032C142.099 68.7113 140.536 68.9963 138.957 69.0489H138.946ZM126.84 62.3474H125.444V66.5332C125.847 66.6016 126.254 66.6374 126.663 66.6402C128.102 66.6402 129.975 66.3137 129.975 64.4992C129.975 62.615 128.365 62.3314 126.84 62.3314V62.3474ZM126.641 56.0581C126.24 56.0636 125.84 56.1012 125.444 56.1705V59.9869H126.776C128.123 59.9869 129.46 59.5747 129.46 57.9904C129.46 56.2561 128.048 56.0581 126.652 56.0581H126.641ZM126.459 69.0489C125.196 69.0403 123.938 68.9094 122.701 68.6582V54.1472C123.937 53.8834 125.195 53.7382 126.459 53.7136C129.288 53.7136 132.182 54.5379 132.182 57.8994C132.168 58.5922 131.95 59.2657 131.556 59.8365C131.162 60.4074 130.609 60.8505 129.964 61.111V61.1538C130.772 61.3263 131.492 61.7785 131.998 62.43C132.503 63.0816 132.76 63.8905 132.724 64.7133C132.724 68.2674 129.331 69.0489 126.416 69.0489H126.459ZM112.511 68.8134V61.9781C112.511 60.656 111.642 59.9815 110.364 59.9815C109.61 60.0126 108.867 60.1738 108.168 60.4579C108.168 60.4579 108.211 60.763 108.211 60.9129V68.792H105.602V60.3081C105.578 59.7989 105.526 59.2914 105.446 58.7879C107.025 58.1666 108.695 57.8051 110.391 57.7174C113.043 57.7174 115.131 58.5845 115.131 61.5766V68.8027L112.511 68.8134ZM100.453 66.1638V63.4875C99.5623 64.3332 96.5828 63.9853 96.5828 65.5483C96.5828 66.6723 97.6565 66.8704 98.6067 66.8704C99.2487 66.8675 99.8863 66.7646 100.496 66.5653C100.474 66.4289 100.459 66.2913 100.453 66.1532V66.1638ZM98.6282 69.0489C96.5398 69.0489 93.7535 68.2889 93.7535 65.7517C93.7535 61.3732 100.496 62.8666 100.496 60.9771C100.496 60.0672 99.3207 59.9815 98.6711 59.9815C97.6292 60.0039 96.6013 60.2256 95.6433 60.6346L94.7467 58.638C96.0986 58.0356 97.5609 57.7185 99.0416 57.7067C101.366 57.7067 103.111 58.7237 103.111 61.2394V66.8169C103.135 67.2744 103.185 67.7301 103.261 68.1818C101.767 68.6898 100.206 68.9748 98.6282 69.0275" fill="#4F4E51"/>
<path d="M164.822 68.7924L161.359 64.5638C161.092 64.2475 160.777 63.9748 160.425 63.7555V68.7924H157.816V52.8682H160.425V61.6305L163.952 57.9425H167.367L162.342 62.7171C162.695 62.8213 163.012 63.0237 163.254 63.3005L168 68.7924H164.822Z" fill="#4F4E51"/>
</svg>
