<svg width="18" height="20" viewBox="0 0 18 20" fill="none" xmlns="http://www.w3.org/2000/svg">
<path d="M9.30989 18.8892L9.65251 19.5563L9.65252 19.5563L9.30989 18.8892ZM8.51362 18.8892L8.85625 18.222H8.85625L8.51362 18.8892ZM16.0735 8.91175C16.0735 11.5019 14.7399 13.6105 13.1386 15.2092C11.5384 16.8069 9.73634 17.827 8.96726 18.222L9.65252 19.5563C10.4883 19.1271 12.443 18.0233 14.1984 16.2707C15.9527 14.5192 17.5735 12.0512 17.5735 8.91175H16.0735ZM8.91175 1.75C12.8671 1.75 16.0735 4.95643 16.0735 8.91175H17.5735C17.5735 4.128 13.6955 0.25 8.91175 0.25V1.75ZM1.75 8.91175C1.75 4.95643 4.95643 1.75 8.91175 1.75V0.25C4.128 0.25 0.25 4.128 0.25 8.91175H1.75ZM8.85625 18.222C8.08717 17.827 6.28507 16.8069 4.68488 15.2092C3.08358 13.6105 1.75 11.5019 1.75 8.91175H0.25C0.25 12.0512 1.87078 14.5192 3.62507 16.2707C5.38046 18.0233 7.33518 19.1271 8.17099 19.5563L8.85625 18.222ZM8.96726 18.222C8.92893 18.2417 8.89457 18.2417 8.85625 18.222L8.17099 19.5563C8.63946 19.7969 9.18406 19.7969 9.65251 19.5563L8.96726 18.222ZM11.553 8.90638C11.553 10.3648 10.3707 11.5471 8.91224 11.5471V13.0471C11.1991 13.0471 13.053 11.1933 13.053 8.90638H11.553ZM8.91224 6.26562C10.3707 6.26562 11.553 7.44793 11.553 8.90638H13.053C13.053 6.6195 11.1991 4.76562 8.91224 4.76562V6.26562ZM6.27148 8.90638C6.27148 7.44793 7.45379 6.26562 8.91224 6.26562V4.76562C6.62536 4.76562 4.77148 6.6195 4.77148 8.90638H6.27148ZM8.91224 11.5471C7.45379 11.5471 6.27148 10.3648 6.27148 8.90638H4.77148C4.77148 11.1933 6.62536 13.0471 8.91224 13.0471V11.5471Z" fill="#002245"/>
</svg>
