<svg width="33" height="31" viewBox="0 0 33 31" fill="none" xmlns="http://www.w3.org/2000/svg">
<path d="M30.1135 1H14.8488C13.6136 1 12.6123 2.00132 12.6123 3.23651V24.2965C12.6123 25.5316 13.6136 26.533 14.8488 26.533H30.1135C31.3487 26.533 32.35 25.5316 32.35 24.2965V3.23651C32.35 2.00132 31.3487 1 30.1135 1Z" stroke="#078AFB" stroke-width="1.3" stroke-linecap="round" stroke-linejoin="round"/>
<path d="M28.8491 20.7645C29.722 20.7645 30.4296 20.0569 30.4296 19.184C30.4296 18.3111 29.722 17.6035 28.8491 17.6035C27.9762 17.6035 27.2686 18.3111 27.2686 19.184C27.2686 20.0569 27.9762 20.7645 28.8491 20.7645Z" fill="#078AFB" stroke="#078AFB" stroke-width="1.3" stroke-linecap="round" stroke-linejoin="round"/>
<path d="M16.1137 20.7645C16.9866 20.7645 17.6942 20.0569 17.6942 19.184C17.6942 18.3111 16.9866 17.6035 16.1137 17.6035C15.2408 17.6035 14.5332 18.3111 14.5332 19.184C14.5332 20.0569 15.2408 20.7645 16.1137 20.7645Z" fill="#078AFB" stroke="#078AFB" stroke-width="1.3" stroke-linecap="round" stroke-linejoin="round"/>
<path d="M32.2206 23.6094H12.7412" stroke="#078AFB" stroke-width="1.3" stroke-linecap="round" stroke-linejoin="round"/>
<path d="M20.6579 21.2266H24.305C24.4273 21.2266 24.5484 21.2507 24.6614 21.2975C24.7743 21.3443 24.877 21.4129 24.9635 21.4993C25.05 21.5858 25.1186 21.6885 25.1654 21.8015C25.2122 21.9145 25.2363 22.0356 25.2363 22.1579V23.6092H19.7266V22.1579C19.7266 22.0356 19.7507 21.9145 19.7975 21.8015C19.8443 21.6885 19.9129 21.5858 19.9993 21.4993C20.0858 21.4129 20.1885 21.3443 20.3015 21.2975C20.4145 21.2507 20.5356 21.2266 20.6579 21.2266Z" fill="#078AFB" stroke="#078AFB" stroke-width="1.3" stroke-linecap="round" stroke-linejoin="round"/>
<path d="M15.0898 26.5332H18.329V29.2116C18.329 29.5136 18.2091 29.8032 17.9955 30.0167C17.782 30.2303 17.4924 30.3502 17.1904 30.3502H16.2285C15.9265 30.3502 15.6369 30.2303 15.4233 30.0167C15.2098 29.8032 15.0898 29.5136 15.0898 29.2116V26.5332Z" fill="#078AFB" stroke="#078AFB" stroke-width="1.3" stroke-linecap="round" stroke-linejoin="round"/>
<path d="M26.6328 26.5332H29.872V29.2116C29.872 29.5136 29.7521 29.8032 29.5385 30.0167C29.325 30.2303 29.0354 30.3502 28.7334 30.3502H27.7715C27.4695 30.3502 27.1799 30.2303 26.9663 30.0167C26.7528 29.8032 26.6328 29.5136 26.6328 29.2116V26.5332Z" fill="#078AFB" stroke="#078AFB" stroke-width="1.3" stroke-linecap="round" stroke-linejoin="round"/>
<path d="M29.2334 6.72656H15.7294C15.2338 6.72656 14.832 7.12831 14.832 7.62389V14.6257C14.832 15.1213 15.2338 15.5231 15.7294 15.5231H29.2334C29.729 15.5231 30.1307 15.1213 30.1307 14.6257V7.62389C30.1307 7.12831 29.729 6.72656 29.2334 6.72656Z" stroke="#078AFB" stroke-width="1.3" stroke-linecap="round" stroke-linejoin="round"/>
<path d="M16.1299 3.09766H28.8318" stroke="#078AFB" stroke-width="1.3" stroke-linecap="round" stroke-linejoin="round"/>
<path d="M4.65728 10.1368C6.67714 10.1368 8.31456 8.4994 8.31456 6.47954C8.31456 4.45968 6.67714 2.82227 4.65728 2.82227C2.63742 2.82227 1 4.45968 1 6.47954C1 8.4994 2.63742 10.1368 4.65728 10.1368Z" fill="#078AFB" stroke="#078AFB" stroke-width="1.3" stroke-linecap="round" stroke-linejoin="round"/>
<path d="M4.34766 19.7422H4.96287C5.31084 19.7422 5.64455 19.8804 5.89059 20.1265C6.13664 20.3725 6.27487 20.7062 6.27487 21.0542V30.3367H3.03906V21.0542C3.03906 20.7068 3.17682 20.3736 3.42214 20.1277C3.66745 19.8817 4.00029 19.7431 4.34766 19.7422Z" fill="#078AFB" stroke="#078AFB" stroke-width="1.3" stroke-linecap="round" stroke-linejoin="round"/>
<path d="M4.65723 10.1367V19.7422" stroke="#078AFB" stroke-width="1.3" stroke-linecap="round" stroke-linejoin="round"/>
</svg>
