<svg width="13" height="9" viewBox="0 0 13 9" fill="none" xmlns="http://www.w3.org/2000/svg">
<path d="M2.38388 1.11612C1.89573 0.627961 1.10427 0.627961 0.616116 1.11612C0.127961 1.60427 0.127961 2.39573 0.616116 2.88388L2.38388 1.11612ZM6.5 7L5.61612 7.88388L6.5 8.76777L7.38388 7.88388L6.5 7ZM12.3839 2.88388C12.872 2.39573 12.872 1.60427 12.3839 1.11612C11.8957 0.627961 11.1043 0.627961 10.6161 1.11612L12.3839 2.88388ZM0.616116 2.88388L5.61612 7.88388L7.38388 6.11612L2.38388 1.11612L0.616116 2.88388ZM7.38388 7.88388L12.3839 2.88388L10.6161 1.11612L5.61612 6.11612L7.38388 7.88388Z" fill="#078AFB"/>
</svg>
