<svg width="12" height="12" viewBox="0 0 12 12" fill="none" xmlns="http://www.w3.org/2000/svg">
<path d="M5.75598 3.75702V5.8966L7.36473 7.49994M10.7447 5.875C10.7447 6.83917 10.4577 7.78167 9.92683 8.58333C9.39058 9.385 8.62683 10.0079 7.7385 10.3762C6.54141 10.8692 5.2035 10.8692 4.00641 10.3762C3.41058 10.1325 2.87433 9.775 2.41933 9.32542C1.96433 8.87042 1.60683 8.33417 1.3685 7.73833C1.12475 7.14792 0.994746 6.51417 1.00016 5.875C1.00016 4.58042 1.51475 3.34 2.43016 2.43C3.34558 1.51458 4.586 1 5.87516 1C7.16433 1 8.41016 1.51458 9.32016 2.43C10.2356 3.34542 10.7502 4.58583 10.7502 5.875H10.7447Z" stroke="#8996A2" stroke-width="1.5" stroke-linecap="round" stroke-linejoin="round"/>
</svg>
