<svg width="22" height="22" viewBox="0 0 22 22" fill="none" xmlns="http://www.w3.org/2000/svg">
<path d="M7.45361 0H1.54639C0.692343 0 0 0.692343 0 1.54639V7.45361C0 8.30766 0.692343 9 1.54639 9H7.45361C8.30766 9 9 8.30766 9 7.45361V1.54639C9 0.692343 8.30766 0 7.45361 0Z" fill="#8996A2" fill-opacity="0.48"/>
<path d="M20.2402 0H14.333C13.479 0 12.7866 0.692343 12.7866 1.54639V7.45361C12.7866 8.30766 13.479 9 14.333 9H20.2402C21.0943 9 21.7866 8.30766 21.7866 7.45361V1.54639C21.7866 0.692343 21.0943 0 20.2402 0Z" fill="#8996A2" fill-opacity="0.48"/>
<path d="M7.45361 13H1.54639C0.692343 13 0 13.6923 0 14.5464V20.4536C0 21.3077 0.692343 22 1.54639 22H7.45361C8.30766 22 9 21.3077 9 20.4536V14.5464C9 13.6923 8.30766 13 7.45361 13Z" fill="#8996A2" fill-opacity="0.48"/>
<path d="M20.2402 13H14.333C13.479 13 12.7866 13.6923 12.7866 14.5464V20.4536C12.7866 21.3077 13.479 22 14.333 22H20.2402C21.0943 22 21.7866 21.3077 21.7866 20.4536V14.5464C21.7866 13.6923 21.0943 13 20.2402 13Z" fill="#8996A2" fill-opacity="0.48"/>
</svg>
