<svg width="84" height="59" viewBox="0 0 84 59" fill="none" xmlns="http://www.w3.org/2000/svg">
<path d="M66.1621 34.5938C66.8157 36.3995 68.0097 37.96 69.5818 39.063C71.1539 40.1659 73.0277 40.7576 74.9481 40.7576C76.8684 40.7576 78.7422 40.1659 80.3143 39.063C81.8864 37.96 83.0805 36.3995 83.734 34.5938H66.1621Z" fill="#34E0A2"/>
<path d="M74.9401 14.7832L66.1694 32.0724H74.9401H83.7184L74.9401 14.7832Z" fill="#34E0A2"/>
<path d="M0 34.5938C0.650136 36.4029 1.84292 37.9673 3.41543 39.0732C4.98795 40.1791 6.86351 40.7725 8.78594 40.7725C10.7084 40.7725 12.5839 40.1791 14.1565 39.0732C15.729 37.9673 16.9218 36.4029 17.5719 34.5938H0Z" fill="#34E0A2"/>
<path d="M8.77831 14.7832L0 32.0724H8.77831H17.549L8.77831 14.7832Z" fill="#34E0A2"/>
<path d="M38.1234 8.24317C37.7945 7.41427 37.6284 6.52971 37.6344 5.63795C37.6344 2.65836 39.4069 0.244141 41.5996 0.244141C43.7922 0.244141 45.5723 2.65836 45.5723 5.63795C45.5796 6.53055 45.4109 7.41584 45.0757 8.24317H45.282C44.2354 10.4358 43.2116 20.0316 43.2116 26.9382V53.2731H39.9952V26.9382C39.9952 20.0622 38.9714 10.4358 37.9247 8.24317H38.1234Z" fill="#52ADFD"/>
<path d="M41.5993 9.25162C25.2803 9.25162 16.716 15.5469 7.41813 15.5469C7.22309 15.5572 7.02797 15.5281 6.84447 15.4612C6.66097 15.3943 6.49285 15.2911 6.35019 15.1577C6.20752 15.0243 6.09324 14.8635 6.01419 14.6849C5.93514 14.5063 5.89295 14.3136 5.89014 14.1183C5.89489 13.7752 6.02359 13.4455 6.25248 13.1899C6.48137 12.9343 6.79499 12.7702 7.13545 12.7278C8.48772 12.7278 8.66344 14.378 8.66344 14.378C16.0207 14.5919 28.0995 3.39941 41.5993 3.39941C55.0991 3.39941 67.1855 14.5919 74.5428 14.378C74.5428 14.378 74.6879 12.7278 76.0708 12.7278C76.4112 12.7702 76.7248 12.9343 76.9537 13.1899C77.1826 13.4455 77.3113 13.7752 77.3161 14.1183C77.3133 14.3136 77.2711 14.5063 77.192 14.6849C77.113 14.8635 76.9987 15.0243 76.856 15.1577C76.7134 15.2911 76.5452 15.3943 76.3617 15.4612C76.1782 15.5281 75.9831 15.5572 75.7881 15.5469C66.4903 15.5087 57.9259 9.25162 41.5993 9.25162Z" fill="#52ADFD"/>
<path fill-rule="evenodd" clip-rule="evenodd" d="M37.8863 52.1042C38.0309 51.2227 38.4841 50.4213 39.1649 49.843C39.8457 49.2647 40.7099 48.9473 41.6032 48.9473C42.4964 48.9473 43.3606 49.2647 44.0414 49.843C44.7223 50.4213 45.1754 51.2227 45.32 52.1042H53.4031C54.0095 52.1178 54.5949 52.3288 55.0705 52.7052C55.5462 53.0816 55.8861 53.6028 56.0389 54.1898H44.7852C44.4233 54.6961 43.9457 55.1087 43.3923 55.3933C42.8389 55.678 42.2255 55.8265 41.6032 55.8265C40.9808 55.8265 40.3675 55.678 39.814 55.3933C39.2606 55.1087 38.7831 54.6961 38.4211 54.1898H27.1675C27.3191 53.6022 27.6587 53.0803 28.1346 52.7037C28.6105 52.3272 29.1965 52.1166 29.8033 52.1042H37.8863Z" fill="#078AFB"/>
<path d="M19.2451 58.3685L20.0091 56.2522C20.2518 55.6638 20.6576 55.157 21.1787 54.7915C21.6998 54.426 22.3146 54.2171 22.9505 54.1895H60.2717C60.9069 54.2199 61.5204 54.4298 62.041 54.795C62.5617 55.1601 62.9681 55.6654 63.213 56.2522L63.977 58.3685H19.2451Z" fill="#52ADFD"/>
</svg>
