<svg width="18" height="14" viewBox="0 0 18 14" fill="none" xmlns="http://www.w3.org/2000/svg">
<path d="M7.58049 2.8529C8.05153 2.34821 8.02425 1.55722 7.51956 1.08618C7.01488 0.615138 6.22389 0.642414 5.75285 1.1471L7.58049 2.8529ZM2 7L1.08618 6.1471L0.290143 7L1.08618 7.8529L2 7ZM5.75285 12.8529C6.22389 13.3576 7.01488 13.3849 7.51956 12.9138C8.02425 12.4428 8.05153 11.6518 7.58049 11.1471L5.75285 12.8529ZM16 8.25C16.6904 8.25 17.25 7.69036 17.25 7C17.25 6.30964 16.6904 5.75 16 5.75V8.25ZM5.75285 1.1471L1.08618 6.1471L2.91382 7.8529L7.58049 2.8529L5.75285 1.1471ZM1.08618 7.8529L5.75285 12.8529L7.58049 11.1471L2.91382 6.1471L1.08618 7.8529ZM2 8.25H16V5.75H2V8.25Z" fill="#078AFB"/>
</svg>
