<svg width="16" height="16" viewBox="0 0 16 16" fill="none" xmlns="http://www.w3.org/2000/svg">
<path d="M1.45561 1.45561C1.16389 1.74733 1 2.143 1 2.55556V3.33333C1 9.77644 6.22356 15 12.6667 15H13.4444C13.857 15 14.2527 14.8361 14.5444 14.5444C14.8361 14.2527 15 13.857 15 13.4444V10.8941C15 10.7308 14.9487 10.5716 14.8532 10.4391C14.7577 10.3067 14.6229 10.2076 14.468 10.156L10.9734 8.99089C10.7958 8.93185 10.6029 8.93884 10.4301 9.01055C10.2572 9.08227 10.116 9.21391 10.0323 9.38133L9.15344 11.1368C7.24903 10.2763 5.72369 8.75097 4.86322 6.84656L6.61867 5.96767C6.78609 5.88402 6.91773 5.74281 6.98945 5.56995C7.06116 5.39708 7.06815 5.20415 7.00911 5.02656L5.844 1.532C5.79244 1.37719 5.69349 1.24251 5.56117 1.14704C5.42884 1.05156 5.26984 1.00012 5.10667 1H2.55556C2.143 1 1.74733 1.16389 1.45561 1.45561Z" stroke="white" stroke-width="1.5" stroke-linecap="round" stroke-linejoin="round"/>
</svg>
