<svg width="78" height="62" viewBox="0 0 78 62" fill="none" xmlns="http://www.w3.org/2000/svg">
<path d="M27.2374 20.7152L13.6142 7.69727L0 20.7152V48.8017H27.2374V20.7152Z" fill="#078AFB"/>
<path d="M18.3477 33.3896H8.88916V48.8016H18.3477V33.3896Z" fill="#B5DBFE"/>
<path d="M22.6304 26.5869H4.59863V27.8788H22.6304V26.5869Z" fill="#002245"/>
<path d="M22.6304 22.9014H4.59863V24.1932H22.6304V22.9014Z" fill="#002245"/>
<path d="M54.4748 20.7152L40.8516 7.69727H13.6143L27.2375 20.7152V48.8017H54.4748V20.7152Z" fill="#52ADFD"/>
<path d="M54.4658 20.7242H27.2375L13.6143 7.69727H40.8516L54.4658 20.7242Z" fill="#B5DBFE"/>
<path d="M48.3679 27.2285H33.3354V42.261H48.3679V27.2285Z" fill="#CEF0FE"/>
<path d="M33.8055 16.6221H38.2773V-0.000391006H33.8055V16.6221Z" fill="#B5DBFE"/>
<path d="M28.2676 10.8766L33.7964 16.6313V0.00878906H28.2676V10.8766Z" fill="#52ADFD"/>
<path d="M50.6631 34.1035H32.6313V35.3954H50.6631V34.1035Z" fill="#52ADFD"/>
<path d="M44.4022 25.7285H43.1104V43.7603H44.4022V25.7285Z" fill="#52ADFD"/>
<path d="M73.6332 50.5088H69.062V62H73.6332V50.5088Z" fill="#F3AF34"/>
<path d="M51.7079 50.5088H47.1367V62H51.7079V50.5088Z" fill="#F3AF34"/>
<path d="M77.717 35.3945H43.0537V51.3666H77.717V35.3945Z" fill="#F3AF34"/>
<path d="M51.5672 41.75C51.7704 41.5393 51.7704 41.163 51.5672 40.9523C51.3565 40.7416 50.9803 40.7416 50.7696 40.9523C50.5513 41.163 50.5513 41.5393 50.7696 41.75C50.9803 41.9682 51.3565 41.9682 51.5672 41.75ZM52.5229 41.9155C52.8315 41.9155 53.0723 41.6747 53.0723 41.3512C53.0723 41.0276 52.8465 40.7943 52.5229 40.7943C52.1993 40.7943 51.9585 41.0276 51.9585 41.3512C51.9585 41.6747 52.1993 41.9155 52.5229 41.9155ZM53.9376 45.0234C53.5162 45.0234 53.3958 44.8804 53.3958 44.4364V42.7884H51.8532C51.191 42.7884 50.6868 42.954 50.3406 43.2776C49.9945 43.6012 49.8214 43.9849 49.8214 44.4289C49.8214 44.9181 49.9945 45.2868 50.3331 45.5502C50.6718 45.8135 51.0856 45.9415 51.5898 45.9415C51.9585 45.9415 52.3047 45.8662 52.6208 45.7157C52.854 45.9038 53.2905 45.9941 53.9376 45.9941C54.0355 45.9941 54.0881 45.8436 54.0881 45.5426C54.0881 45.1965 54.0355 45.0234 53.9376 45.0234ZM52.2219 44.8579C52.109 44.903 51.951 44.9256 51.7478 44.9256C51.206 44.9256 50.9351 44.7374 50.9351 44.3537C50.9351 43.9849 51.2211 43.7592 51.7027 43.7592H52.2219V44.8579ZM56.672 45.0234C56.228 45.0234 56.0022 44.7901 56.0022 44.3311V42.7884H54.8885V44.2257C54.8885 44.5493 54.8434 44.76 54.7531 44.8654C54.6552 44.9707 54.4596 45.0234 54.1586 45.0234H53.9403V45.9941H54.1887C54.8885 45.9941 55.3776 45.8587 55.641 45.5878C55.8367 45.8587 56.1828 45.9941 56.672 45.9941C56.7698 45.9941 56.8225 45.8436 56.8225 45.5426C56.8225 45.1965 56.7698 45.0234 56.672 45.0234ZM54.2113 46.7391C54.0984 46.852 54.0457 46.9875 54.0457 47.1455C54.0457 47.454 54.2865 47.6948 54.6101 47.6948C54.9337 47.6948 55.1594 47.4691 55.1594 47.1455C55.2046 46.6413 54.5348 46.3854 54.2113 46.7391ZM55.9646 46.5736C55.641 46.5736 55.4002 46.8219 55.4002 47.1455C55.4002 47.454 55.641 47.6948 55.9646 47.6948C56.2731 47.6948 56.5139 47.454 56.5139 47.1455C56.5139 46.8219 56.2731 46.5736 55.9646 46.5736ZM59.9625 45.0234C59.94 44.4741 59.8497 44.0978 59.5788 43.6764C59.3079 43.255 58.7811 42.9389 57.9759 42.7057L59.7067 41.0351L58.9843 40.2976L56.8547 42.352V43.398C57.389 43.4958 57.8028 43.6237 58.1038 43.7818C58.6983 44.0978 58.8488 44.444 58.8564 45.0234H56.6741V45.9941H60.4667C60.5646 45.9941 60.6172 45.8436 60.6172 45.5426C60.6172 45.1965 60.5646 45.0234 60.4667 45.0234H59.9625ZM62.8966 45.0234C62.4978 45.0234 62.272 44.8353 62.2344 44.459V44.3612V40.3052H61.1207V44.2257C61.1207 44.8277 60.9777 45.0234 60.466 45.0234V45.9941C61.1358 45.9941 61.6098 45.8587 61.8732 45.5878C62.0689 45.8587 62.4075 45.9941 62.8966 45.9941C62.9945 45.9941 63.0471 45.8436 63.0471 45.5426C63.0471 45.1965 62.9945 45.0234 62.8966 45.0234ZM66.8266 45.0234C66.8341 44.9858 66.8341 44.9331 66.8341 44.8503C66.8341 44.3236 66.6836 43.9022 66.3751 43.5786C66.0665 43.255 65.6451 43.097 65.1259 43.097C64.5615 43.097 64.11 43.2625 63.7714 43.6012C63.4252 43.9398 63.2521 44.3762 63.2521 44.8955V45.0234H62.8985V45.9941H63.6058C63.7563 46.1973 63.9444 46.3704 64.1627 46.5284H64.9302C65.5924 46.5284 66.0891 46.3478 66.4202 45.9941H67.2329C67.3307 45.9941 67.3834 45.8436 67.3834 45.5426C67.3834 45.1965 67.3307 45.0234 67.2329 45.0234H66.8266ZM64.5314 45.5577C64.1852 44.9858 64.3884 44.0677 65.0657 44.1129C65.4645 44.1129 65.7204 44.444 65.7204 44.8277C65.7204 45.2567 65.472 45.5577 64.9378 45.5577H64.5314ZM67.2342 45.9941C67.8588 45.9941 68.3103 45.8737 68.5887 45.6405C68.8672 45.4072 69.0026 44.9783 69.0026 44.3612V40.3052H67.8889V44.2257C67.8889 44.8277 67.7459 45.0234 67.2342 45.0234V45.9941ZM70.989 45.9941V40.3052H69.8753V45.9941H70.989Z" fill="white"/>
</svg>
