<svg width="23" height="23" viewBox="0 0 23 23" fill="none" xmlns="http://www.w3.org/2000/svg">
<path d="M21.625 11.5C21.625 14.1853 20.5583 16.7606 18.6595 18.6595C16.7606 20.5583 14.1853 21.625 11.5 21.625M21.625 11.5C21.625 8.81468 20.5583 6.23935 18.6595 4.34054C16.7606 2.44174 14.1853 1.375 11.5 1.375M21.625 11.5H1.375M11.5 21.625C8.81468 21.625 6.23935 20.5583 4.34054 18.6595C2.44174 16.7606 1.375 14.1853 1.375 11.5M11.5 21.625C13.3641 21.625 14.875 17.0912 14.875 11.5C14.875 5.90875 13.3641 1.375 11.5 1.375M11.5 21.625C9.63588 21.625 8.125 17.0912 8.125 11.5C8.125 5.90875 9.63588 1.375 11.5 1.375M11.5 1.375C8.81468 1.375 6.23935 2.44174 4.34054 4.34054C2.44174 6.23935 1.375 8.81468 1.375 11.5" stroke="#FF735C" stroke-width="2" stroke-linecap="round" stroke-linejoin="round"/>
</svg>
