<svg width="21" height="16" viewBox="0 0 21 16" fill="none" xmlns="http://www.w3.org/2000/svg">
<path d="M7.22246 1.01038C7.6935 0.505695 8.48448 0.47842 8.98917 0.949462C9.49386 1.4205 9.52114 2.21149 9.05009 2.71618L7.22246 1.01038ZM2.409 7.99965L1.49518 8.85254L0.699146 7.99965L1.49518 7.14675L2.409 7.99965ZM9.05009 13.2831C9.52114 13.7878 9.49386 14.5788 8.98917 15.0498C8.48448 15.5209 7.6935 15.4936 7.22246 14.9889L9.05009 13.2831ZM19.5908 6.74965C20.2812 6.74965 20.8408 7.30929 20.8408 7.99965C20.8408 8.69 20.2812 9.24965 19.5908 9.24965V6.74965ZM9.05009 2.71618L3.32282 8.85254L1.49518 7.14675L7.22246 1.01038L9.05009 2.71618ZM3.32282 7.14675L9.05009 13.2831L7.22246 14.9889L1.49518 8.85254L3.32282 7.14675ZM2.409 6.74965H19.5908V9.24965H2.409V6.74965Z" fill="white"/>
</svg>
