<svg width="23" height="23" viewBox="0 0 23 23" fill="none" xmlns="http://www.w3.org/2000/svg">
<path d="M11.5115 0C8.46455 0 5.5424 1.21141 3.38789 3.36774C1.23338 5.52407 0.0229837 8.44868 0.0229837 11.4982C0.0288295 13.4773 0.544978 15.4214 1.52148 17.1423L0.0229837 22.3615C-0.00414382 22.4479 -0.00732198 22.54 0.0137919 22.6281C0.0349057 22.7161 0.0795177 22.7968 0.142863 22.8614C0.193308 22.9091 0.253117 22.9457 0.318476 22.9689C0.383835 22.9921 0.453312 23.0015 0.522484 22.9964C0.562299 23.0012 0.602548 23.0012 0.642363 22.9964L6.08692 21.6466C7.75598 22.538 9.61967 23.0017 11.5115 22.9964C14.5584 22.9964 17.4806 21.785 19.6351 19.6286C21.7896 17.4723 23 14.5477 23 11.4982C23 8.44868 21.7896 5.52407 19.6351 3.36774C17.4806 1.21141 14.5584 0 11.5115 0ZM17.2907 15.5576C17.046 16.2374 15.8671 16.8574 15.2927 16.9423C14.6727 17.0462 14.0371 17.0069 13.4346 16.8274C12.8652 16.6506 12.3051 16.4453 11.7562 16.2125C8.79921 14.9477 6.86614 12.0031 6.71629 11.8081C6.56644 11.6132 5.51749 10.2284 5.51749 8.79362C5.50937 8.33863 5.59727 7.88705 5.77544 7.46839C5.95361 7.04972 6.21804 6.6734 6.55145 6.364C6.65052 6.25302 6.77116 6.16342 6.906 6.10067C7.04083 6.03792 7.18703 6.00335 7.33567 5.99906H7.9001C8.08492 5.99906 8.32468 5.92907 8.56444 6.49898C8.8042 7.06889 9.4036 8.49866 9.47353 8.66364C9.51737 8.73964 9.54045 8.82584 9.54045 8.9136C9.54045 9.00135 9.51737 9.08756 9.47353 9.16356C9.4025 9.34483 9.30301 9.5136 9.17883 9.66348C9.03397 9.83346 8.86913 10.0434 8.73927 10.1634C8.6094 10.2834 8.43457 10.4684 8.60939 10.7583C9.0549 11.5015 9.6069 12.1752 10.2478 12.758C10.9501 13.372 11.7527 13.8607 12.6204 14.2028C12.9151 14.3477 13.0849 14.3277 13.2597 14.1328C13.4346 13.9378 13.994 13.2779 14.1938 12.988C14.3936 12.698 14.5834 12.743 14.8581 12.843C15.1329 12.943 16.5764 13.6429 16.8561 13.7878C17.1359 13.9328 17.3556 14.0078 17.4206 14.1328C17.5234 14.6099 17.4781 15.107 17.2907 15.5576Z" fill="#20CC59"/>
</svg>
